<svg id="Layer_1" data-name="Layer 1" xmlns="http://www.w3.org/2000/svg" width="63.933" height="99.487" viewBox="0 0 63.933 99.487">
  <g id="Group_2413" data-name="Group 2413">
    <path id="Path_16944" data-name="Path 16944" d="M25.365,109.351,22.206,107.6l.031-.015,3.158,1.748-.031.015" transform="translate(-2.827 -13.697)" fill="#f1a5a5"/>
    <path id="Path_16945" data-name="Path 16945" d="M19.87,103.166,38.957,92.128,51.1,98.874,32.028,109.912,19.87,103.166" transform="translate(-2.53 -11.729)" fill="gray"/>
    <path id="Path_16946" data-name="Path 16946" d="M32.03,110.149,19.887,103.4l3.864-2.238V103.2l3.1,1.717h0l7.528-4.354L41.9,96.213V93.99l5.872,3.25-.736.429h0v.874l.782.46v2.024l-15.776,9.122M50.688,99.341l-.9-.521.4-.23.92.521-.414.245m-2.882-1.686h0" transform="translate(-2.532 -11.966)" fill="gray"/>
    <path id="Path_16947" data-name="Path 16947" d="M42.449,95.3l-7.528,4.354-7.528,4.354-3.1-1.717.015-15.454,15.04,6.746,3.1,1.717" transform="translate(-3.093 -11.055)" fill="#8bccf4"/>
    <path id="Path_16948" data-name="Path 16948" d="M27.394,104.608h0L42.449,95.9l-7.528,4.354-7.528,4.354m0,0-3.1-1.717V93.324l3.1-1.794v13.078" transform="translate(-3.093 -11.653)" fill="#b3b3b3"/>
    <path id="Path_16949" data-name="Path 16949" d="M42.9,94.258V78.635L27.846,87.344v15.623L42.9,94.258" transform="translate(-3.545 -10.011)" fill="#999"/>
    <path id="Path_16950" data-name="Path 16950" d="M32.028,111.523v1.3L19.87,106.08v-1.3l12.158,6.746" transform="translate(-2.53 -13.339)" fill="#8bccf4"/>
    <path id="Path_16951" data-name="Path 16951" d="M32.028,112.2v-1.3L19.87,104.15v1.3l2.07,1.15,3.158,1.748,6.93,3.848,19.165-11.054L51.1,99.858,32.028,110.9Z" transform="translate(-2.53 -12.713)" fill="#b3b3b3"/>
    <path id="Path_16952" data-name="Path 16952" d="M4.252,36.812,64.474,2.055V57.265L4.252,92.037V36.812" transform="translate(-0.541 -0.262)" fill="#ccc"/>
    <path id="Path_16953" data-name="Path 16953" d="M62.573,56.551,6.781,88.763v-50.1L62.573,6.448v50.1" transform="translate(-0.863 -0.821)" fill="#f4f6ef"/>
    <path id="Path_16954" data-name="Path 16954" d="M70.564,6.448v50.1l-1.012-.583V7.03l1.012-.583" transform="translate(-8.855 -0.821)" fill="#999"/>
    <path id="Path_16955" data-name="Path 16955" d="M69.552,39.671V7.03l1.012-.583V39.089l-1.012.583" transform="translate(-8.855 -0.821)" fill="#999"/>
    <path id="Path_16956" data-name="Path 16956" d="M6.781,94.822l54.78-31.629,1.012.583L6.781,95.987V94.822" transform="translate(-0.863 -8.045)" fill="#999"/>
    <path id="Path_16957" data-name="Path 16957" d="M6.781,97.354V96.188L45.34,73.927v1.165L6.781,97.354" transform="translate(-0.863 -9.411)" fill="#999"/>
    <path id="Path_16958" data-name="Path 16958" d="M.7,34.772,60.91,0l3.112,1.794L3.8,36.551.7,34.772" transform="translate(-0.089)" fill="#36a0ed"/>
    <path id="Path_16959" data-name="Path 16959" d="M3.71,36.551,63.933,1.794,60.821,0,.613,34.772l3.1,1.778h0V91.775L0,89.291.613,34.772" fill="#999"/>
    <path id="Path_16960" data-name="Path 16960" d="M24.845,47.157,12.1,54.516V46.835l12.741-7.359v7.681Z" transform="translate(-1.541 -5.026)" fill="#36a0ed"/>
    <path id="Path_16961" data-name="Path 16961" d="M12.667,53.835V47.166l11.759-6.777v6.669L12.667,53.835Z" transform="translate(-1.613 -5.142)" fill="#8bccf4"/>
    <path id="Path_16962" data-name="Path 16962" d="M44.2,35.984,31.447,43.343V35.677L44.2,28.3v7.681Z" transform="translate(-4.003 -3.603)" fill="#36a0ed"/>
    <path id="Path_16963" data-name="Path 16963" d="M32.009,42.677V36.008l11.759-6.792v6.669L32.009,42.677Z" transform="translate(-4.075 -3.719)" fill="#8bccf4"/>
    <path id="Path_16964" data-name="Path 16964" d="M63.546,24.812,50.79,32.172V24.506l12.756-7.359v7.666Z" transform="translate(-6.466 -2.183)" fill="#36a0ed"/>
    <path id="Path_16965" data-name="Path 16965" d="M51.352,31.5V24.834l11.759-6.792v6.669L51.352,31.5Z" transform="translate(-6.537 -2.297)" fill="#8bccf4"/>
    <path id="Path_16966" data-name="Path 16966" d="M44.15,52.076,31.394,59.435V51.769L44.15,44.395v7.681Z" transform="translate(-3.997 -5.652)" fill="#36a0ed"/>
    <path id="Path_16967" data-name="Path 16967" d="M31.957,58.77V52.085l11.759-6.777v6.669L31.957,58.77Z" transform="translate(-4.068 -5.768)" fill="#8bccf4"/>
    <path id="Path_16968" data-name="Path 16968" d="M63.546,40.87,50.79,48.229V40.563L63.546,33.2V40.87Z" transform="translate(-6.466 -4.227)" fill="#36a0ed"/>
    <path id="Path_16969" data-name="Path 16969" d="M51.352,47.561V40.892L63.111,34.1v6.669L51.352,47.561Z" transform="translate(-6.537 -4.341)" fill="#8bccf4"/>
    <path id="Path_16970" data-name="Path 16970" d="M29.662,49.951l-1.594.92c-.353.2-.644.077-.644-.276V49a1.358,1.358,0,0,1,.644-1.012l1.594-.92c.353-.2.644-.077.644.276v1.594a1.358,1.358,0,0,1-.644,1.012Z" transform="translate(-3.491 -5.98)" fill="#177fda"/>
    <path id="Path_16971" data-name="Path 16971" d="M49,50.917l-1.594.92c-.353.2-.644.077-.644-.276V49.967a1.358,1.358,0,0,1,.644-1.012L49,48.035c.353-.2.644-.077.644.276v1.594A1.358,1.358,0,0,1,49,50.917Z" transform="translate(-5.954 -6.103)" fill="#177fda"/>
    <path id="Path_16972" data-name="Path 16972" d="M59.967,32.471l-1.594.92c-.353.2-.644.077-.644-.276V31.52a1.358,1.358,0,0,1,.644-1.012l1.594-.92c.353-.2.644-.077.644.276v1.594a1.358,1.358,0,0,1-.644,1.012Z" transform="translate(-7.349 -3.755)" fill="#177fda"/>
    <path id="Path_16973" data-name="Path 16973" d="M19.554,47.961l-.445-1.579-.445,2.085.874-.506h0Zm.169.629-1.211.705L18.3,50.306l-1.027.583L18.527,46l1.2-.69,1.257,3.434-1.043.6-.215-.767h0Z" transform="translate(-2.199 -5.768)" fill="#002e6d"/>
    <path id="Path_16974" data-name="Path 16974" d="M39.077,37.072c0-.414-.291-.4-.721-.153l-.429.245V38.3l.353-.215c.46-.261.8-.552.8-1.012Zm-1.15-1.533V36.5l.368-.215a1.014,1.014,0,0,0,.629-.859c0-.337-.23-.337-.705-.061l-.291.169Zm2.162,1c0,.951-.767,1.656-1.809,2.254l-1.334.767V35.4l1.181-.675c1.119-.644,1.794-.751,1.794.015a1.878,1.878,0,0,1-.767,1.334c.46-.184.935-.23.935.445h0Z" transform="translate(-4.704 -4.355)" fill="#002e6d"/>
    <path id="Path_16975" data-name="Path 16975" d="M59.412,22.743l-.475.828a1.065,1.065,0,0,0-.751.138,2.1,2.1,0,0,0-.9,1.962c0,1.012.368,1.211.92.9a2.568,2.568,0,0,0,.813-.813l.445.307a4.02,4.02,0,0,1-1.3,1.288c-1.135.659-1.9.337-1.9-1.089A3.815,3.815,0,0,1,58.139,23a1.643,1.643,0,0,1,1.273-.276h0Z" transform="translate(-7.161 -2.888)" fill="#002e6d"/>
    <path id="Path_16976" data-name="Path 16976" d="M39.68,50.555l-1.457.843v1l1.273-.736v.69l-1.273.736v1.058l1.564-.9v.705l-2.56,1.472V51.26l2.56-1.472-.107.767Z" transform="translate(-4.739 -6.338)" fill="#002e6d"/>
    <path id="Path_16977" data-name="Path 16977" d="M56.675,40.041l2.484-1.426-.107.751-1.4.813v1.1l1.211-.705v.705l-1.211.705v1.64l-.981.567V40.041Z" transform="translate(-7.215 -4.916)" fill="#002e6d"/>
    <path id="Path_16978" data-name="Path 16978" d="M13.528,86.5V84.3a3.058,3.058,0,0,1,1.487-2.346l7.267-4.2c.828-.475,1.487-.2,1.487.629v2.192a3.1,3.1,0,0,1-1.487,2.346l-7.267,4.2c-.828.475-1.487.2-1.487-.629Z" transform="translate(-1.722 -9.87)" fill="#177fda"/>
    <path id="Path_16979" data-name="Path 16979" d="M15.05,86.9c-.69.4-1.242.153-1.242-.521V84.191a2.569,2.569,0,0,1,1.242-1.962l7.267-4.2c.69-.4,1.242-.153,1.242.521v2.192A2.569,2.569,0,0,1,22.318,82.7L15.05,86.9Z" transform="translate(-1.758 -9.909)" fill="#8bccf4"/>
    <path id="Path_16980" data-name="Path 16980" d="M32.87,75.324V73.131a3.058,3.058,0,0,1,1.487-2.346l7.267-4.2c.828-.475,1.487-.2,1.487.629v2.192a3.1,3.1,0,0,1-1.487,2.346l-7.267,4.2c-.828.475-1.487.2-1.487-.629Z" transform="translate(-4.185 -8.447)" fill="#177fda"/>
    <path id="Path_16981" data-name="Path 16981" d="M34.393,75.749c-.69.4-1.242.153-1.242-.521V73.035a2.569,2.569,0,0,1,1.242-1.962l7.267-4.2c.69-.4,1.242-.153,1.242.521v2.192a2.569,2.569,0,0,1-1.242,1.962l-7.267,4.2Z" transform="translate(-4.22 -8.489)" fill="#8bccf4"/>
    <path id="Path_16982" data-name="Path 16982" d="M52.213,64.15V61.958A3.058,3.058,0,0,1,53.7,59.612l7.267-4.2c.828-.475,1.487-.2,1.487.629v2.192a3.058,3.058,0,0,1-1.487,2.346l-7.267,4.2c-.828.475-1.487.2-1.487-.629h0Z" transform="translate(-6.647 -7.025)" fill="#177fda"/>
    <path id="Path_16983" data-name="Path 16983" d="M53.753,64.575c-.69.4-1.242.153-1.242-.521V61.862A2.569,2.569,0,0,1,53.753,59.9l7.267-4.2c.69-.4,1.242-.153,1.242.521v2.192a2.569,2.569,0,0,1-1.242,1.962l-7.267,4.2h0Z" transform="translate(-6.685 -7.066)" fill="#8bccf4"/>
    <path id="Path_16984" data-name="Path 16984" d="M18.867,84.225,17.533,83.7l.4-.629.874.353,1.548-2.913.445.092-1.932,3.618Z" transform="translate(-2.232 -10.25)" fill="#177fda"/>
    <path id="Path_16985" data-name="Path 16985" d="M38.209,73.054l-1.334-.506.4-.629.874.337,1.548-2.9.445.077-1.932,3.618Z" transform="translate(-4.695 -8.83)" fill="#177fda"/>
    <path id="Path_16986" data-name="Path 16986" d="M57.552,61.881l-1.334-.506.4-.629.874.337,1.548-2.9.445.092-1.932,3.6Z" transform="translate(-7.157 -7.408)" fill="#177fda"/>
    <path id="Path_16987" data-name="Path 16987" d="M25.084,44.858a2.9,2.9,0,0,1-1.4,2.192c-.767.445-1.4.184-1.4-.583a2.9,2.9,0,0,1,1.4-2.192c.767-.445,1.4-.184,1.4.583Z" transform="translate(-2.838 -5.609)" fill="#fa7b17"/>
    <path id="Path_16988" data-name="Path 16988" d="M63.717,22.687a2.9,2.9,0,0,1-1.4,2.192c-.767.445-1.4.184-1.4-.583a2.9,2.9,0,0,1,1.4-2.192c.767-.445,1.4-.184,1.4.583Z" transform="translate(-7.756 -2.786)" fill="#fa7b17"/>
    <path id="Path_16989" data-name="Path 16989" d="M55,43.593a2.9,2.9,0,0,1-1.4,2.192c-.767.445-1.4.184-1.4-.583a2.9,2.9,0,0,1,1.4-2.192c.767-.445,1.4-.184,1.4.583Z" transform="translate(-6.647 -5.448)" fill="#fa7b17"/>
    <path id="Path_16990" data-name="Path 16990" d="M10.964,61.547a2.094,2.094,0,0,0-.23-.322,2.094,2.094,0,0,0,.23.322Z" transform="translate(-1.367 -7.794)" fill="#002e6d"/>
    <path id="Path_16991" data-name="Path 16991" d="M59.1,55.432l-.629-.368V52.213l.629.368v2.852" transform="translate(-7.443 -6.647)" fill="#8bccf4"/>
  </g>
</svg>
