<svg id="chat-arrow-grow" xmlns="http://www.w3.org/2000/svg" width="71.342" height="71.27" viewBox="0 0 71.342 71.27">
  <path id="Path_290" data-name="Path 290" d="M57.047,3.976H47.874a2.973,2.973,0,0,0-2.1,5.074L49,12.278h0L38.341,22.935a3.044,3.044,0,0,1-4.206,0l-.505-.508a9.129,9.129,0,0,0-12.613,0L5.857,37.587A2.983,2.983,0,1,0,10.081,41.8l15.16-15.16a3.041,3.041,0,0,1,4.206,0l.505.508a9.135,9.135,0,0,0,12.613,0l10.66-10.66h0l3.228,3.228a2.973,2.973,0,0,0,5.053-2.108V8.435A4.459,4.459,0,0,0,57.047,3.976Z" transform="translate(9.835 7.843)" fill="#009bde"/>
  <path id="Path_291" data-name="Path 291" d="M68.369,65.325H14.863a8.918,8.918,0,0,1-8.918-8.918V2.973A2.973,2.973,0,1,0,0,2.973V56.407A14.881,14.881,0,0,0,14.863,71.27H68.369a2.973,2.973,0,0,0,0-5.945Z" fill="#009bde"/>
</svg>
