<svg xmlns="http://www.w3.org/2000/svg" xmlns:xlink="http://www.w3.org/1999/xlink" width="60.186" height="66.225" viewBox="0 0 60.186 66.225">
  <defs>
    <filter id="document-signed" x="0" y="0" width="60.186" height="66.225" filterUnits="userSpaceOnUse">
      <feOffset dy="3" input="SourceAlpha"/>
      <feGaussianBlur stdDeviation="5" result="blur"/>
      <feFlood flood-color="#fff"/>
      <feComposite operator="in" in2="blur"/>
      <feComposite in="SourceGraphic"/>
    </filter>
  </defs>
  <g transform="matrix(1, 0, 0, 1, 0, 0)" filter="url(#document-signed)">
    <path id="document-signed-2" data-name="document-signed" d="M26.149,17.357a.755.755,0,0,1-.755.755H8.792a.755.755,0,0,1,0-1.509h16.6A.755.755,0,0,1,26.149,17.357Zm-.755,5.283H8.792a.755.755,0,0,0,0,1.509h16.6a.755.755,0,1,0,0-1.509ZM24.768,27.5a4.87,4.87,0,0,1-3.9,1.93,6.343,6.343,0,0,1-3.4-1.041,7.679,7.679,0,0,0-4.148-1.223,6.812,6.812,0,0,0-5.129,2.569.755.755,0,0,0,1.21.9,5.375,5.375,0,0,1,3.929-1.961,6.018,6.018,0,0,1,3.413,1.037,7.864,7.864,0,0,0,4.129,1.227,6.392,6.392,0,0,0,5.156-2.6.755.755,0,0,0-1.254-.841Zm7.418-12.429V29.433a6.8,6.8,0,0,1-6.792,6.792H8.792A6.8,6.8,0,0,1,2,29.433V6.792A6.8,6.8,0,0,1,8.792,0h8.324a9.754,9.754,0,0,1,6.938,2.874l5.258,5.26a9.74,9.74,0,0,1,2.874,6.937Zm-9.2-11.131a8.26,8.26,0,0,0-2.874-1.858V9.81a2.267,2.267,0,0,0,2.264,2.264H30.1A8.272,8.272,0,0,0,28.245,9.2l-5.258-5.26Zm7.691,11.131a8.37,8.37,0,0,0-.145-1.487H22.376A3.778,3.778,0,0,1,18.6,9.812V1.654a8.4,8.4,0,0,0-1.487-.145H8.792A5.288,5.288,0,0,0,3.509,6.792v22.64a5.288,5.288,0,0,0,5.283,5.283h16.6a5.288,5.288,0,0,0,5.283-5.283V15.07Z" transform="translate(13 12)" fill="#fff"/>
  </g>
</svg>
