<svg xmlns="http://www.w3.org/2000/svg" xmlns:xlink="http://www.w3.org/1999/xlink" width="67" height="67" viewBox="0 0 67 67">
  <defs>
    <filter id="ftp" x="0" y="0" width="67" height="67" filterUnits="userSpaceOnUse">
      <feOffset dy="3" input="SourceAlpha"/>
      <feGaussianBlur stdDeviation="5" result="blur"/>
      <feFlood flood-color="#fff"/>
      <feComposite operator="in" in2="blur"/>
      <feComposite in="SourceGraphic"/>
    </filter>
  </defs>
  <g transform="matrix(1, 0, 0, 1, 0, 0)" filter="url(#ftp)">
    <path id="ftp-2" data-name="ftp" d="M36.229,32.375H22.276a3.862,3.862,0,0,0-3-3V23.125h7.708a5.4,5.4,0,0,0,5.4-5.4V8.479a5.4,5.4,0,0,0-5.4-5.4H19.457a2.29,2.29,0,0,1-1.309-.407h0l-2.906-2A3.833,3.833,0,0,0,13.058,0H10.021a5.4,5.4,0,0,0-5.4,5.4V17.729a5.4,5.4,0,0,0,5.4,5.4h7.708V29.37a3.862,3.862,0,0,0-3,3H.771a.771.771,0,1,0,0,1.542H14.724a3.853,3.853,0,0,0,7.551,0H36.229a.771.771,0,1,0,0-1.542ZM10.021,1.542h3.037a2.3,2.3,0,0,1,1.31.407l2.906,2a3.832,3.832,0,0,0,2.183.678h7.522a3.86,3.86,0,0,1,3.854,3.854V9.25H6.167V5.4A3.86,3.86,0,0,1,10.021,1.542ZM6.167,17.729V10.792H30.833v6.937a3.86,3.86,0,0,1-3.854,3.854H10.021A3.86,3.86,0,0,1,6.167,17.729ZM18.5,35.458a2.313,2.313,0,1,1,2.313-2.312A2.315,2.315,0,0,1,18.5,35.458Z" transform="translate(15 12)" fill="#fff"/>
  </g>
</svg>
