<svg xmlns="http://www.w3.org/2000/svg" width="150.641" height="209.632" viewBox="0 0 150.641 209.632">
  <g id="Layer_1" data-name="Layer 1" transform="translate(0.01 0.012)">
    <g id="Group_2428" data-name="Group 2428" transform="translate(-0.01 -0.012)">
      <path id="Path_17455" data-name="Path 17455" d="M60.186,235.526,38.566,222.814l-.026-9.654,21.619,12.712.026,9.654Z" transform="translate(-4.675 -25.894)" fill="#0f2d69"/>
      <path id="Path_17456" data-name="Path 17456" d="M60.159,220.526,38.54,207.814l66.931-38.644,21.619,12.712L60.159,220.526Z" transform="translate(-4.675 -20.548)" fill="#999"/>
      <path id="Path_17457" data-name="Path 17457" d="M130.081,183.64l.026,9.654L63.176,231.938l-.026-9.654,66.931-38.644Z" transform="translate(-7.666 -22.307)" fill="#ccc"/>
      <path id="Path_17458" data-name="Path 17458" d="M99.451,157.028c-1.01-.589-2.407-.5-3.953.4l-36.87,21.285a3.376,3.376,0,0,0-1.529,2.662l.053,18.949a3.865,3.865,0,0,0,1.625,3.558l7.7,4.48a3.894,3.894,0,0,1-1.625-3.558L64.8,185.825a3.337,3.337,0,0,1,1.5-2.609l36.9-21.3a3.9,3.9,0,0,1,3.953-.387l-7.713-4.48h0Z" transform="translate(-6.93 -19.027)" fill="#0f2d69"/>
      <path id="Path_17459" data-name="Path 17459" d="M109.829,158.97l.061,20.714c.009,3.514-.325,6.632-3.4,8.407L71.5,208.252c-3.075,1.775-5.57.334-5.578-3.18L65.87,186.1a3.337,3.337,0,0,1,1.5-2.609l42.457-24.509h0Z" transform="translate(-7.996 -19.309)" fill="#b3b3b3"/>
      <path id="Path_17460" data-name="Path 17460" d="M144.815,3.609l.105-.018a4.089,4.089,0,0,1,.993.053l.22.044a3.553,3.553,0,0,1,.87.325L140.836.429a2.96,2.96,0,0,0-.87-.325l-.22-.053A4.089,4.089,0,0,0,138.754,0l-.105.018a4.652,4.652,0,0,0-.659.105l-.343.114-.316.105a6.892,6.892,0,0,0-1.195.553L6.57,75.714a9.892,9.892,0,0,0-1.4.993l-.439.4c-.29.264-.58.536-.861.835l-.114.114-.36.457c-.228.272-.457.553-.668.852l-.158.193c-.193.29-.378.589-.553.887l-.132.211c-.264.466-.5.94-.72,1.423l-.167.4c-.149.36-.281.729-.4,1.1l-.141.474-.105.351c-.061.237-.1.474-.141.712l-.1.483A9.578,9.578,0,0,0-.01,87.09L.28,191.409c0,2.082.738,3.54,1.924,4.234l6.167,3.584c-1.186-.685-1.915-2.152-1.924-4.234l-.3-104.319a9.578,9.578,0,0,1,.123-1.485l.088-.483c.07-.351.149-.7.246-1.063l.141-.474c.114-.369.255-.729.4-1.1l.167-.4c.22-.483.457-.966.72-1.423l.132-.211c.22-.369.457-.729.7-1.081.211-.29.439-.571.668-.852.158-.193.307-.4.474-.58.272-.3.571-.571.861-.835l.439-.4a10.424,10.424,0,0,1,1.4-.993l129.61-74.8a7.548,7.548,0,0,1,1.195-.553l.316-.105a5.482,5.482,0,0,1,.993-.22h0Z" transform="translate(0.01 0.012)" fill="#0f2d69"/>
      <path id="Path_17461" data-name="Path 17461" d="M143.173,4.975c3.646-2.1,6.606-.422,6.615,3.769l.3,104.319a14.454,14.454,0,0,1-6.571,11.376L13.924,199.258c-3.646,2.1-6.606.422-6.615-3.769L7.01,91.171a14.484,14.484,0,0,1,6.571-11.385L143.173,4.975Z" transform="translate(-0.843 -0.484)" fill="#cce1ea"/>
      <path id="Path_17462" data-name="Path 17462" d="M144.763,5.765c3.646-2.1,6.606-.422,6.615,3.769l.3,104.319a14.454,14.454,0,0,1-6.571,11.376L15.514,200.048c-3.646,2.1-6.606.422-6.615-3.769L8.6,91.97a14.484,14.484,0,0,1,6.571-11.385L144.763,5.765Z" transform="translate(-1.036 -0.58)" fill="#ccc"/>
      <path id="Path_17463" data-name="Path 17463" d="M141.64,13.45,19.4,84.027A14.038,14.038,0,0,0,13.04,95.06l.272,86.723,135-78.246-.272-86.415c-.009-4.059-2.881-5.7-6.4-3.663h0Z" transform="translate(-1.576 -1.519)" fill="#fff"/>
      <path id="Path_17464" data-name="Path 17464" d="M88.978,166.578a9.468,9.468,0,0,0-4.278,7.406c0,2.732,1.924,3.83,4.3,2.451a9.381,9.381,0,0,0,4.278-7.406c0-2.706-1.924-3.83-4.3-2.451h0Z" transform="translate(-10.284 -20.162)" fill="#5c68a0"/>
      <path id="Path_17465" data-name="Path 17465" d="M89.868,167.029a9.447,9.447,0,0,0-4.278,7.414c0,2.732,1.924,3.821,4.3,2.451a9.4,9.4,0,0,0,4.278-7.406c0-2.706-1.924-3.83-4.3-2.451h0Z" transform="translate(-10.393 -20.217)" fill="#f2f2f3"/>
      <path id="Path_17466" data-name="Path 17466" d="M23.1,171.582l-1.871-.641,12.808-37.3,13.678,7.274L61.64,110.37h9.769L83.435,95.4l22.638,10.19,3.742-23.886,9.927,3.505,4.682-18.483,9.848-10.77c1.836-.589,3.681-1.168,5.517-1.757l.685,1.977c-1.792.58-3.584,1.168-5.376,1.748q-4.559,5.389-9.127,10.779l-4.832,19.089-9.725-3.435-3.777,24.1L84.023,97.825,72.357,112.337H62.9L48.638,143.646l-13.485-7.177L23.1,171.573Z" transform="translate(-2.571 -6.576)" fill="#4499d8"/>
      <path id="Path_17467" data-name="Path 17467" d="M154.11,49.736,158.4,60.857,160.47,49.2Z" transform="translate(-18.72 -5.969)" fill="#4499d8"/>
    </g>
  </g>
</svg>
