<svg xmlns="http://www.w3.org/2000/svg" width="79.949" height="80.07" viewBox="0 0 79.949 80.07">
  <path id="head-side-medical_1_" data-name="head-side-medical (1)" d="M48.706,34.145a1.611,1.611,0,0,1-1.626,1.626H35.694V47.157a1.626,1.626,0,1,1-3.253,0V35.772H21.056a1.626,1.626,0,0,1,0-3.253H32.441V21.134a1.626,1.626,0,1,1,3.253,0V32.519H47.079A1.611,1.611,0,0,1,48.706,34.145Zm29.276,9.921a4.729,4.729,0,0,1-5.042,4.717H71.15l-1.691,7.9A14.711,14.711,0,0,1,55.146,68.3h-3.22v1.626a8.135,8.135,0,0,1-8.132,8.132H17.8a7.788,7.788,0,0,1-8.132-8.132V65.763a15.136,15.136,0,0,0-3.123-8.88A35.509,35.509,0,0,1,.14,33.267C1.344,17.2,14.551,2.755,30.229.413A35.713,35.713,0,0,1,64.222,14.3c4.521,5.595,13.76,25.6,13.76,29.764Zm-3.253,0c0-2.83-8.49-22.087-13.044-27.747h-.033A32.308,32.308,0,0,0,35.629,3.276a36.015,36.015,0,0,0-4.912.358C16.47,5.748,4.467,18.889,3.393,33.495a32,32,0,0,0,5.79,21.469,18.488,18.488,0,0,1,3.741,10.8v4.164A4.582,4.582,0,0,0,17.8,74.806H43.826a4.873,4.873,0,0,0,4.879-4.879V66.674a1.611,1.611,0,0,1,1.626-1.626h4.847A11.445,11.445,0,0,0,66.3,56.037l1.952-9.206a1.636,1.636,0,0,1,1.594-1.3h3.123c1.594,0,1.789-1.041,1.789-1.464Z" transform="translate(0.968 1.011)" fill="#009bde" stroke="#009bde" stroke-width="2"/>
</svg>
