<svg xmlns="http://www.w3.org/2000/svg" width="112.554" height="112.541" viewBox="0 0 112.554 112.541">
  <path id="lightbulb-on" d="M79.3,15.136,87.063,1.194A2.323,2.323,0,1,1,91.12,3.457L83.354,17.4a2.324,2.324,0,0,1-2.031,1.194,2.352,2.352,0,0,1-1.129-.293,2.319,2.319,0,0,1-.9-3.16ZM111.34,24.56a2.334,2.334,0,0,0-3.063-1.194L94.336,29.5a2.324,2.324,0,0,0,.934,4.452,2.372,2.372,0,0,0,.934-.2l13.942-6.139A2.326,2.326,0,0,0,111.34,24.56ZM28.177,17.394a2.324,2.324,0,0,0,2.031,1.194,2.352,2.352,0,0,0,1.129-.293,2.319,2.319,0,0,0,.9-3.16L24.474,1.194a2.323,2.323,0,1,0-4.057,2.263L28.182,17.4ZM17.2,29.5,3.259,23.366a2.324,2.324,0,0,0-1.868,4.257l13.942,6.139a2.372,2.372,0,0,0,.934.2A2.324,2.324,0,0,0,17.2,29.5ZM92.946,55.762a37.239,37.239,0,0,1-15.652,30.3A6.955,6.955,0,0,0,74.357,91.7v5.888a13.959,13.959,0,0,1-13.942,13.942H51.121c-7.821,0-13.942-6.4-13.942-14.574V91.7A6.989,6.989,0,0,0,34.2,86.034,37.174,37.174,0,1,1,92.946,55.762ZM69.71,97.587V92.94H41.826v4.015c0,5.66,3.992,9.927,9.295,9.927h9.295A9.3,9.3,0,0,0,69.71,97.587ZM88.3,55.762A32.587,32.587,0,0,0,77.462,31.517a32.172,32.172,0,0,0-21.647-8.286,34.462,34.462,0,0,0-3.769.209A32.517,32.517,0,0,0,36.9,82.247a11.711,11.711,0,0,1,4.336,6.046H53.445V64.819A11.633,11.633,0,0,1,44.15,53.438a2.324,2.324,0,0,1,4.647,0,6.971,6.971,0,1,0,13.942,0,2.324,2.324,0,0,1,4.647,0,11.629,11.629,0,0,1-9.295,11.381V88.293H70.3a11.61,11.61,0,0,1,4.3-6.023A32.57,32.57,0,0,0,88.3,55.762Z" transform="translate(0.509 0.507)" fill="#009bde" stroke="#009bde" stroke-width="1"/>
</svg>
