<svg xmlns="http://www.w3.org/2000/svg" xmlns:xlink="http://www.w3.org/1999/xlink" width="422" height="620.407" viewBox="0 0 422 620.407">
  <defs>
    <linearGradient id="linear-gradient" x1="-30257.762" y1="0.524" x2="-30257.762" y2="0.476" gradientUnits="objectBoundingBox">
      <stop offset="0" stop-color="#2e6db1"/>
      <stop offset="1" stop-color="#12497f"/>
    </linearGradient>
    <linearGradient id="linear-gradient-2" x1="-4055.205" y1="1.105" x2="-4054.541" y2="-0.101" xlink:href="#linear-gradient"/>
    <linearGradient id="linear-gradient-3" x1="1.033" y1="0.5" x2="2.034" y2="0.5" gradientUnits="objectBoundingBox">
      <stop offset="0" stop-color="#00c7d5"/>
      <stop offset="1" stop-color="#00c3d8"/>
    </linearGradient>
    <linearGradient id="linear-gradient-4" x1="10.27" y1="-0.028" x2="9.553" y2="0.545" xlink:href="#linear-gradient"/>
    <linearGradient id="linear-gradient-5" x1="1.326" y1="0.062" x2="1.489" y2="0.661" gradientUnits="objectBoundingBox">
      <stop offset="0" stop-color="#126ab8"/>
      <stop offset="1" stop-color="#0057ac"/>
    </linearGradient>
  </defs>
  <g id="Layer_1" data-name="Layer 1" transform="translate(0 -0.007)">
    <g id="Group_2446" data-name="Group 2446" transform="translate(0 0.007)">
      <path id="Path_17469" data-name="Path 17469" d="M382.87,268.162l5.019-116.292,27.082,119" transform="translate(-176.889 -70.169)" fill="none" stroke="#ffc627" stroke-width="3"/>
      <g id="Group_2443" data-name="Group 2443" transform="translate(0 197.918)">
        <path id="Path_17470" data-name="Path 17470" d="M211.716,369c-.258,0-.511-.011-.764-.011C94.39,368.99,0,463.391,0,579.845S94.39,790.7,210.952,790.7c.253,0,.511-.005.764-.011C327.922,790.28,422,696.045,422,579.845S327.922,369.41,211.716,369Z" transform="translate(0 -368.398)" fill="#12a0d5"/>
        <path id="Path_17471" data-name="Path 17471" d="M408.179,502.867s-8.484,1.275-11.013.183c-1.883-.812-4.686-4.191-5.525-6.058-1.006-2.233,1.114-8.608-1.06-9.743-1.426-.742-4.664,1.813-5.649,3.088-1.888,2.426-3.04,11.911-3.04,11.911s-7.01-5.939-8.161-8.689c-.8-1.894.56-6.359-.334-8.21-1.13-2.34-5.972-5.019-7.887-6.789-.753-.694-1.964-2.5-2.91-2.889-2.114-.872-7.828-1.872-9.151,0-1.248,1.765,1.5,6.5,2.9,8.145,2.034,2.4,8.522,4.2,11.007,6.133.549.425,2.034,1.34,1.91,2.028-.118.656-2.034.624-2.378,1.189-.839,1.377.974,5.106.091,6.456-.8,1.211-3.906,2.109-5.353,2.238a9.587,9.587,0,0,1-4.584-1c-1.033-.689-3.454-2.97-2.851-4.056.9-1.63,5.751,1.189,7.435.4.764-.36,2.147-1.878,2.007-2.706-.839-4.9-13.611-7.075-16.495-11.126-.71-1-.081-4.39-1.254-4.74-2.163-.64-4.519,5.466-6.7,6.058-1.679.457-5.176-2-6.8-1.4-3.976,1.479-10.34,13.439-10.34,13.439s-.9,4.412-2.028,5.262c-1.323,1-4.95.522-6.612.6-2.442.118-7.392.586-9.781.065-1.576-.344-4.885-1.442-5.848-2.733-1.754-2.356-2.039-8.7-1.722-11.621.161-1.474,2.1-5.541,2.1-5.541s7.408-2.157,9.953-2.179c2.771-.022,8.543,3.7,10.862,2.179,1.286-.839,2.136-4.707,1.318-6.009-.629-1-3.954-.1-4.611-1.087-1.313-1.974-.108-7.688,1.576-9.356,1.969-1.942,8.576-.253,10.921-1.711,2.808-1.743,4.842-9.033,7.639-10.792,1.695-1.065,5.9-1.307,7.892-1.323,1.8-.016,5.326.92,7.123,1.054.651.048,2.19.495,2.615,0,1.678-1.931.785-8.855-1.436-10.136-2.023-1.167-6.515,4.411-8.662,3.5-1.878-.8-1.431-6.316-3.04-7.575-1-.78-5.025-.7-5.025-.7s-1.307-3.927-.941-5.192c.425-1.458,2.857-3.6,4.1-4.465,2.157-1.479,7.769-2.1,9.743-3.82.968-.845,2.512-4.481,2.512-4.481A210.979,210.979,0,0,0,211.71,367.9c-.156,0-.317-.005-.473-.005A210.113,210.113,0,0,0,87.128,408.342s8.07-.742,10.652-.086c1.313.334,3.475,2.152,4.745,2.625,2.141.8,7.338.3,8.941,1.931.629.64.016,2.932.7,3.513,2.711,2.308,12.2,3.454,14.224.527.7-1.017-.909-3.863-1.931-4.562-2.609-1.781-11.513,2.6-12.637-.355-.366-.958,2.717-1.813,2.975-2.8a4.342,4.342,0,0,0-1.038-3.341c-2.3-1.695-10.528,2.711-11.427,0-1.227-3.691,8.78-8.075,12.465-9.3,2.835-.941,9.28-1.356,11.938,0,2.13,1.087,3.518,6.585,5.611,7.731,2.05,1.119,7.134,1.34,9.318.527,1.829-.683,3.674-5.149,5.606-5.45,1.167-.183,4.04.941,4.223,2.109.42,2.668-5.235,6.51-7.731,7.553-2.351.979-10.711.177-10.179.177s-.473,6.106.888,7.37c2.378,2.206,10.3,1.49,12.966-.36.775-.538.651-2.954,1.42-3.5,1.818-1.307,7.252.941,8.941-.527,1.011-.882,1.818-4.159,1.06-5.262s-4.6.269-5.267-.888c-.629-1.092.839-3.868,1.759-4.734.769-.721,2.991-1.092,4.035-1.221,3.486-.43,12.858-2.615,14.047.694.882,2.464-6.967,4.53-7.752,7.026-.42,1.329.231,4.487,1.254,5.434,1.5,1.388,6.563,2.6,8.075,1.232,1.824-1.652-1.748-7.688-.533-9.829,1.076-1.894,5.638-3.4,7.72-4.04,3.3-1.017,10.3-2.1,13.7-1.576,4.266.651,11.847,5.245,15.8,6.994,1.006.447,3.427.861,4.024,1.786,1.028,1.582-1.162,6.063,0,7.548,1.006,1.286,5.67.086,6.332,1.576.689,1.544-1.716,5.1-3.163,5.966-1.544.925-5.4,0-7.193,0-.441,0-1.393-.247-1.759,0-1.512,1.038-1.022,5.988-2.647,6.843-4.654,2.453-19.793.387-20.465-4.831-.586-4.514,15.591-4.035,16.081-8.565.215-2-4.207-4.637-6.133-5.213-3.352-1-10.749.188-13.875,1.754-.387.194-.78,1.189-1.21,1.254-.011,0-.032-.027-.043-.022-.091.022-.161.231-.226.3-.931,1.1-2.69,3.529-3.992,4.148-1.49.71-5.574-.748-6.59.554-.516.656.011,2.636.527,3.293.387.49,1.974.42,2.3.952a1.264,1.264,0,0,1-.091,1.087c-.931.984-4.412-.2-5.364.764-.549.56.183,2.582-.393,3.115-.941.877-4.143,1.081-5.138.269-1.21-.99.4-5.353-.92-6.187-2.039-1.286-7.015,1.835-9.221,2.8-5,2.184-16.764,5.972-18.824,11.023-.759,1.861,2.114,7.758,2.114,7.758l5.262,3.432s8.785-.549,10.528,1.453c1.969,2.254-2.276,10.028,0,11.97.936.8,3.874-.048,4.858-.785,2.077-1.549,2.529-7.65,4.487-9.35,2.217-1.926,9.458-1.178,11.19-3.551,2.12-2.894-1.6-11.142,0-14.354.872-1.743,4.315-4.3,6.225-4.7,3.787-.8,12.831.387,15.058,3.551,1.377,1.948-2.652,7.7-1.06,9.485.672.753,3.061.231,4.046,0,3-.7,11.056-5.439,11.056-5.439s-1.054,9.77.533,12.454c.549.931,2.765,1.684,3.685,2.249,1.092.667,3.766,1.533,4.368,2.663.866,1.63.769,5.907-.339,7.387-.64.85-3.405.506-4.024,1.372-.748,1.044-.694,4.056,0,5.138.915,1.415,5.251,1.361,6.133,2.8.673,1.081.7,4.164-.178,5.084a2.8,2.8,0,0,1-2.7.226c-.065-.054.005-.113-.016-.14-.565-.629-2.426-.748-3.239-1-2.125-.656-7.069-.92-8.506-2.62-.613-.726.221-3.136-.49-3.761h-.016c-.307-1,2.943-1.436,3.427-2.362.4-.759.527-2.754,0-3.427-.586-.753-2.862-1.4-3.691-.925-.716.414-.3,2.62-.915,3.169-1.227,1.081-4.837,1.135-6.467,1-.167-.016-.506-.317-.646-.215-.065.043.054.258,0,.323a2.581,2.581,0,0,1-2.243.344c-.915-.473-1.081-2.98-1.829-3.691a5.742,5.742,0,0,0-2.114-.925,11.47,11.47,0,0,0-4.611,0,4.8,4.8,0,0,0-2.1,1.716c-.409.861-.56,3.04,0,3.814.608.845,2.932,1.076,3.943,1.313.958.226,3.761-.425,3.89.549.032.237-.678.242-.872.382-1.076.775-2.227,3.976-3.551,3.938-.629-.022-1.044-1.625-1.571-1.969a6.016,6.016,0,0,0-3.427-.9c-3.115.791-9.458,5.6-9.356,8.8.011.393,1.254.608,1.221,1-.36,3.933-10.685,5.24-13.816,7.645-3.718,2.857-10.932,9.307-12.992,13.514-.667,1.366-.877,6.02-.877,6.02s-10.012,6.09-13.03,8.554c-1.77,1.447-5.638,4.352-6.451,6.494-1.157,3.04,3.405,11.163.71,12.987-2.044,1.388-8.958-4.169-8.958-4.169s1.41-6.246.07-7.6c-4.385-4.428-18.857-1.436-24.92.011-3.513.839-12.9,6.531-12.9,6.531s-4.525,7.6-5.617,10.329c-.791,1.969-2.389,6.079-2.217,8.194.178,2.174,1.872,6.655,3.631,7.941,2.066,1.512,7.672,1.829,10.163,1.237,4.724-1.124,11.61-12.519,16.156-10.8,1.3.49,1.571,3.981,1.415,5.353-.3,2.62-6.1,6.945-4.933,9.313,1.377,2.8,10.216-.221,12.3,2.1,3.185,3.535,1.221,18.991,1.221,18.991s12.836,4.3,16.861,2.862c3.852-1.383,6.827-11.056,10.7-12.379,3.136-1.071,10.211.839,12.992,2.642,1.641,1.06,2.8,5.509,4.568,6.348,2.819,1.34,10.211,1.431,12.454-.737.667-.64-.457-3.233.35-3.685,1.662-.931,5.423,2.071,6.843,3.336,2.679,2.389,4.594,10.356,7.731,12.1,2.911,1.619,10.459-1.506,13.331.183,2.136,1.259,4.207,6.23,4.923,8.608.764,2.523-.866,8.4.7,10.523,1.506,2.039,7.118,2.711,9.485,3.615a42.185,42.185,0,0,0,5.267,2c4.568.866,14.558-2.114,18.6.183,2.276,1.291,3.395,7.322,5.45,8.936,1.7,1.34,7.161.769,8.242,2.641.947,1.636-.785,5.676-1.592,7.381-1.555,3.309-7.666,8.1-9.038,11.492-2.4,5.923.441,19.82-2.636,25.415-1.248,2.276-5.687,5.633-8.151,6.451-2.878.952-9.469-1.84-12.116-.36-1.759.984-3.508,5.046-4.024,6.994v.065c.377,3.346,3.723,9.851,2.991,13.138-.264,1.184-2.243,2.868-2.991,3.82-2.55,3.255-7.919,9.576-10.19,13.03-1.205,1.84-2.615,6.208-4.207,7.726-2.523,2.4-12.557,6.036-12.557,6.036s-6.822-.264-8.258,1.253a3.957,3.957,0,0,0-.344,3.5c.85,1.248,5,.382,5.794,1.662.506.818-.247,2.927-.7,3.771-.855,1.587-5.073,3.2-5.192,5-.086,1.264,2.023,3.4,3.158,3.965,1.4.7,5.2-.984,6.241.172.812.9-.1,3.642-.35,4.826-.253,1.232-1.367,3.518-1.662,4.74-.231.947-.882,2.948-.538,3.857,1.081,2.819,8.382,4.885,9.237,7.779a5.1,5.1,0,0,1-1.232,4.04c-2.539,1.845-9.63.893-12.562-.237-3.874-1.5-9.883-7.7-12.514-10.921-3.12-3.814-8.689-12.315-9.748-17.124-.9-4.051,1.361-16.532,1.361-16.532s-6.66-6.849-7.37-9.834c-.979-4.121,5.235-13.078,2.986-16.667-.6-.963-3.7-.323-4.39-1.232-5.461-7.2,0-36.158,0-36.158s-12.288-9.313-12.987-9.313-5.364-.344-6.494-1.576c-1.178-1.28-.522-5.261-1.237-6.843-2.647-5.826-15.962-20.013-15.962-20.013s1.34-5.369,1.582-7.2c.382-2.916-.9-9.183.522-11.766,1.625-2.954,9.673-4.648,11.05-7.72,1.356-3.029.818-10.878-1.576-13.17-2.927-2.8-12.524.592-16.145-1.216-4.288-2.141-12.637-14.4-12.637-14.4s-6.693-1.937-8.952-2.448c-1.431-.328-4.917.129-5.783-1.06-.78-1.071,1.5-4.207.689-5.262-1.124-1.485-5.966-2.27-7.37-1.049-.565.49.586,2.523,0,2.98-3.739,2.927-14.558-1.813-18.432-4.562-2.765-1.964-7.29-7.962-7.419-11.352-.059-1.566,3.1-3.933,3.024-5.5-.253-5.159-9.759-12.239-11.68-17.033-1.173-2.932.393-10.416-2.007-12.46-.9-.769-3.954-.893-4.734,0-2.012,2.292.527,9.243,1.576,12.1,1.28,3.481,7.338,8.823,8.07,12.46.247,1.227.14,4.2-.877,4.923-1.41,1.006-5.412-.081-6.843-1.054-3.443-2.34-7.327-10.346-8.42-14.359-1.1-4.03,2.222-13.175,0-16.71-1.3-2.06-8.775-4.218-8.775-4.218V496.459A210.787,210.787,0,0,0,0,579.138C0,695.618,94.767,790.38,211.242,790.38c.156,0,.317-.005.473-.005,65.845-.075,124.69-30.59,163.356-78.079H368.1s1.1-10.711,0-14.042c-1.06-3.212-8.054-10.857-8.054-10.857s1.619-12.987,0-16.888c-.834-2.007-5.251-4.159-6.16-6.133a15.268,15.268,0,0,1-.533-7.026c.85-4.126,7.817-14.924,7.817-14.924L346.348,616.27s4.573-14.289,1.759-17.743c-2.12-2.6-10.319.054-13.342-1.388-1.566-.748-3.3-4.25-4.912-4.917a16.248,16.248,0,0,0-8.958,0c-1.442.565-3.11,3.642-4.557,4.212-3.68,1.442-12.551-2.249-15.8,0-.312.215-.221,1.189-.533,1.4-1.808,1.248-8.78,0-8.78,0l-20.18-22.988s-2.421-14.251.161-17.91c.511-.726,2.765-.543,3.336-1.227,1.119-1.334,2.351-5.514,1.237-6.849-.759-.909-3.793.721-4.734,0-1.479-1.13-2.561-5.439-1.937-7.193,2.41-6.784,20.078-10.442,23.354-16.85,1.361-2.658-1.512-9.366,0-11.938,1.657-2.814,8.226-5.687,11.422-6.348,1.135-.231,3.459.4,4.621.463,2.351.118,7.128.576,9.409,0,2.023-.511,5.353-3.362,7.354-3.949,5.7-1.673,19.341-5.886,23.7-1.845,2.227,2.055-1.856,9.727,0,12.116,2.964,3.8,14.327,2.711,18.7,4.74,1.028.479,2.609,2.286,3.685,2.631.818.264,2.819.608,3.422,0,1.162-1.162-1.108-5.369,0-6.59,1.818-2.007,8.177-1.775,10.792-1.049,3.083.855,7.241,6.633,10.281,7.639,4,1.323,12.917,1.528,16.844,0a5.685,5.685,0,0,0,1.184-1.081Q411.38,511.079,408.179,502.867ZM314.59,448.217a7.171,7.171,0,0,1,1.937-2.975c1.463-1,5.455-2.378,6.935-1.4,1.8,1.184.952,6.434,1.748,8.43a36.8,36.8,0,0,0,3.7,5.966,15.354,15.354,0,0,0,2.448,2.814c.985.689,4.175.581,4.476,1.743.4,1.587-2.76,4.25-4.207,5.014-1.813.958-6.117.689-8.161.785-1.533.075-5.111,1.135-6.144,0-1.232-1.35-.527-5.918.694-7.284.872-.968,4.347,0,5.106-1.06.5-.7.032-2.7-.43-3.422-.753-1.184-3.578-2.217-4.756-2.986-.845-.554-2.867-1.383-3.336-2.276a6.047,6.047,0,0,1,0-3.346Zm-17.571,7.7c.549-1.915,2.6-5.6,4.223-6.757a11.4,11.4,0,0,1,5.687-1.318c1.1.1,3.486.812,4.056,1.759.586.979.2,3.567-.371,4.562-1.318,2.308-6.149,5.337-8.683,6.144-1.173.371-4.046.866-4.917,0-.775-.775-.3-3.33,0-4.385ZM182.255,481.9c-.8.753-3.61,1.146-4.4.371-.543-.538-.048-2.34.231-3.056.291-.732,1.189-2.362,1.974-2.453.834-.1,2.324,1.3,2.636,2.071A3.827,3.827,0,0,1,182.255,481.9Zm15.43-5.4c-.619.43-2.442-.242-3.007.258s-.183,2.3-.608,2.905a5.883,5.883,0,0,1-2.313,1.436c-.882.29-2.975.888-3.7.312-.689-.549.075-1.28-.215-1.533-.269-.237-1.184.253-1.436,0a3.136,3.136,0,0,1,0-3.12c1.065-1.065,4.8.855,6.047,0,.716-.49.543-2.728,1.253-3.223.495-.344,1.8-.1,2.4-.048.7.065,2.442-.059,2.755.57.3.608-.619,2.061-1.173,2.442Z" transform="translate(0 -367.89)" fill="#003577"/>
      </g>
      <path id="Path_17472" data-name="Path 17472" d="M402.56,151.87,526.712,343.7Z" transform="translate(-185.986 -70.169)" fill="none" stroke="#ffc627" stroke-width="3"/>
      <circle id="Ellipse_147" data-name="Ellipse 147" cx="4.863" cy="4.863" r="4.863" transform="translate(335.862 268.669)" fill="#ffc627" stroke="#fff" stroke-width="3"/>
      <line id="Line_34" data-name="Line 34" x2="96.688" y2="239.605" transform="translate(214.588 80.103)" fill="none" stroke="#ffc627" stroke-width="3"/>
      <line id="Line_35" data-name="Line 35" y1="301.646" x2="134.874" transform="translate(76.126 81.701)" fill="none" stroke="#ffc627" stroke-width="3"/>
      <line id="Line_36" data-name="Line 36" x1="101.519" y2="318.238" transform="translate(109.481 81.701)" fill="none" stroke="#ffc627" stroke-width="3"/>
      <circle id="Ellipse_148" data-name="Ellipse 148" cx="4.863" cy="4.863" r="4.863" transform="translate(34.835 373.62)" fill="#ffc627" stroke="#fff" stroke-width="3"/>
      <circle id="Ellipse_149" data-name="Ellipse 149" cx="4.863" cy="4.863" r="4.863" transform="translate(71.262 378.484)" fill="#ffc627" stroke="#fff" stroke-width="3"/>
      <circle id="Ellipse_150" data-name="Ellipse 150" cx="4.863" cy="4.863" r="4.863" transform="translate(104.618 395.075)" fill="#ffc627" stroke="#fff" stroke-width="3"/>
      <circle id="Ellipse_151" data-name="Ellipse 151" cx="4.863" cy="4.863" r="4.863" transform="translate(353.374 301.917)" fill="#ffc627" stroke="#fff" stroke-width="3"/>
      <line id="Line_37" data-name="Line 37" x2="108.211" y2="223.083" transform="translate(211 76.052)" fill="none" stroke="#ffc627" stroke-width="3"/>
      <circle id="Ellipse_152" data-name="Ellipse 152" cx="4.863" cy="4.863" r="4.863" transform="translate(314.348 294.272)" fill="#ffc627" stroke="#fff" stroke-width="3"/>
      <line id="Line_38" data-name="Line 38" x2="86.019" y2="208.633" transform="translate(211 81.701)" fill="none" stroke="#ffc627" stroke-width="3"/>
      <line id="Line_39" data-name="Line 39" x2="198.018" y2="260.974" transform="translate(211 76.052)" fill="none" stroke="#ffc627" stroke-width="3"/>
      <circle id="Ellipse_153" data-name="Ellipse 153" cx="4.863" cy="4.863" r="4.863" transform="translate(404.155 332.163)" fill="#ffc627" stroke="#fff" stroke-width="3"/>
      <circle id="Ellipse_154" data-name="Ellipse 154" cx="4.863" cy="4.863" r="4.863" transform="translate(306.413 314.845)" fill="#ffc627" stroke="#fff" stroke-width="3"/>
      <circle id="Ellipse_155" data-name="Ellipse 155" cx="4.863" cy="4.863" r="4.863" transform="translate(291.731 284.55)" fill="#ffc627" stroke="#fff" stroke-width="3"/>
      <path id="Path_17473" data-name="Path 17473" d="M73.79,448.653l171.3-296.783L392.329,376.949" transform="translate(-34.092 -70.169)" fill="none" stroke="#ffc627" stroke-width="3"/>
      <g id="Group_2445" data-name="Group 2445" transform="translate(133.782)">
        <path id="Path_17474" data-name="Path 17474" d="M459.168,29.938a10.314,10.314,0,0,0-2.765-.877c-3.292-.565-7.225.269-11.443,2.706-.656.377-1.291.785-1.931,1.216-.506-5.859-2.711-10.173-6.069-12.627a12.562,12.562,0,0,1,1.6-.1,10.917,10.917,0,0,1,4.793,1.044l15.812,8.635Z" transform="translate(-335.662 -9.364)" fill="#003577"/>
        <path id="Path_17475" data-name="Path 17475" d="M269.011,113.875l15.806,8.635c-.538.253-1.076.533-1.625.845-10.335,5.972-18.717,20.422-18.717,32.279,0,6.015,2.157,10.206,5.627,12.094l-15.93-8.7s-.032-.016-.048-.027l-.124-.075h.011c-3.3-1.964-5.342-6.085-5.342-11.933,0-11.857,8.382-26.308,18.717-32.274.549-.317,1.092-.6,1.625-.85Z" transform="translate(-248.67 -52.613)" fill="#003577"/>
        <path id="Path_17476" data-name="Path 17476" d="M373.88,1.692l15.376,8.4-.3-.151a14.346,14.346,0,0,0-9.619-.866,26.454,26.454,0,0,0-7.414,2.991c-7.758,4.481-14.687,12.541-19.271,21.557L336.85,24.993c4.584-9.011,11.513-17.076,19.265-21.557,6.833-3.949,13.025-4.368,17.533-1.867h0l.054.027c.059.032.118.07.177.1Z" transform="translate(-289.41 -0.007)" fill="#003577"/>
        <path id="Path_17477" data-name="Path 17477" d="M434.924,19.113h0l-.2-.113.21.113Z" transform="translate(-334.627 -8.782)" fill="url(#linear-gradient)"/>
        <path id="Path_17478" data-name="Path 17478" d="M328.936,54.767c-2.884-.818-6.467-.215-10.346,2.023-.78.452-1.555.963-2.313,1.506-8.441,6.165-14.951,18.222-14.951,28.261a18.723,18.723,0,0,0,.511,4.5L286.031,82.42a18.952,18.952,0,0,1-.511-4.492c0-10.937,7.726-24.269,17.259-29.772,3.884-2.238,7.467-2.841,10.346-2.017l15.806,8.629Z" transform="translate(-265.695 -21.157)" fill="#003577"/>
        <path id="Path_17479" data-name="Path 17479" d="M307.746,56.43c-.533.479-1.054.974-1.566,1.49C306.686,57.4,307.208,56.9,307.746,56.43Z" transform="translate(-275.24 -26.075)" fill="url(#linear-gradient-2)"/>
        <path id="Path_17480" data-name="Path 17480" d="M392.512,41.772c0,13.288-9.383,29.482-20.966,36.169-.42.237-76.906,44.293-77.928,44.686-8.828,3.379-15.559-1.56-15.559-12.186,0-11.863,8.382-26.313,18.711-32.279.554-.317,1.092-.6,1.625-.85a18.645,18.645,0,0,1-.511-4.492c0-10.039,6.51-22.1,14.951-28.261a26.52,26.52,0,0,1,2.308-1.512c3.884-2.238,7.462-2.841,10.346-2.023C330.068,32.013,337,23.949,344.76,19.467a26.455,26.455,0,0,1,7.414-2.991,14.342,14.342,0,0,1,9.619.866c4.342,2.136,7.231,6.865,7.822,13.692.635-.43,1.275-.839,1.926-1.216,4.218-2.437,8.151-3.276,11.443-2.706,5.735.979,9.522,6.214,9.522,14.66Z" transform="translate(-262.248 -7.414)" fill="#004c86"/>
        <path id="Path_17481" data-name="Path 17481" d="M285.565,121.19c23.074-13.321,80.268-46.348,80.559-46.525,5.913-3.718,11.465-9.732,15.747-17.1,4.5-7.8,7-16.07,7-23.306,0-.081-.011-.151-.011-.215a9.477,9.477,0,0,1,1.657,2.421c-3.206-6.784-11.529-6.262-21.068,1.264-.613-30.348-29.9-15.317-40.441,8.07-14.886-3.486-30.348,20.218-25.673,35.1-11,2.841-28.148,29.676-17.764,40.306Z" transform="translate(-264.233 -9.577)" fill="url(#linear-gradient-3)"/>
        <path id="Path_17482" data-name="Path 17482" d="M479.112,38.723l-.872-.473A8.495,8.495,0,0,1,479.112,38.723Z" transform="translate(-354.733 -17.675)" fill="#daf2f4"/>
        <path id="Path_17483" data-name="Path 17483" d="M478.72,44.06a7.666,7.666,0,0,1,.855.769h0A5.756,5.756,0,0,0,478.72,44.06Z" transform="translate(-354.955 -20.36)" fill="url(#linear-gradient-4)"/>
        <path id="Path_17484" data-name="Path 17484" d="M287.54,132.747a6.833,6.833,0,0,1-.49-.549,6.681,6.681,0,0,0,5.471,2.566,12.443,12.443,0,0,0,4.352-.9,16.961,16.961,0,0,0,1.662-.726c.366-.183,76.475-44.126,76.761-44.293a41.154,41.154,0,0,0,13.046-14.165c3.739-6.461,5.8-13.31,5.8-19.3,0-4.412-1.1-7.8-3.12-9.888,0,.07.011.134.011.21,0,7.236-2.5,15.51-7,23.306-4.282,7.37-9.835,13.391-15.747,17.1-.285.183-57.8,33.388-80.747,46.644Z" transform="translate(-266.402 -21.02)" fill="#226dba"/>
        <g id="Group_2444" data-name="Group 2444" transform="translate(15.812 8.626)">
          <path id="Path_17485" data-name="Path 17485" d="M296.771,133.774c.554-.317,1.092-.6,1.625-.85a17.319,17.319,0,0,1-.42-2.6c-.4.2-.8.409-1.205.64-10.329,5.972-18.711,20.422-18.711,32.279,0,.473.016.931.043,1.383C278.732,153.055,286.851,139.5,296.771,133.774Z" transform="translate(-278.06 -68.838)" fill="#daf2f4"/>
          <path id="Path_17486" data-name="Path 17486" d="M329.861,47.373a26.511,26.511,0,0,1,2.308-1.512c3.884-2.238,7.462-2.841,10.346-2.023,4.578-9.011,11.513-17.076,19.271-21.557a26.293,26.293,0,0,1,7.414-2.991,14.342,14.342,0,0,1,9.619.866c4.342,2.136,7.231,6.865,7.822,13.692.635-.43,1.275-.839,1.926-1.216,4.218-2.437,8.151-3.276,11.443-2.706,5.418.925,9.092,5.649,9.485,13.283.022-.484.038-.963.038-1.436,0-8.446-3.787-13.681-9.522-14.66-3.293-.57-7.225.269-11.443,2.706-.651.377-1.291.785-1.926,1.216-.592-6.827-3.481-11.556-7.822-13.692a14.342,14.342,0,0,0-9.619-.866,26.293,26.293,0,0,0-7.414,2.991c-7.758,4.481-14.687,12.546-19.271,21.557-2.884-.818-6.461-.215-10.346,2.023a25.321,25.321,0,0,0-2.308,1.512C321.42,50.724,314.91,62.781,314.91,72.82c0,.473.016.931.048,1.383C315.534,64.47,321.818,53.247,329.861,47.373Z" transform="translate(-295.085 -16.04)" fill="#daf2f4"/>
        </g>
        <path id="Path_17487" data-name="Path 17487" d="M383.008,27.143c-3.68-.791-9.243.968-13.385,3.917-1.194-14.354-12.212-17.872-22.666-12.723-9.463,4.713-16.263,12.869-21.45,22.7-11.432-2.249-21.859,11.136-25.673,21.541a29.22,29.22,0,0,0-1.91,11.475c-.339,1.436,1.237,2.851-.054,3.545-19.206,9.582-28.282,45.283-9.4,46.106,5.358-.414,5.541-1.458,6.6-1.84,9.21-5.165,59.4-34.049,73.075-41.931,23.715-11.314,32.968-49.108,14.875-52.793ZM371.145,75.261c-.274.167-67.383,38.789-77.239,44.357.624-.387-3.879,2.765-8.339,1.054-14.273-9.2,4.169-38.918,15.785-41.92-4.675-14.886,10.8-38.579,25.673-35.093,10.55-23.386,39.833-38.418,40.452-8.075C380.8,25.061,391.788,28.208,389.7,45.908c-1.458,11.1-9.689,23.935-18.55,29.358Z" transform="translate(-262.256 -7.44)" fill="url(#linear-gradient-5)"/>
        <path id="Path_17488" data-name="Path 17488" d="M368.128,79.936c-13.676,7.882-63.865,36.766-73.075,41.931-1.054.382-1.237,1.426-6.6,1.84-18.878-.823-9.8-36.524,9.4-46.106,1.291-.694-.285-2.109.054-3.545a29.236,29.236,0,0,1,1.91-11.475c3.814-10.4,14.241-23.79,25.673-21.541,5.192-9.84,11.986-18,21.45-22.7,10.453-5.149,21.471-1.63,22.666,12.723,4.148-2.948,9.705-4.707,13.385-3.917,18.093,3.685,8.839,41.479-14.875,52.793Z" transform="translate(-262.251 -7.44)" fill="#12a0d5"/>
        <path id="Path_17489" data-name="Path 17489" d="M391.664,48.024c2.093-17.7-8.9-20.842-22.224-10.324-.619-30.343-29.9-15.311-40.452,8.075-14.875-3.486-30.348,20.207-25.673,35.093-11.615,3-30.058,32.721-15.785,41.92,4.46,1.716,8.963-1.442,8.339-1.054,9.856-5.568,76.965-44.191,77.239-44.357,8.861-5.423,17.092-18.265,18.55-29.358Z" transform="translate(-264.224 -9.567)" fill="#f2f2f2"/>
      </g>
    </g>
  </g>
</svg>
