<svg xmlns="http://www.w3.org/2000/svg" xmlns:xlink="http://www.w3.org/1999/xlink" width="69.917" height="70.972" viewBox="0 0 69.917 70.972">
  <defs>
    <filter id="plan" x="0" y="0" width="69.917" height="70.972" filterUnits="userSpaceOnUse">
      <feOffset dy="3" input="SourceAlpha"/>
      <feGaussianBlur stdDeviation="5" result="blur"/>
      <feFlood flood-color="#fff"/>
      <feComposite operator="in" in2="blur"/>
      <feComposite in="SourceGraphic"/>
    </filter>
  </defs>
  <g transform="matrix(1, 0, 0, 1, 0, 0)" filter="url(#plan)">
    <path id="plan-2" data-name="plan" d="M9.806,17.072a3.414,3.414,0,1,0,3.414,3.414A3.418,3.418,0,0,0,9.806,17.072Zm0,5.122a1.707,1.707,0,1,1,1.707-1.707A1.708,1.708,0,0,1,9.806,22.193Zm9.1-4.956a2.561,2.561,0,0,0-3.778-2.851l-.381.224a7.652,7.652,0,0,0-2.383-1.342v-.463a2.561,2.561,0,1,0-5.122,0v.463A7.671,7.671,0,0,0,4.86,14.61l-.381-.224a2.561,2.561,0,1,0-2.6,4.413l.4.236a6.614,6.614,0,0,0,0,2.9l-.4.236a2.561,2.561,0,1,0,2.6,4.415l.381-.224a7.652,7.652,0,0,0,2.383,1.342v.463a2.561,2.561,0,0,0,5.122,0v-.463a7.671,7.671,0,0,0,2.383-1.342l.381.224a2.562,2.562,0,1,0,2.6-4.416l-.4-.234a6.953,6.953,0,0,0,.16-1.451,6.763,6.763,0,0,0-.162-1.453l.4-.234a2.535,2.535,0,0,0,1.181-1.564Zm-3.382,1.618a5.864,5.864,0,0,1,.256,1.63,5.928,5.928,0,0,1-.256,1.63.854.854,0,0,0,.389.97l.947.555a.855.855,0,0,1-.219,1.564.853.853,0,0,1-.647-.09l-.922-.543a.853.853,0,0,0-1.036.131A5.952,5.952,0,0,1,11.3,26.244a.856.856,0,0,0-.64.826v1.1a.854.854,0,1,1-1.707,0v-1.1a.853.853,0,0,0-.64-.826A5.976,5.976,0,0,1,5.574,24.7a.857.857,0,0,0-1.038-.131l-.922.543a.854.854,0,0,1-1.169-.3.854.854,0,0,1,.3-1.168l.949-.557a.857.857,0,0,0,.389-.97,5.864,5.864,0,0,1-.256-1.63,5.928,5.928,0,0,1,.256-1.63.85.85,0,0,0-.388-.968l-.951-.56a.853.853,0,0,1,.867-1.47l.922.543a.847.847,0,0,0,1.036-.131A5.952,5.952,0,0,1,8.31,14.728a.856.856,0,0,0,.64-.826v-1.1a.854.854,0,1,1,1.707,0v1.1a.853.853,0,0,0,.64.826,5.976,5.976,0,0,1,2.738,1.542.852.852,0,0,0,1.036.131l.922-.543a.862.862,0,0,1,.647-.09.853.853,0,0,1,.219,1.562l-.949.558a.853.853,0,0,0-.388.968ZM30.379,21.34a5.122,5.122,0,1,0,0-1.707H25.171V10.243a4.272,4.272,0,0,1,4.268-4.268h.941a5.122,5.122,0,1,0,0-1.707h-.941a5.982,5.982,0,0,0-5.975,5.975v9.389H20.9a.854.854,0,1,0,0,1.707h2.561v9.389A5.982,5.982,0,0,0,29.438,36.7h.941a5.122,5.122,0,1,0,0-1.707h-.941a4.272,4.272,0,0,1-4.268-4.268V21.34Zm5.034-4.268A3.414,3.414,0,1,1,32,20.486,3.418,3.418,0,0,1,35.414,17.072Zm0-15.365A3.414,3.414,0,1,1,32,5.122,3.418,3.418,0,0,1,35.414,1.707Zm0,30.729A3.414,3.414,0,1,1,32,35.851,3.418,3.418,0,0,1,35.414,32.436Z" transform="translate(14.38 12)" fill="#fff"/>
  </g>
</svg>
