<svg xmlns="http://www.w3.org/2000/svg" xmlns:xlink="http://www.w3.org/1999/xlink" width="69.88" height="69.882" viewBox="0 0 69.88 69.882">
  <defs>
    <filter id="scale-comparison" x="0" y="0" width="69.88" height="69.882" filterUnits="userSpaceOnUse">
      <feOffset dy="3" input="SourceAlpha"/>
      <feGaussianBlur stdDeviation="5" result="blur"/>
      <feFlood flood-color="#fff"/>
      <feComposite operator="in" in2="blur"/>
      <feComposite in="SourceGraphic"/>
    </filter>
  </defs>
  <g transform="matrix(1, 0, 0, 1, 0, 0)" filter="url(#scale-comparison)">
    <path id="scale-comparison-2" data-name="scale-comparison" d="M2.551,18.266a.826.826,0,0,0,.814-.663L3.9,14.956h3.92l.545,2.654a.811.811,0,0,0,1.59-.324L7.843,6.831A2.322,2.322,0,0,0,6.662,5.165a1.879,1.879,0,0,0-.821-.191,1.831,1.831,0,0,0-.932.258A2.314,2.314,0,0,0,3.852,6.78l-2.105,10.5a.826.826,0,0,0,.806.989ZM5.478,7.106a.681.681,0,0,1,.271-.444.171.171,0,0,1,.091-.028.229.229,0,0,1,.1.028.762.762,0,0,1,.273.5l1.261,6.135H4.232L5.478,7.106ZM32.4,13.294h1.662a4.153,4.153,0,0,0,2.323-7.6A3.322,3.322,0,0,0,34.065,0H32.4a2.5,2.5,0,0,0-2.493,2.493V10.8A2.5,2.5,0,0,0,32.4,13.294Zm-.831-10.8a.832.832,0,0,1,.831-.831h1.662a1.662,1.662,0,0,1,0,3.323H31.573Zm0,4.154h2.493a2.493,2.493,0,1,1,0,4.985H32.4a.832.832,0,0,1-.831-.831ZM38.908,15.8.688,22.445A.831.831,0,0,0,.829,24.1a.848.848,0,0,0,.145-.012L18.714,21,13.453,35.337a3.95,3.95,0,0,0,.575,3.41,2.7,2.7,0,0,0,2.149,1.135h7.529a2.7,2.7,0,0,0,2.149-1.135,3.972,3.972,0,0,0,.557-3.465L21.021,20.6l18.173-3.161a.831.831,0,0,0-.286-1.637ZM24.525,37.748a1.054,1.054,0,0,1-.819.47H16.177a1.054,1.054,0,0,1-.819-.47,2.259,2.259,0,0,1-.324-1.894l4.909-13.375,4.89,13.32A2.279,2.279,0,0,1,24.525,37.748Z" transform="translate(15 12)" fill="#fff"/>
  </g>
</svg>
