<svg xmlns="http://www.w3.org/2000/svg" width="23.546" height="23.546" viewBox="0 0 23.546 23.546">
  <path id="Path_22" data-name="Path 22" d="M6.693,4V17.466m0,0a2.693,2.693,0,0,0,0,5.387m0-5.387a2.693,2.693,0,0,1,0,5.387m0,0v2.693M14.773,4V6.693m0,0a2.693,2.693,0,0,0,0,5.387m0-5.387a2.693,2.693,0,1,1,0,5.387m0,0V25.546M22.853,4V17.466m0,0a2.693,2.693,0,0,0,0,5.387m0-5.387a2.693,2.693,0,0,1,0,5.387m0,0v2.693" transform="translate(-3 -3)" fill="none" stroke="#c9c9c9" stroke-linecap="round" stroke-width="2"/>
</svg>
