<svg xmlns="http://www.w3.org/2000/svg" width="25.747" height="25.747" viewBox="0 0 25.747 25.747">
  <path id="Path_23" data-name="Path 23" d="M14.389,7.71h2.968M14.389,24.779h2.968M6.968,17.358V14.389m17.81,2.968V14.389M5.484,9.937H8.453A1.484,1.484,0,0,0,9.937,8.453V5.484A1.484,1.484,0,0,0,8.453,4H5.484A1.484,1.484,0,0,0,4,5.484V8.453A1.484,1.484,0,0,0,5.484,9.937Zm0,17.81H8.453a1.484,1.484,0,0,0,1.484-1.484V23.294A1.484,1.484,0,0,0,8.453,21.81H5.484A1.484,1.484,0,0,0,4,23.294v2.968A1.484,1.484,0,0,0,5.484,27.747Zm17.81,0h2.968a1.484,1.484,0,0,0,1.484-1.484V23.294a1.484,1.484,0,0,0-1.484-1.484H23.294a1.484,1.484,0,0,0-1.484,1.484v2.968A1.484,1.484,0,0,0,23.294,27.747Zm0-17.81h2.968a1.484,1.484,0,0,0,1.484-1.484V5.484A1.484,1.484,0,0,0,26.263,4H23.294A1.484,1.484,0,0,0,21.81,5.484V8.453A1.484,1.484,0,0,0,23.294,9.937Z" transform="translate(-3 -3)" fill="none" stroke="#c9c9c9" stroke-linecap="round" stroke-linejoin="round" stroke-width="2"/>
</svg>
