<svg xmlns="http://www.w3.org/2000/svg" width="22.547" height="25.115" viewBox="0 0 22.547 25.115">
  <path id="Path_24" data-name="Path 24" d="M21.978,10.705V4.284A1.284,1.284,0,0,0,20.694,3H10.31a1.284,1.284,0,0,0-.908.376L4.376,8.4A1.284,1.284,0,0,0,4,9.31v15.52a1.284,1.284,0,0,0,1.284,1.284h7.705M10.421,3V8.137A1.284,1.284,0,0,1,9.137,9.421H4M18.126,26.115a14.673,14.673,0,0,1-4.671-5.124,14.3,14.3,0,0,1-1.75-6.648l6.421-2.354,6.421,2.354A14.3,14.3,0,0,1,22.8,20.99a14.672,14.672,0,0,1-4.669,5.125Z" transform="translate(-3 -2)" fill="none" stroke="#c9c9c9" stroke-linecap="round" stroke-linejoin="round" stroke-width="2"/>
</svg>
