<svg xmlns="http://www.w3.org/2000/svg" width="34.598" height="39.502" viewBox="0 0 34.598 39.502">
  <g id="Layer_1" data-name="Layer 1" transform="translate(-0.004)">
    <g id="Group_2448" data-name="Group 2448" transform="translate(0.004)">
      <path id="Path_17508" data-name="Path 17508" d="M58.194,66.592l0,.484,3.338-1.958V64.63l-3.334,1.962Z" transform="translate(-33.478 -37.181)" fill="#becacc"/>
      <path id="Path_17509" data-name="Path 17509" d="M58.2,64.771l3.338-1.958V62.32L58.2,64.282v.488Z" transform="translate(-33.484 -35.852)" fill="#becacc"/>
      <path id="Path_17510" data-name="Path 17510" d="M58.21,61.972v.488L61.544,60.5V60.01L58.21,61.972Z" transform="translate(-33.489 -34.523)" fill="#becacc"/>
      <path id="Path_17511" data-name="Path 17511" d="M61.548,58.2V57.71l-3.334,1.962,0,.488L61.548,58.2Z" transform="translate(-33.489 -33.2)" fill="#becacc"/>
      <path id="Path_17512" data-name="Path 17512" d="M16.566,63.644l-3.572,2.077L7.236,55.783l.025-7.577-.476-.276-.025,7.8L13,66.49l4.043-2.315,0-.769v-.038l-.48.276Z" transform="translate(-3.891 -27.574)" fill="#8ea3a7"/>
      <path id="Path_17513" data-name="Path 17513" d="M17.249,53.6,7.88,59.045l5.759,9.938,3.572-2.077L17.249,53.6Z" transform="translate(-4.535 -30.836)" fill="#6b7a7d"/>
      <path id="Path_17514" data-name="Path 17514" d="M17.27,35.76,7.905,41.2,7.88,48.782l9.369-5.445.021-7.577Z" transform="translate(-4.535 -20.572)" fill="#798a8c"/>
      <path id="Path_17515" data-name="Path 17515" d="M16.66,35.012l0-.552L6.82,40.181l.476.276,9.365-5.445Z" transform="translate(-3.925 -19.825)" fill="#a5bdc1"/>
      <path id="Path_17516" data-name="Path 17516" d="M72.43,34.761a2.68,2.68,0,0,1,2.633-.191l-1.945-1.13a1.8,1.8,0,0,0-.242-.115c-.042-.017-.089-.03-.132-.042-.013,0-.021-.008-.034-.013h0a8.6,8.6,0,0,1-.28,1.491Z" transform="translate(-41.67 -19.14)" fill="#24bfff"/>
      <path id="Path_17517" data-name="Path 17517" d="M37.231,30.884a2.44,2.44,0,0,0-1.125-1.771,2.68,2.68,0,0,0-2.633.191,9.489,9.489,0,0,0,.28-1.491h0a5.665,5.665,0,0,0-.055-1.559A3.7,3.7,0,0,0,33.243,25a2.768,2.768,0,0,0-.4-.514,2.53,2.53,0,0,0-.493-.382h0a2.222,2.222,0,0,0-.336-.161,2.584,2.584,0,0,0-.365-.106,2.976,2.976,0,0,0-1.236.025,5.046,5.046,0,0,0-1.406.565,8.491,8.491,0,0,0-2.17,1.869,5.118,5.118,0,0,0-.573-.68,4.478,4.478,0,0,0-.336-.3c-.17-.127-.4-.289-.582-.4-1.682-.977-4-.841-6.574.641C13.664,28.5,9.54,35.654,9.557,41.519a10.71,10.71,0,0,0,.106,1.516c.025.017.064.034.1.055a1.015,1.015,0,0,1-.1-.055l-1.045.6a8.59,8.59,0,0,0-3.9,6.753,2.737,2.737,0,0,0,1.142,2.514,2.027,2.027,0,0,0,.624.234,2.458,2.458,0,0,0,.769.03,3.718,3.718,0,0,0,.858-.217,4.8,4.8,0,0,0,.641-.31h0c-1.818,1.049-3.249.183-3.5-1.712,0-.021-.008-.042-.008-.064a4.221,4.221,0,0,1-.034-.527,7.95,7.95,0,0,1,3.606-6.247l.548-.314c.076-.042.153-.089.229-.132.132-.076.28-.161.446-.259.038-.021.068-.038.093-.055s.025-.013.038-.021a.307.307,0,0,0,.03-.017,14.738,14.738,0,0,1-.153-1.826c-.017-5.683,3.98-12.605,8.927-15.459,3.342-1.928,6.26-1.5,7.946.93a8.852,8.852,0,0,1,2.289-2.056c2.429-1.406,4.408-.276,4.417,2.519a8.993,8.993,0,0,1-.48,2.637c2.4-1.342,4-.416,4,1.86a6.646,6.646,0,0,1-.442,2.264A8.358,8.358,0,0,1,33.46,38.38,7.242,7.242,0,0,0,35.5,36.533a9.239,9.239,0,0,0,.888-1.393,9,9,0,0,0,.624-1.525,7,7,0,0,0,.289-1.563,4.893,4.893,0,0,0-.064-1.172h0Z" transform="translate(-2.717 -13.683)" fill="#b4e9ff"/>
      <path id="Path_17518" data-name="Path 17518" d="M2.007,48.865a8.583,8.583,0,0,1,3.9-6.753l1.045-.6a11.378,11.378,0,0,1-.106-1.516c-.017-5.865,4.111-13.017,9.216-15.965,2.569-1.482,4.893-1.618,6.574-.641.178.115.412.272.582.4a4.479,4.479,0,0,1,.336.3,4.8,4.8,0,0,1,.573.68A8.42,8.42,0,0,1,26.3,22.9a4.871,4.871,0,0,1,1.406-.565,2.977,2.977,0,0,1,1.236-.025,2.239,2.239,0,0,1,.365.106,2.029,2.029,0,0,1,.336.161l-1.945-1.13a2.315,2.315,0,0,0-.336-.157h0a2.523,2.523,0,0,0-.9-.174,3.837,3.837,0,0,0-1.44.28,7.251,7.251,0,0,0-2.595,1.869L20.69,22.262c-.085-.051-.178-.1-.268-.14a1.021,1.021,0,0,0-.1-.047,4.014,4.014,0,0,0-.807-.289,4.841,4.841,0,0,0-.828-.14,6.436,6.436,0,0,0-.875-.008,6.272,6.272,0,0,0-.913.123,8.268,8.268,0,0,0-.947.255,10.257,10.257,0,0,0-1.945.888,13.312,13.312,0,0,0-1.563,1.053c-.416.34-.956.807-1.355,1.172-.217.2-.488.476-.684.692s-.459.493-.641.718q-.811,1-1.193,1.542a23.072,23.072,0,0,0-1.542,2.54c-.14.268-.323.624-.442.9-.234.535-.531,1.253-.735,1.8-.259.684-.561,1.86-.573,1.92-.11.522-.242,1.219-.323,1.75-.042.293-.072.684-.093.977a11.8,11.8,0,0,0,.089,2.383l-.994.573-.106.059A7.242,7.242,0,0,0,1.812,42.83a9.594,9.594,0,0,0-.888,1.393,8.614,8.614,0,0,0-.62,1.52,7.246,7.246,0,0,0-.289,1.563,4.822,4.822,0,0,0,.059,1.147A3.365,3.365,0,0,0,.453,49.5a2.156,2.156,0,0,0,.5.578s.008.008.013.008a1.527,1.527,0,0,0,.242.166l1.945,1.13A2.75,2.75,0,0,1,2.007,48.87h0Z" transform="translate(-0.004 -12.149)" fill="#002e6d"/>
      <path id="Path_17519" data-name="Path 17519" d="M37.361,34.833A6.578,6.578,0,0,0,37.8,32.57c0-2.272-1.6-3.2-4-1.86a8.993,8.993,0,0,0,.48-2.637c-.008-2.795-1.988-3.92-4.417-2.519a8.773,8.773,0,0,0-2.289,2.056c-1.69-2.434-4.608-2.858-7.946-.93-4.948,2.854-8.94,9.777-8.927,15.459a14,14,0,0,0,.153,1.826.185.185,0,0,1-.03.017c-.013.008-.025.013-.038.021l-.093.055c-.17.1-.319.183-.446.259-.076.042-.153.089-.229.132l-.548.314A7.938,7.938,0,0,0,5.86,51.011a4.22,4.22,0,0,0,.034.527A.328.328,0,0,0,5.9,51.6c.251,1.894,1.686,2.761,3.5,1.712,3.062-1.767,20.2-11.662,24.7-14.262a8.358,8.358,0,0,0,3.253-4.217h0Z" transform="translate(-3.373 -14.354)" fill="#009add"/>
      <path id="Path_17520" data-name="Path 17520" d="M46.112,66.21,34.7,72.84l0,.471,11.412-6.63V66.21Z" transform="translate(-19.964 -38.09)" fill="#a6afb1"/>
      <path id="Path_17521" data-name="Path 17521" d="M34.71,70.624v.467l11.412-6.63V63.99L34.71,70.624Z" transform="translate(-19.97 -36.813)" fill="#a6afb1"/>
      <path id="Path_17522" data-name="Path 17522" d="M46.128,62.251l0-.471L34.72,68.414v.471l11.408-6.634Z" transform="translate(-19.976 -35.542)" fill="#a6afb1"/>
      <path id="Path_17523" data-name="Path 17523" d="M34.72,66.2v.471l11.412-6.63V59.57L34.72,66.2Z" transform="translate(-19.976 -34.27)" fill="#a6afb1"/>
      <path id="Path_17524" data-name="Path 17524" d="M46.142,57.36,34.73,63.99v.471l11.408-6.63,0-.471Z" transform="translate(-19.982 -32.999)" fill="#a6afb1"/>
      <path id="Path_17525" data-name="Path 17525" d="M34.734,61.774l0,.471,11.412-6.634V55.14L34.734,61.774Z" transform="translate(-19.982 -31.722)" fill="#a6afb1"/>
      <path id="Path_17526" data-name="Path 17526" d="M46.162,50.72,34.75,57.35v.471l11.408-6.63,0-.471Z" transform="translate(-19.993 -29.179)" fill="#a6afb1"/>
      <path id="Path_17527" data-name="Path 17527" d="M34.754,55.144l0,.467,11.412-6.63V48.51L34.754,55.144Z" transform="translate(-19.993 -27.907)" fill="#a6afb1"/>
      <path id="Path_17528" data-name="Path 17528" d="M46.172,46.767V46.3L34.76,52.93V53.4l11.412-6.634Z" transform="translate(-19.999 -26.636)" fill="#a6afb1"/>
      <path id="Path_17529" data-name="Path 17529" d="M34.77,50.72v.471l11.408-6.63,0-.471L34.77,50.72Z" transform="translate(-20.005 -25.365)" fill="#a6afb1"/>
      <path id="Path_17530" data-name="Path 17530" d="M34.77,48.5v.467l11.412-6.63V41.87L34.77,48.5Z" transform="translate(-20.005 -24.087)" fill="#a6afb1"/>
      <path id="Path_17531" data-name="Path 17531" d="M34.78,46.294v.467l11.412-6.63V39.66L34.78,46.294Z" transform="translate(-20.01 -22.816)" fill="#a6afb1"/>
      <path id="Path_17532" data-name="Path 17532" d="M34.784,44.08l0,.471,11.412-6.63V37.45L34.784,44.08Z" transform="translate(-20.01 -21.545)" fill="#a6afb1"/>
      <path id="Path_17533" data-name="Path 17533" d="M24.722,34.241l-.038,13.306.48-.276.059-20.36L21.206,19.95l-.336.191,3.878,6.719v1.083l0,.552-.021,5.746Z" transform="translate(-12.008 -11.477)" fill="#8ea3a7"/>
      <path id="Path_17534" data-name="Path 17534" d="M44.026,18.242l-11.412,6.63V24.4l11.412-6.63v.471Zm0,.939L32.614,25.81v-.471l11.412-6.63v.471Zm0,.943-11.412,6.63v-.471l11.412-6.63v.471Zm0,.939-11.412,6.63v-.467l11.412-6.63v.467Zm0,.939L32.605,28.63v-.471l11.412-6.63V22Zm0,.939L32.6,29.569V29.1l11.412-6.63v.467Zm0,.939L32.6,30.507v-.471l11.412-6.63v.471Zm0,.939L32.6,31.446v-.467l11.412-6.63v.467Zm-.008.99-11.412,6.63v-.471L44,25.334v.471Zm0,.939-11.412,6.63v-.467L44,26.277v.467Zm0,.939-11.412,6.63v-.471L44,27.212v.471Zm0,.943L32.58,35.256v-.471l11.412-6.63v.471Zm0,.934L32.58,36.19v-.471l11.412-6.63v.471Zm0,.943-11.412,6.63v-.471l11.412-6.63V30.5Zm0,.939-11.412,6.63V37.6l11.412-6.63v.471Zm0,1.877-11.412,6.63v-.471l11.412-6.63v.471Zm0,.943-11.412,6.63V40.42l11.412-6.63v.471h0Zm0,.939L32.563,41.83v-.471l11.412-6.63V35.2h0Zm0,.939-11.412,6.63V42.3l11.412-6.63v.471Zm0,.939-11.412,6.63v-.471l11.412-6.63v.471Zm0,.943L32.554,44.65v-.471l11.412-6.63v.471ZM31.034,24.863l-.064,20.36v.811l14.58-8.473.064-21.172-14.58,8.473h0Z" transform="translate(-17.819 -9.429)" fill="#cae1e5"/>
      <path id="Path_17535" data-name="Path 17535" d="M34.8,41.764l0,.467L46.212,35.6V35.13L34.8,41.764Z" transform="translate(-20.022 -20.21)" fill="#a6afb1"/>
      <path id="Path_17536" data-name="Path 17536" d="M34.81,39.55v.471l11.412-6.634V32.92L34.81,39.55Z" transform="translate(-20.028 -18.939)" fill="#a6afb1"/>
      <path id="Path_17537" data-name="Path 17537" d="M34.82,37.34v.467l11.408-6.63,0-.467L34.82,37.34Z" transform="translate(-20.033 -17.667)" fill="#a6afb1"/>
      <path id="Path_17538" data-name="Path 17538" d="M34.82,35.591l11.412-6.63V28.49L34.82,35.124v.467Z" transform="translate(-20.033 -16.39)" fill="#a6afb1"/>
      <path id="Path_17539" data-name="Path 17539" d="M34.83,32.914v.467l11.408-6.63,0-.471L34.83,32.914Z" transform="translate(-20.039 -15.119)" fill="#a6afb1"/>
      <path id="Path_17540" data-name="Path 17540" d="M34.83,31.171l11.412-6.63V24.07L34.834,30.7l0,.471Z" transform="translate(-20.039 -13.847)" fill="#a6afb1"/>
      <path id="Path_17541" data-name="Path 17541" d="M34.84,28.484v.467l11.412-6.63V21.85L34.84,28.484Z" transform="translate(-20.045 -12.57)" fill="#a6afb1"/>
      <path id="Path_17542" data-name="Path 17542" d="M46.258,20.117l0-.467L34.85,26.28v.471l11.408-6.634Z" transform="translate(-20.051 -11.304)" fill="#a6afb1"/>
      <path id="Path_17543" data-name="Path 17543" d="M45.288,16.27,33.88,22.9l.289.5,11.408-6.634-.289-.5Z" transform="translate(-19.493 -9.36)" fill="#a6afb1"/>
      <path id="Path_17544" data-name="Path 17544" d="M43.928,13.91,32.52,20.54l.289.5,11.408-6.63-.289-.5Z" transform="translate(-18.71 -8.002)" fill="#a6afb1"/>
      <path id="Path_17545" data-name="Path 17545" d="M31.16,18.2l.289.5,11.412-6.634-.289-.5L31.16,18.2Z" transform="translate(-17.928 -6.656)" fill="#a6afb1"/>
      <path id="Path_17546" data-name="Path 17546" d="M41.212,9.21,29.8,15.844l.289.5L41.5,9.711l-.289-.5Z" transform="translate(-17.145 -5.298)" fill="#a6afb1"/>
      <path id="Path_17547" data-name="Path 17547" d="M26.85,13.54,38.262,6.91l.289.5-11.412,6.63-.289-.5h0Zm-.578-1,11.412-6.63.289.5-11.412,6.63-.289-.5h0Zm-.578-.994,11.412-6.63.289.5-11.412,6.63-.289-.5h0Zm-.289-.5-.289-.5,11.412-6.63.289.5-11.412,6.63ZM36.24,0,21.66,8.473l4.018,6.961,14.58-8.473L36.24,0Z" transform="translate(-12.463)" fill="#e5f0f2"/>
      <path id="Path_17548" data-name="Path 17548" d="M39.719,7.12l-7.2,4.2.289.5,7.2-4.209-.289-.5Z" transform="translate(-18.71 -4.096)" fill="#a6afb1"/>
    </g>
  </g>
</svg>
