<svg id="logo_HPDX" xmlns="http://www.w3.org/2000/svg" xmlns:xlink="http://www.w3.org/1999/xlink" width="509.533" height="129.209" viewBox="0 0 509.533 129.209">
  <defs>
    <clipPath id="clip-path">
      <path id="Path_17683" data-name="Path 17683" d="M66.545,91.117,32.332,56.9V11.992l34.1,34.1L107.576,2a6.93,6.93,0,0,1,4.938-2H0V129.209H157.661V0Z" fill="none"/>
    </clipPath>
    <radialGradient id="radial-gradient" cx="0.464" cy="0.077" r="0.828" gradientUnits="objectBoundingBox">
      <stop offset="0.4" stop-color="#010101"/>
      <stop offset="1" stop-color="#e8501d" stop-opacity="0"/>
    </radialGradient>
    <radialGradient id="radial-gradient-2" cx="0.38" cy="0.247" r="0.46" gradientUnits="objectBoundingBox">
      <stop offset="0" stop-color="#fff" stop-opacity="0.4"/>
      <stop offset="1" stop-color="#fff" stop-opacity="0"/>
    </radialGradient>
  </defs>
  <g id="Group_2538" data-name="Group 2538" style="mix-blend-mode: normal;isolation: isolate">
    <g id="Layer_1" data-name="Layer 1">
      <g id="Group_2537" data-name="Group 2537" clip-path="url(#clip-path)">
        <g id="Group_2536" data-name="Group 2536" transform="translate(9.288 38.093)">
          <path id="Path_17681" data-name="Path 17681" d="M53.047,123.517H7.9L98.9,32.4l34.213,34.213v44.912l-34.1-34.1L57.985,121.4a6.93,6.93,0,0,1-4.938,2h0Zm-21.986-9.641h20.81l42.09-45.147a7.025,7.025,0,0,1,9.876,0l19.634,19.634V70.61L98.9,46.038,31.061,113.876Z" transform="translate(-7.9 -32.4)" fill="#e64416"/>
          <path id="Path_17682" data-name="Path 17682" d="M53.047,123.517H7.9L98.9,32.4l34.213,34.213v44.912l-34.1-34.1L57.985,121.4a6.93,6.93,0,0,1-4.938,2h0Zm-21.986-9.641h20.81l42.09-45.147a7.025,7.025,0,0,1,9.876,0l19.634,19.634V70.61L98.9,46.038,31.061,113.876Z" transform="translate(-7.9 -32.4)" fill="url(#radial-gradient)" style="mix-blend-mode: color-burn;isolation: isolate"/>
        </g>
      </g>
      <path id="Path_17684" data-name="Path 17684" d="M61.713,91.117,27.5,56.9V11.992l34.1,34.1L102.745,2a6.93,6.93,0,0,1,4.938-2H152.83ZM37.141,52.906,61.713,77.479,129.551,9.641h-20.81L66.651,54.788a7.025,7.025,0,0,1-9.876,0L37.141,35.153V52.906h0Z" transform="translate(4.832)" fill="#199ad7"/>
      <rect id="Rectangle_529" data-name="Rectangle 529" width="129.209" height="129.209" transform="translate(5.173)" fill="url(#radial-gradient-2)" style="mix-blend-mode: screen;isolation: isolate"/>
    </g>
  </g>
  <text id="HPDX" transform="translate(169.536 88.871)" fill="#002e6d" font-size="73" font-family="Montserrat" font-weight="700"><tspan x="0" y="0">HPDX</tspan></text>
  <text id="Hutchison_Ports_Data_Exchange" data-name="Hutchison Ports Data Exchange" transform="translate(173.533 116.995)" fill="#002e6d" font-size="21" font-family="Montserrat"><tspan x="0" y="0">Hutchison Ports Data Exchange</tspan></text>
</svg>
