<svg id="Layer_1" data-name="Layer 1" xmlns="http://www.w3.org/2000/svg" width="25.725" height="39.892" viewBox="0 0 25.725 39.892">
  <g id="Group_2450" data-name="Group 2450" transform="translate(0 0)">
    <path id="Path_17559" data-name="Path 17559" d="M13.186,6.33,13.18,8.816a7.41,7.41,0,0,1,1.3-1.03l-1.3-1.457h0Z" transform="translate(-9.104 -4.373)" fill="#002e6d"/>
    <path id="Path_17560" data-name="Path 17560" d="M70.214,12.283l.417.012.009-2.885-1.7,1.3a5.273,5.273,0,0,1,1.274,1.571h0Z" transform="translate(-47.621 -6.5)" fill="#002e6d"/>
    <path id="Path_17561" data-name="Path 17561" d="M2.619,23.455l.006-1.525c0,.043.009.087.012.13v-.43L.025,20.99,0,29.942l.516.127.015-5.826,2.087-.785h0Z" transform="translate(0 -14.499)" fill="#002e6d"/>
    <path id="Path_17562" data-name="Path 17562" d="M25.22,16.375a2.307,2.307,0,0,0-.108.213,2.027,2.027,0,0,0-.17.337,1.342,1.342,0,0,0-.04.244,2.388,2.388,0,0,0,1.466,2.44,8.036,8.036,0,0,0,7.3,0,2.559,2.559,0,0,0,1.5-2.106,1.721,1.721,0,0,0-.056-.331,2.18,2.18,0,0,0-.04-.241,2.424,2.424,0,0,0-.17-.334,1.9,1.9,0,0,0-.114-.223,2.764,2.764,0,0,0-.3-.334c-.062-.062-.1-.127-.17-.186a4.011,4.011,0,0,0-.665-.47,8.09,8.09,0,0,0-7.307.006,3.879,3.879,0,0,0-.652.467c-.059.053-.1.111-.148.164a2.973,2.973,0,0,0-.315.353h0Z" transform="translate(-17.18 -10.03)" fill="#002e6d"/>
    <path id="Path_17563" data-name="Path 17563" d="M77,25.16l-2.765.368L74.23,27.6l1.336.711L75.55,34.3l1.422-.189L77,25.16Z" transform="translate(-51.275 -17.38)" fill="#002e6d"/>
    <path id="Path_17564" data-name="Path 17564" d="M8.754,25.446a3.755,3.755,0,0,1-.226-.792c-.015-.083-.015-.17-.025-.254s-.022-.161-.025-.241c0-.043-.012-.087-.012-.13L8.46,25.555l.291-.111h0Z" transform="translate(-5.844 -16.599)" fill="#0c4c4f"/>
    <path id="Path_17565" data-name="Path 17565" d="M72.551,28.422l.006-2.072a4.185,4.185,0,0,1-.758,1.667l.755.4h0Z" transform="translate(-49.597 -18.202)" fill="#031a35"/>
    <path id="Path_17566" data-name="Path 17566" d="M3.087,33.244,1.665,31.5l-.015,5.826L1.64,40.452,3.062,42.2l.025-8.952Z" transform="translate(-1.133 -21.759)" fill="#0091c7"/>
    <path id="Path_17567" data-name="Path 17567" d="M8.964,35.57l-2.7.486L6.24,45.008l2.7-.486.025-8.952Z" transform="translate(-4.31 -24.57)" fill="#002e6d"/>
    <path id="Path_17568" data-name="Path 17568" d="M17.106,36.8a12.185,12.185,0,0,1-1.138-.566,9.471,9.471,0,0,1-.98-.656l-.028,8.949a8.9,8.9,0,0,0,.983.656c.1.056.21.1.312.158l.019-6.976.832-1.565Z" transform="translate(-10.334 -24.577)" fill="#031a35"/>
    <path id="Path_17569" data-name="Path 17569" d="M72.345,36.933l-.025,8.952,1.9-1.583.009-2.962.015-5.99-1.9,1.583Z" transform="translate(-49.956 -24.418)" fill="#0091c7"/>
    <path id="Path_17570" data-name="Path 17570" d="M66.694,38.8l-2.526-.748L64.14,47l2.53.751.025-8.952Z" transform="translate(-44.306 -26.284)" fill="#002e6d"/>
    <path id="Path_17571" data-name="Path 17571" d="M56.36,39.04l.359,1.633L56.7,47.865A11.368,11.368,0,0,0,58.769,47h0l.025-8.949a11.933,11.933,0,0,1-2.434.99h0Z" transform="translate(-38.931 -26.284)" fill="#031a35"/>
    <path id="Path_17572" data-name="Path 17572" d="M36.86,42.922a17.866,17.866,0,0,1-2.966-.142l-.025,8.949a17.539,17.539,0,0,0,2.966.142l.025-8.949Z" transform="translate(-23.396 -29.551)" fill="#031a35"/>
    <path id="Path_17573" data-name="Path 17573" d="M19.165,44.59l-.019,6.976-.006,1.976,3.024.813.025-8.952-3.024-.813Z" transform="translate(-13.221 -30.801)" fill="#0091c7"/>
    <path id="Path_17574" data-name="Path 17574" d="M30.475,42.77l-1.531,1.376L28.92,53.1l1.531-1.376.025-8.952Z" transform="translate(-19.977 -29.544)" fill="#002e6d"/>
    <path id="Path_17575" data-name="Path 17575" d="M43.485,43.24l-.025,8.949L44.579,53.7l.025-8.949L43.485,43.24Z" transform="translate(-30.021 -29.869)" fill="#002e6d"/>
    <path id="Path_17576" data-name="Path 17576" d="M50.308,46.52l-3.2.5L47.08,55.97l3.2-.5,0-1.756.022-7.2Z" transform="translate(-32.521 -32.134)" fill="#0091c7"/>
    <path id="Path_17577" data-name="Path 17577" d="M8.559,5.829a4.2,4.2,0,0,1,.652-.467,8.09,8.09,0,0,1,7.307-.006,4.145,4.145,0,0,1,.665.47c.068.059.108.124.17.186a2.99,2.99,0,0,1,.3.334,1.685,1.685,0,0,1,.114.223,2.127,2.127,0,0,1,.17.334,1.636,1.636,0,0,1,.04.241,2.055,2.055,0,0,1,.056.331,2.559,2.559,0,0,1-1.5,2.106,8.036,8.036,0,0,1-7.3,0,2.388,2.388,0,0,1-1.466-2.44,2.233,2.233,0,0,1,.04-.244,2.027,2.027,0,0,1,.17-.337,1.974,1.974,0,0,1,.108-.213A3.273,3.273,0,0,1,8.4,5.99c.053-.053.09-.111.148-.164h0ZM2.715,7.8c.009.083.009.17.025.254a3.755,3.755,0,0,0,.226.792l-.291.111L.587,9.744,2.01,11.488,4.709,11a9,9,0,0,0,.98.656,11.142,11.142,0,0,0,1.138.566L6,13.789,9.02,14.6l1.531-1.376a17.538,17.538,0,0,0,2.966.142l1.119,1.515,3.2-.5-.359-1.633a11.934,11.934,0,0,0,2.434-.99l2.526.751,1.9-1.583-1.336-.711-.755-.4a4.18,4.18,0,0,0,.758-1.667l2.765-.368-.3-1.92L23.059,5.8l-.417-.012a5.273,5.273,0,0,0-1.274-1.571l1.7-1.3-1.184-.683-1.178-.68-2.245.99A14.485,14.485,0,0,0,15.746,1.8L15.6.167,12.283,0l-.618,1.6a16.785,16.785,0,0,0-2.879.445L6.852.844,4.134,1.957l1.3,1.457a7.556,7.556,0,0,0-1.3,1.03c-.133.13-.281.257-.4.39L.918,4.626.08,6.491l2.61.64a3.482,3.482,0,0,0,.025.671h0Z" transform="translate(-0.055 0)" fill="#009add"/>
  </g>
  <g id="Group_2451" data-name="Group 2451" transform="translate(0.721 24.906)">
    <path id="Path_17578" data-name="Path 17578" d="M10.64,84.52v1.565a4.569,4.569,0,0,1,.816-.649l-.816-.915Z" transform="translate(-8.07 -83.289)" fill="#002e6d"/>
    <path id="Path_17579" data-name="Path 17579" d="M46.471,88.259l.263.006.006-1.815-1.07.819a3.284,3.284,0,0,1,.8.986h0Z" transform="translate(-32.268 -84.622)" fill="#002e6d"/>
    <path id="Path_17580" data-name="Path 17580" d="M3.978,95.282v-.959c0,.028.009.053.009.08v-.272l-1.642-.4L2.33,99.358l.325.08.009-3.661,1.311-.492h0Z" transform="translate(-2.33 -89.651)" fill="#002e6d"/>
    <path id="Path_17581" data-name="Path 17581" d="M18.187,90.836a1.117,1.117,0,0,0-.068.136,1.359,1.359,0,0,0-.108.21.894.894,0,0,0-.025.155,1.5,1.5,0,0,0,.922,1.534,5.042,5.042,0,0,0,4.592,0,1.608,1.608,0,0,0,.94-1.324,1.159,1.159,0,0,0-.034-.207,1.288,1.288,0,0,0-.025-.152,1.5,1.5,0,0,0-.108-.21,1.479,1.479,0,0,0-.071-.139,1.513,1.513,0,0,0-.192-.21,1.281,1.281,0,0,0-.108-.118,2.559,2.559,0,0,0-.417-.294,5.09,5.09,0,0,0-4.592,0,2.373,2.373,0,0,0-.411.294c-.037.034-.059.071-.093.105a1.859,1.859,0,0,0-.2.223h0Z" transform="translate(-13.131 -86.847)" fill="#002e6d"/>
    <path id="Path_17582" data-name="Path 17582" d="M50.751,96.35l-1.738.232,0,1.3.838.445-.012,3.767.9-.121.019-5.628Z" transform="translate(-34.575 -91.461)" fill="#002e6d"/>
    <path id="Path_17583" data-name="Path 17583" d="M7.849,96.531a2.453,2.453,0,0,1-.142-.5c-.009-.053-.009-.105-.015-.161s-.012-.1-.015-.152c0-.028-.006-.053-.006-.08V96.6l.179-.068Z" transform="translate(-6.019 -90.971)" fill="#0c4c4f"/>
    <path id="Path_17584" data-name="Path 17584" d="M47.953,98.412v-1.3a2.587,2.587,0,0,1-.473,1.048l.473.254Z" transform="translate(-33.518 -91.986)" fill="#031a35"/>
    <path id="Path_17585" data-name="Path 17585" d="M4.279,101.438l-.894-1.1L3.373,104l0,1.967.894,1.095.015-5.625Z" transform="translate(-3.048 -94.217)" fill="#0091c7"/>
    <path id="Path_17586" data-name="Path 17586" d="M7.973,102.9l-1.7.306-.015,5.625,1.7-.3.015-5.628Z" transform="translate(-5.045 -95.985)" fill="#002e6d"/>
    <path id="Path_17587" data-name="Path 17587" d="M13.1,103.677a7.684,7.684,0,0,1-.714-.356,6.132,6.132,0,0,1-.618-.411l-.015,5.628a5.236,5.236,0,0,0,.618.411c.062.037.133.065.195.1l.012-4.385.523-.983h0Z" transform="translate(-8.837 -95.992)" fill="#031a35"/>
    <path id="Path_17588" data-name="Path 17588" d="M47.815,103.756l-.015,5.628,1.2-1,0-1.862.012-3.767-1.2,1Z" transform="translate(-33.739 -95.889)" fill="#0091c7"/>
    <path id="Path_17589" data-name="Path 17589" d="M44.265,104.93l-1.589-.47-.015,5.625,1.589.473.015-5.628Z" transform="translate(-30.188 -97.063)" fill="#002e6d"/>
    <path id="Path_17590" data-name="Path 17590" d="M37.763,105.075l.226,1.027-.012,4.521a7.209,7.209,0,0,0,1.3-.544h0l.015-5.628a7.342,7.342,0,0,1-1.531.622h0Z" transform="translate(-26.804 -97.056)" fill="#031a35"/>
    <path id="Path_17591" data-name="Path 17591" d="M25.51,107.52a11.333,11.333,0,0,1-1.865-.09l-.015,5.628a10.693,10.693,0,0,0,1.865.09l.015-5.628Z" transform="translate(-17.043 -99.115)" fill="#031a35"/>
    <path id="Path_17592" data-name="Path 17592" d="M14.385,108.57l-.012,4.385,0,1.243,1.9.51.015-5.625-1.9-.513Z" transform="translate(-10.647 -99.902)" fill="#0091c7"/>
    <path id="Path_17593" data-name="Path 17593" d="M21.5,107.43l-.962.866-.015,5.625.962-.866.015-5.625Z" transform="translate(-14.895 -99.115)" fill="#002e6d"/>
    <path id="Path_17594" data-name="Path 17594" d="M29.675,107.72l-.015,5.628.7.952.015-5.628-.7-.952Z" transform="translate(-21.209 -99.315)" fill="#002e6d"/>
    <path id="Path_17595" data-name="Path 17595" d="M33.962,109.79l-2.016.312-.015,5.628,2.016-.315,0-1.1.012-4.521Z" transform="translate(-22.777 -100.745)" fill="#0091c7"/>
    <path id="Path_17596" data-name="Path 17596" d="M7.728,84.2a2.55,2.55,0,0,1,.411-.294,5.07,5.07,0,0,1,4.592,0,3,3,0,0,1,.417.294c.043.037.068.077.108.118a2.365,2.365,0,0,1,.192.21,1.479,1.479,0,0,1,.071.139,1.358,1.358,0,0,1,.108.21,1.289,1.289,0,0,1,.025.152,1.257,1.257,0,0,1,.034.207,1.608,1.608,0,0,1-.94,1.324,5.051,5.051,0,0,1-4.592,0,1.5,1.5,0,0,1-.922-1.534,1.455,1.455,0,0,1,.025-.155,1.044,1.044,0,0,1,.108-.21c.025-.043.037-.09.068-.136a1.859,1.859,0,0,1,.2-.223c.034-.034.056-.071.093-.105h0Zm-3.677,1.24c.006.053.006.105.015.161a2.269,2.269,0,0,0,.142.5l-.182.068-1.311.492.894,1.1,1.7-.306a5.65,5.65,0,0,0,.618.411,6.988,6.988,0,0,0,.714.356l-.523.983,1.9.513.962-.866a11.333,11.333,0,0,0,1.865.09l.7.952,2.013-.312-.226-1.027a7.411,7.411,0,0,0,1.531-.622l1.589.473,1.2-1-.838-.448-.473-.254a2.637,2.637,0,0,0,.476-1.048l1.738-.232-.189-1.206-1.518-.04-.263-.006a3.284,3.284,0,0,0-.8-.986l1.07-.819-.745-.43-.739-.427-1.413.622a9.174,9.174,0,0,0-1.707-.461l-.093-1.03-2.084-.105-.39,1.008a10.714,10.714,0,0,0-1.809.278l-1.215-.758-1.71.7.816.915a4.709,4.709,0,0,0-.819.649c-.083.08-.176.161-.247.244l-1.769-.13L2.4,84.616l1.642.4a2.168,2.168,0,0,0,.015.424h0Z" transform="translate(-2.378 -80.54)" fill="#009add"/>
  </g>
</svg>
