<svg xmlns="http://www.w3.org/2000/svg" width="96.117" height="96.117" viewBox="0 0 96.117 96.117">
  <path id="play-circle" d="M66.281,41.791,42.86,28.963a7.176,7.176,0,0,0-10.7,6.256V60.894a7.114,7.114,0,0,0,3.556,6.2,7.1,7.1,0,0,0,7.121.072L66.3,54.318a7.176,7.176,0,0,0-.02-12.523Zm-1.922,9.023L40.9,63.662a3.173,3.173,0,0,1-4.73-2.767V35.219a3.141,3.141,0,0,1,1.574-2.743,3.174,3.174,0,0,1,1.594-.437,3.239,3.239,0,0,1,1.582.421L64.343,45.287a3.172,3.172,0,0,1,.02,5.519ZM48.059,0A48.059,48.059,0,1,0,96.117,48.059,48.112,48.112,0,0,0,48.059,0Zm0,92.112A44.054,44.054,0,1,1,92.112,48.059,44.106,44.106,0,0,1,48.059,92.112Z" fill="#fff"/>
</svg>
