<svg id="Layer_1" data-name="Layer 1" xmlns="http://www.w3.org/2000/svg" width="27.636" height="35.593" viewBox="0 0 27.636 35.593">
  <g id="Group_2449" data-name="Group 2449" transform="translate(0)">
    <path id="Path_17549" data-name="Path 17549" d="M31.345,1.571,28.536,0,20.5.665l2.809,1.577,8.036-.671Z" transform="translate(-8.114)" fill="#0091c7"/>
    <path id="Path_17550" data-name="Path 17550" d="M17.962,2.677,15.153,1.1,6.99,9.788,9.8,11.359l8.163-8.682Z" transform="translate(-2.767 -0.435)" fill="#002e6d"/>
    <path id="Path_17551" data-name="Path 17551" d="M10.6,46.3a33.572,33.572,0,0,1-4.368-4.423,14.973,14.973,0,0,1-3.4-7.311c-.024-.157-.03-.248-.03-.254L0,32.74s.006.1.03.254a15.034,15.034,0,0,0,3.4,7.311A25.707,25.707,0,0,0,9.7,46.068l2.809,1.571h0A15.084,15.084,0,0,1,10.6,46.3h0Z" transform="translate(0 -12.959)" fill="#002e6d"/>
    <path id="Path_17552" data-name="Path 17552" d="M6.157,26.057l-2.8-1.577L0,29.465l2.809,1.577,3.347-4.985Z" transform="translate(0 -9.689)" fill="#0091c7"/>
    <path id="Path_17553" data-name="Path 17553" d="M9.23,17.051,6.42,15.48l-.87,5.438,2.8,1.577.876-5.444Z" transform="translate(-2.197 -6.127)" fill="#0091c7"/>
    <path id="Path_17554" data-name="Path 17554" d="M29.833,9.883l-1.233-.4c-.4-.133-.858-.284-1.335-.435-.193-.06-.387-.127-.592-.193-.06-.018-.109-.036-.109-.036L26.3,7.521l-.2-.973c-.157-.767-.3-1.462-.411-2.048l-7.9.924L22.547,26.74h0S17.8,5.624,17.8,5.43c0,0-5.77,6.3-7.129,7.746,0,0-.012.06-.024.139-.012.06-.024.145-.042.248s-.03.2-.048.3c-.091.556-.218,1.378-.35,2.175-.036.224-.073.441-.1.653-.024.169-.054.338-.085.514-.03.2-.066.393-.091.556-.018.127-.036.242-.054.338s-.024.163-.036.248-.018.133-.018.133c-.073.109-.139.211-.211.32-.381.568-.743,1.106-1.088,1.619a.557.557,0,0,0-.03.048q-.453.671-.852,1.269c-.381.568-.743,1.1-1.051,1.565a14.6,14.6,0,0,0,3.269,6.9c5.256,6.205,7.48,7.033,7.879,7.135.042.012.073.018.073.018s3.015-3.208,8.8-16.827c.157-.369.308-.731.447-1.088.048-.115.085-.218.127-.326.1-.236.187-.477.278-.707.048-.127.091-.242.133-.363.079-.211.157-.417.23-.622.042-.121.085-.236.127-.356.066-.193.139-.393.205-.58.036-.115.073-.224.115-.338.06-.181.121-.363.175-.538.036-.109.066-.218.1-.326.054-.169.1-.332.157-.5.03-.1.06-.205.091-.3.048-.157.091-.314.133-.465.024-.1.054-.187.079-.278.042-.145.079-.29.115-.429.024-.091.048-.175.066-.26.036-.133.066-.266.1-.387.018-.085.042-.163.06-.242.03-.121.054-.236.085-.35.018-.079.036-.151.048-.224.024-.109.048-.211.066-.308.018-.066.03-.139.042-.205.018-.091.036-.175.048-.26l.036-.2c.012-.073.024-.133.036-.2s.024-.133.03-.2a.866.866,0,0,1,.024-.133c.012-.073.024-.139.03-.2a.257.257,0,0,1,.012-.066c.012-.073.018-.145.024-.2s.012-.115.018-.163c.018-.193.03-.3-.024.163Z" transform="translate(-2.608 -1.781)" fill="#009add"/>
    <path id="Path_17555" data-name="Path 17555" d="M9.091,42.415a14.477,14.477,0,0,1-3.269-6.9L4.656,35.34s.073.03.109.048a.077.077,0,0,1-.036-.006c-.03-.012-.054-.024-.079-.036,0,0,.006.091.03.254a15.034,15.034,0,0,0,3.4,7.311,33.572,33.572,0,0,0,4.368,4.423,15.084,15.084,0,0,0,1.9,1.335h0a5.574,5.574,0,0,0,2.61.912v-.024c-.393-.1-2.616-.93-7.879-7.135h0Z" transform="translate(-1.841 -13.988)" fill="#fff"/>
    <path id="Path_17556" data-name="Path 17556" d="M7.719,20.17a.228.228,0,0,0,.03-.048c.447-.665.852-1.269,1.088-1.619.073-.109.139-.205.218-.314,0,0,.006-.054.018-.133s.024-.163.036-.248.036-.211.054-.338c.024-.163.054-.356.091-.556.03-.175.054-.344.085-.514.036-.211.066-.429.1-.653.127-.8.26-1.619.35-2.175.018-.1.03-.2.048-.3s.03-.187.042-.248c.012-.085.024-.139.024-.139l7.129-7.746V3.73L8.873,12.418,8,17.856,4.65,22.84l1.166.175c.308-.465.671-1,1.051-1.565q.4-.6.852-1.269h0Z" transform="translate(-1.841 -1.476)" fill="#fff"/>
    <path id="Path_17557" data-name="Path 17557" d="M25.15,4.686h0l7.9-.924c.121.586.26,1.281.417,2.048l.2.973.26,1.293s.042.012.109.036c.121.036.32.1.592.193.471.157.93.3,1.335.435.459.151.876.284,1.233.4.048-.459.042-.356.024-.163,0,.042-.012.1-.018.163l.393-.773a.237.237,0,0,0-.06-.181c.012.012,0,.036.012.048-.018-.036-.03-.079-.073-.1L34.195,7.073c-.06-.314-.127-.628-.193-.943-.224-1.1-.441-2.193-.665-3.293a.654.654,0,0,1,0,.218.423.423,0,0,0-.145-.435l-8.036.665V4.692h0Z" transform="translate(-9.955 -1.037)" fill="#ebecec"/>
    <path id="Path_17558" data-name="Path 17558" d="M37.564,12.219V12.14c0,.018.012.024.012.042s-.012.024-.012.036Zm-.145.375h0l.042-.024a.151.151,0,0,1-.042.024Zm.163-.417h0V12.11l-.393.773c-.006.06-.018.127-.024.2a.257.257,0,0,1-.012.066c-.006.06-.018.133-.03.2a1.25,1.25,0,0,1-.024.133c-.012.06-.024.133-.036.2l-.036.2-.036.2c-.018.085-.03.169-.048.26-.012.066-.03.133-.042.205-.018.1-.042.2-.066.308-.018.073-.03.151-.048.224-.024.115-.054.23-.085.35-.018.079-.036.163-.06.242-.03.127-.066.254-.1.387-.024.085-.042.175-.066.26-.036.139-.079.284-.115.429-.024.091-.048.181-.079.278-.042.151-.091.308-.133.465-.03.1-.06.2-.091.3-.048.163-.1.326-.157.5-.036.109-.066.218-.1.326-.054.175-.115.356-.175.538-.036.115-.073.224-.115.338-.066.187-.133.381-.205.58-.042.121-.085.236-.127.356-.073.2-.151.411-.23.622-.042.121-.091.242-.133.363-.091.23-.181.471-.278.707l-.127.326c-.145.35-.29.713-.447,1.088-5.788,13.612-8.8,16.827-8.8,16.827s.568-.61.489-.52a37.639,37.639,0,0,0,4.151-6.67c.121-.23,1.106-2.193,2.012-4.169.767-1.674,1.233-2.695,2.423-5.48A44.762,44.762,0,0,0,37.57,12.376c0,.036-.036.079-.066.115a.328.328,0,0,0,.066-.115c.006-.085.012-.151.018-.205h0v-.012h0Z" transform="translate(-9.959 -4.793)" fill="#33c6bd"/>
  </g>
</svg>
