<svg xmlns="http://www.w3.org/2000/svg" width="46.861" height="25.281" viewBox="0 0 46.861 25.281">
  <g id="Layer_1" data-name="Layer 1" transform="translate(-0.028)">
    <g id="Group_2447" data-name="Group 2447" transform="translate(0.028 0)">
      <path id="Path_17490" data-name="Path 17490" d="M40.783,8.4a6.249,6.249,0,0,1,.092.866l.118.067a3.431,3.431,0,0,1,2.9-.472,1.865,1.865,0,0,1,.323.154l-1.512-.882a2.733,2.733,0,0,0-.318-.149h-.015A2.519,2.519,0,0,0,42,7.871a2.77,2.77,0,0,0-.877-.031,2.58,2.58,0,0,0-.39.067.27.27,0,0,0-.062.015.073.073,0,0,0,.01.031c.036.123.067.267.1.446h0Z" transform="translate(-19.833 -3.81)" fill="#f08913"/>
      <path id="Path_17491" data-name="Path 17491" d="M27.162,8.965a3.584,3.584,0,0,0-.436-1.2,2.39,2.39,0,0,0-.851-.856h0a1.865,1.865,0,0,0-.323-.154,3.413,3.413,0,0,0-2.9.472.205.205,0,0,1,.062.056.307.307,0,0,0-.062-.056l-.113.067V7.16a5.489,5.489,0,0,0-.092-.866c-.036-.179-.072-.323-.1-.446a.073.073,0,0,0-.01-.031,4.371,4.371,0,0,0-.251-.666,3.484,3.484,0,0,0-.405-.646,3.645,3.645,0,0,0-.308-.323,4.527,4.527,0,0,0-.446-.328,3.808,3.808,0,0,0-3.84.374,11.564,11.564,0,0,0-4.394,5.158h0a1.722,1.722,0,0,0-.467-.108,2.89,2.89,0,0,0-1.687.446,7.324,7.324,0,0,0-3.322,5.752,4.094,4.094,0,0,0,.051.636A10.034,10.034,0,0,0,3.03,23.756a3.158,3.158,0,0,0,1.323,2.907,2.378,2.378,0,0,0,.708.267,2.771,2.771,0,0,0,.877.031,2.412,2.412,0,0,0,.385-.067c.179-.046.42-.123.595-.185a5.656,5.656,0,0,0,.743-.359.144.144,0,0,0,.051-.067c-2.374,1.374-4.291.154-4.3-2.574a9.629,9.629,0,0,1,4.271-7.424,6.2,6.2,0,0,1-.092-.856,6.822,6.822,0,0,1,3.092-5.358,2.387,2.387,0,0,1,2.194-.241,11.4,11.4,0,0,1,4.353-5.255c2.851-1.646,5.173-.323,5.183,3.215.082-.046.144-.082.195-.113a1.36,1.36,0,0,0,.128-.077.112.112,0,0,0,.026-.015l.036-.021c2.374-1.374,4.307-.272,4.317,2.456a7.846,7.846,0,0,1-.523,2.681,9.734,9.734,0,0,1-3.835,4.927,7.042,7.042,0,0,0,1.1-.79,8.361,8.361,0,0,0,.661-.636,9.328,9.328,0,0,0,.61-.718,11.065,11.065,0,0,0,1.036-1.625,9.879,9.879,0,0,0,.723-1.774,8.05,8.05,0,0,0,.333-1.815,5.965,5.965,0,0,0-.067-1.323h0Z" transform="translate(-1.491 -1.7)" fill="#f2dc80"/>
      <path id="Path_17492" data-name="Path 17492" d="M41.075,10.783l.113-.067h0l-.118-.067v.133h0Z" transform="translate(-20.028 -5.19)" fill="#ffb300"/>
      <path id="Path_17493" data-name="Path 17493" d="M18.857,7.661l1.512.882a11.564,11.564,0,0,1,4.394-5.158,3.807,3.807,0,0,1,3.84-.374L27.09,2.129a2.65,2.65,0,0,0-.385-.185.087.087,0,0,1-.026-.01,2.9,2.9,0,0,0-.426-.123,3.217,3.217,0,0,0-1.041-.036c-.138.015-.323.046-.461.077-.215.056-.492.144-.7.215a6.093,6.093,0,0,0-.882.426,9.623,9.623,0,0,0-2.507,2.164l-.22.272c-.067.082-.154.195-.215.282-.241.333-.374.518-.6.882a14.907,14.907,0,0,0-.831,1.543l.051.015a.025.025,0,0,1,.015.005h0Z" transform="translate(-9.171 -0.852)" fill="#f08913"/>
      <path id="Path_17494" data-name="Path 17494" d="M18.768,13.236l-.051-.015a.427.427,0,0,0-.077-.021c.046.015.1.026.144.046a.025.025,0,0,1-.015-.005h0Z" transform="translate(-9.098 -6.433)" fill="#ffb300"/>
      <path id="Path_17495" data-name="Path 17495" d="M1.572,28.412a10,10,0,0,1,4.235-7.644,3.589,3.589,0,0,1-.051-.636A7.316,7.316,0,0,1,9.078,14.38a2.852,2.852,0,0,1,1.687-.446,1.722,1.722,0,0,1,.467.108h0l-1.512-.882-.144-.046a.62.62,0,0,0-.092-.026,2.262,2.262,0,0,0-.7-.046,2.932,2.932,0,0,0-.933.267A5.752,5.752,0,0,0,5.961,14.8a7.952,7.952,0,0,0-.8,1.148,7.532,7.532,0,0,0-.595,1.287,5.384,5.384,0,0,0-.3,2.625,7.584,7.584,0,0,0-1.036.81q-.415.4-.641.651c-.338.379-.584.718-.584.718a11.206,11.206,0,0,0-.974,1.584,10.041,10.041,0,0,0-.677,1.707,7.488,7.488,0,0,0-.313,1.743,5.487,5.487,0,0,0,.072,1.312,3.632,3.632,0,0,0,.436,1.2,2.638,2.638,0,0,0,.379.492,2.3,2.3,0,0,0,.472.364l1.518.882a3.169,3.169,0,0,1-1.323-2.907h0Z" transform="translate(-0.028 -6.351)" fill="#f08913"/>
      <path id="Path_17496" data-name="Path 17496" d="M26.969,13.087a7.916,7.916,0,0,0,.523-2.681c-.005-2.728-1.943-3.83-4.317-2.456a.294.294,0,0,0-.036.021c-.01,0-.015.01-.026.015-.026.015-.067.041-.128.077s-.113.062-.195.113c-.01-3.538-2.328-4.865-5.183-3.215a11.4,11.4,0,0,0-4.353,5.255,2.387,2.387,0,0,0-2.194.241,6.822,6.822,0,0,0-3.092,5.358,6.962,6.962,0,0,0,.092.856A9.615,9.615,0,0,0,3.79,24.095c.005,2.728,1.923,3.948,4.3,2.574a.138.138,0,0,1-.051.067l1.333-.769L10.7,25.2l1.333-.769,1.333-.769L14.7,22.89l1.333-.769,1.333-.769,1.333-.769,1.333-.769,1.333-.769h0l.174-.1.179-.1.179-.1.179-.1.174-.1.179-.1.179-.1.179-.1.174-.1.179-.1a9.761,9.761,0,0,0,3.835-4.927h0Z" transform="translate(-1.861 -2.075)" fill="#ffc627"/>
      <path id="Path_17497" data-name="Path 17497" d="M63.858,14.738A2.439,2.439,0,0,0,64.9,12.871,3.014,3.014,0,0,0,63.13,10.39l-.01,3.845a4.726,4.726,0,0,1,.723.508s.01-.005.01-.01h0Z" transform="translate(-30.773 -5.063)" fill="#50ccff"/>
      <path id="Path_17498" data-name="Path 17498" d="M75.42,3.26l-.01,3.845a.281.281,0,0,0,.164.215,12.156,12.156,0,0,1,1.784,1.256,8.085,8.085,0,0,1,1.477,1.646c.046.067.1.149.149.231.072.123.144.241.205.364.051.108.113.215.159.323.031.072.062.138.087.21a5.2,5.2,0,0,0,.39-1.917c.005-2.235-1.461-4.471-4.409-6.168h0Z" transform="translate(-36.762 -1.589)" fill="#009ddb"/>
      <path id="Path_17499" data-name="Path 17499" d="M51.87,14.858A.935.935,0,0,1,52,14.822a.4.4,0,0,0,.067-.015,1.3,1.3,0,0,1,.149-.021.3.3,0,0,0,.067-.01c.077-.005.149-.01.231-.01a3.17,3.17,0,0,0,2.117-.292c.723-.42.723-1.1.492-1.23V12.93l-3.44,2.01h0a.932.932,0,0,1,.144-.067l.046-.015h0Z" transform="translate(-25.199 -6.301)" fill="#98daf5"/>
      <path id="Path_17500" data-name="Path 17500" d="M55.488,18.291c.072-.015.138-.041.21-.062l.01-3.009a1.28,1.28,0,0,1-.749,1.046,4.028,4.028,0,0,1-2.769.328,3.185,3.185,0,0,1-.851-.323v2.138c.138.026.277.051.426.067a10.607,10.607,0,0,0,3.717-.185h0Z" transform="translate(-25.033 -7.417)" fill="#002e6d"/>
      <path id="Path_17501" data-name="Path 17501" d="M54.96,15.15a1.273,1.273,0,0,0,.749-1.046,1.408,1.408,0,0,0-.759-1.174v.313c.226.133.231.81-.492,1.23a3.17,3.17,0,0,1-2.117.292,1.7,1.7,0,0,0-.231.01.3.3,0,0,0-.067.01c-.051.005-.1.015-.149.021a.313.313,0,0,0-.067.015.935.935,0,0,0-.128.036l-.046.015a.932.932,0,0,0-.144.067c-.108.062-.169.133-.169.215a3.12,3.12,0,0,0,.851.323,4,4,0,0,0,2.769-.328h0Z" transform="translate(-25.033 -6.301)" fill="#fff"/>
      <path id="Path_17502" data-name="Path 17502" d="M41.9,15.01a.834.834,0,0,1,.133-.036.4.4,0,0,0,.067-.015,1.3,1.3,0,0,1,.149-.021.353.353,0,0,0,.067-.01c.077-.005.154-.01.231-.01,3.05,1.764,8.828,1.764,12.361-.287s3.527-5.4.467-7.167V7.15l-2.5,1.456h0c-.108.062-.169.133-.169.215A3.014,3.014,0,0,1,54.481,11.3a2.455,2.455,0,0,1-1.046,1.866s-.01.005-.01.01a4.992,4.992,0,0,0-.723-.508.281.281,0,0,0,.164.215,5.905,5.905,0,0,1,.5.338,6.665,6.665,0,0,1-2.343,1.087l-.21.062a10.739,10.739,0,0,1-3.717.185c-.149-.015-.292-.041-.431-.067a10.707,10.707,0,0,1-1.307-.333,6.8,6.8,0,0,1-1.133-.513v0l-2.5,1.461h0a.75.75,0,0,1,.144-.067l.046-.015h0Z" transform="translate(-20.345 -3.484)" fill="#24bfff"/>
      <path id="Path_17503" data-name="Path 17503" d="M46.44,16.855a17.553,17.553,0,0,0,1.876.1,17.385,17.385,0,0,0,1.871-.1,13.081,13.081,0,0,0,5.05-1.553,6.082,6.082,0,0,0,2.446-2.384,3.6,3.6,0,0,0,.405-1.61,3.745,3.745,0,0,0-.21-1.225,4.567,4.567,0,0,0-.625-1.169,6.2,6.2,0,0,0-1.046-1.077,7.138,7.138,0,0,0-1-.687v.313c3.061,1.769,3.071,5.112-.467,7.167s-9.31,2.051-12.361.287a1.662,1.662,0,0,0-.231.01.3.3,0,0,0-.067.01c-.051.005-.1.015-.149.021a.313.313,0,0,0-.067.015,1.012,1.012,0,0,0-.133.036.163.163,0,0,0-.046.015.75.75,0,0,0-.144.067c-.108.062-.169.133-.169.215.241.138.487.267.743.39a11.655,11.655,0,0,0,1.63.62,14.815,14.815,0,0,0,2.692.543h0Z" transform="translate(-20.174 -3.484)" fill="#d9f4ff"/>
      <path id="Path_17504" data-name="Path 17504" d="M44.882,23.525a26.537,26.537,0,0,0,4.619.195,24.909,24.909,0,0,0,4.512-.615,20.055,20.055,0,0,0,2.082-.6,4.726,4.726,0,0,0,1.917-2.8,1.209,1.209,0,0,0,.021-.144,3.505,3.505,0,0,0,.041-.461l.01-3.845h0a3.533,3.533,0,0,1-.405,1.61,6.082,6.082,0,0,1-2.446,2.384,12.967,12.967,0,0,1-5.05,1.553,17.531,17.531,0,0,1-1.871.1,17.627,17.627,0,0,1-1.876-.1,15.265,15.265,0,0,1-2.692-.543,12.331,12.331,0,0,1-1.63-.62c-.256-.123-.508-.251-.743-.39l-.01,3.522c.579.179.728.215,1.3.349,1.2.282,2.21.4,2.22.405h0Z" transform="translate(-20.17 -7.432)" fill="#002e6d"/>
      <path id="Path_17505" data-name="Path 17505" d="M29.6,15.186a.935.935,0,0,1,.128-.036.313.313,0,0,0,.067-.015,1.3,1.3,0,0,1,.149-.021.3.3,0,0,0,.067-.01c.077-.005.154-.01.231-.01,6.557,3.784,18,3.784,25.009-.292s6.973-10.7.42-14.489V0h0l-2.5,1.456h0c-.108.062-.169.133-.169.215,2.943,1.7,4.414,3.937,4.409,6.168a5.414,5.414,0,0,1-.39,1.917,5.6,5.6,0,0,1-.267.569,6.651,6.651,0,0,1-.846,1.215,9.782,9.782,0,0,1-1.195,1.154,14.134,14.134,0,0,1-4.2,2.287,5.554,5.554,0,0,0,1.246-1.492,3.934,3.934,0,0,0,.431-1.22,4.7,4.7,0,0,1-1.917,2.8,20.055,20.055,0,0,1-2.082.6,24.909,24.909,0,0,1-4.512.615,26.508,26.508,0,0,1-4.619-.195,22.49,22.49,0,0,1-2.22-.405c-.574-.133-.723-.169-1.3-.349-.2-.062-.451-.144-.795-.251a15.317,15.317,0,0,1-1.933-.8c-.277-.123-.625-.333-.9-.477v0c-.836.487-1.671.969-2.507,1.456h0a.75.75,0,0,1,.144-.067c.015-.005.031-.01.051-.015h0Z" transform="translate(-14.346 0)" fill="#24bfff"/>
      <path id="Path_17506" data-name="Path 17506" d="M55.591,15.473c3.62-2.1,5.434-4.86,5.44-7.624a9.985,9.985,0,0,0-.1-1.174,8.255,8.255,0,0,0-.292-1.113,8.367,8.367,0,0,0-1.179-2.184,7.5,7.5,0,0,0-.656-.795c-.385-.395-.928-.9-1.348-1.261A14.166,14.166,0,0,0,55.5,0h0V.313C62.056,4.1,62.1,10.725,55.084,14.8s-18.452,4.076-25.009.292a1.662,1.662,0,0,0-.231.01.26.26,0,0,0-.067.01c-.051.005-.1.015-.149.021a.313.313,0,0,0-.067.015.935.935,0,0,0-.128.036l-.051.015a.932.932,0,0,0-.144.067c-.108.062-.169.133-.169.215,7.337,4.23,19.226,4.23,26.511,0h0Z" transform="translate(-14.18 0)" fill="#7dd9ff"/>
      <path id="Path_17507" data-name="Path 17507" d="M55.591,22.924c-7.285,4.235-19.175,4.235-26.511,0l-.01,3.845c0,.077.062.154.169.215a20.493,20.493,0,0,0,3.717,1.666,27,27,0,0,0,3.82.974h0s1.21.231,2.784.364c1.543.133,2.794.118,2.845.113a31.81,31.81,0,0,0,6.973-.8,25.555,25.555,0,0,0,2.63-.769,20.252,20.252,0,0,0,2.461-1.041,16.562,16.562,0,0,0,3.24-2.1,10.728,10.728,0,0,0,2.4-2.856,7.381,7.381,0,0,0,.682-1.676c.046-.169.087-.369.123-.574.015-.082.026-.164.041-.246.015-.118.036-.236.046-.354a.654.654,0,0,1,.005-.1c.01-.149.021-.3.021-.451l.01-3.845c-.005,2.763-1.82,5.522-5.44,7.624h0Z" transform="translate(-14.18 -7.451)" fill="#002e6d"/>
    </g>
  </g>
</svg>
