<svg xmlns="http://www.w3.org/2000/svg" width="1395" height="476" viewBox="0 0 1395 476">
  <g id="Group_2037" data-name="Group 2037" transform="translate(-11198 -6819)">
    <g id="Rectangle_173" data-name="Rectangle 173" transform="translate(11198 6819)" fill="#fff" stroke="#002e6d" stroke-width="4">
      <rect width="1395" height="476" rx="33" stroke="none"/>
      <rect x="2" y="2" width="1391" height="472" rx="31" fill="none"/>
    </g>
    <text id="Regional_Operations_Centre" data-name="Regional Operations Centre" transform="translate(11436 7150)" fill="#002e6d" font-size="40" font-family="Montserrat-Bold, Montserrat" font-weight="700"><tspan x="-290" y="39">Regional Operations Centre</tspan></text>
    <text id="Centralized_Planning_Control_Functions" data-name="Centralized Planning &amp; Control Functions" transform="translate(11436 7216)" fill="#002e6d" font-size="35" font-family="Montserrat-Medium, Montserrat" font-weight="500"><tspan x="-366" y="34">Centralized Planning &amp; Control Functions</tspan></text>
    <text id="System_Administration" data-name="System 
Administration" transform="translate(11287 7033)" fill="#002e6d" font-size="25" font-family="Montserrat-Medium, Montserrat" font-weight="500"><tspan x="-46" y="24">System </tspan><tspan x="-95" y="54">Administration</tspan></text>
    <text id="Control_Centre" data-name="Control
Centre" transform="translate(11594 7033)" fill="#002e6d" font-size="25" font-family="Montserrat-Medium, Montserrat" font-weight="500"><tspan x="-46" y="24">Control</tspan><tspan x="-42" y="54">Centre</tspan></text>
    <text id="Yard_Planning" data-name="Yard 
Planning" transform="translate(11830.755 7033)" fill="#002e6d" font-size="25" font-family="Montserrat-Medium, Montserrat" font-weight="500"><tspan x="-28" y="24">Yard </tspan><tspan x="-57" y="54">Planning</tspan></text>
    <text id="Berth_Ship_Planning" data-name="Berth &amp; Ship
Planning" transform="translate(12058 7033)" fill="#002e6d" font-size="25" font-family="Montserrat-Medium, Montserrat" font-weight="500"><tspan x="-79" y="24">Berth &amp; Ship</tspan><tspan x="-57" y="54">Planning</tspan></text>
    <text id="Data_Center" data-name="Data 
Center" transform="translate(12310 7033)" fill="#002e6d" font-size="25" font-family="Montserrat-Medium, Montserrat" font-weight="500"><tspan x="-30" y="24">Data </tspan><tspan x="-42" y="54">Center</tspan></text>
    <g id="noun-administration-6280975" transform="translate(11352.894 6894.528)">
      <path id="Path_345" data-name="Path 345" d="M56.471,41.581a2.158,2.158,0,0,0-1.813-.985c-.09,0-.157-.045-.224-.045H45.39a10.9,10.9,0,1,0-.627,0H35.72a1.673,1.673,0,0,1-.246.045,2.262,2.262,0,0,0-.381.067,1.974,1.974,0,0,0-.448.2,1.347,1.347,0,0,0-.291.2,2.883,2.883,0,0,0-.358.381c-.045.067-.112.09-.157.157L22.288,59.781a5.779,5.779,0,0,0,1.477,7.768A5.763,5.763,0,0,0,31.6,66.542l1.075-1.3-.112,3.224h0v.067a2.869,2.869,0,0,0,.112.6.4.4,0,0,0,.045.224,2.609,2.609,0,0,0,.381.627.489.489,0,0,0,.067.112h0a2.175,2.175,0,0,0,1.612.672h20.64a2.216,2.216,0,0,0,2.06-1.433.381.381,0,0,1,.022-.157,2.1,2.1,0,0,0,.134-.649v-.067h0l-.134-3.4,1.231,1.5A5.764,5.764,0,0,0,68.045,59.8L56.494,41.626ZM38.63,29.672A6.425,6.425,0,1,1,45.055,36.1a6.439,6.439,0,0,1-6.425-6.425Zm-10.521,34a1.286,1.286,0,0,1-2.082-1.5l7.119-11.215L32.9,57.856l-4.791,5.82Zm8.977,2.6.784-21.267H52.285l.784,21.267H37.108ZM63.926,63.9a1.288,1.288,0,0,1-1.746-.224l-4.947-6.022-.246-6.962,7.3,11.462a1.27,1.27,0,0,1-.336,1.724Z" transform="translate(14.44 11.209)" fill="#002e6d"/>
      <path id="Path_346" data-name="Path 346" d="M107.244,50.239h-10.9a37.292,37.292,0,0,0-4.164-10.007L99.9,32.509a2.229,2.229,0,0,0,0-3.156L89.85,19.3a2.229,2.229,0,0,0-3.156,0L78.97,27.024a37.292,37.292,0,0,0-10.007-4.164v-10.9A2.245,2.245,0,0,0,66.725,9.72H52.487a2.245,2.245,0,0,0-2.239,2.239v10.9a37.292,37.292,0,0,0-10.007,4.164L32.519,19.3a2.229,2.229,0,0,0-3.156,0L19.311,29.353a2.229,2.229,0,0,0,0,3.156l7.723,7.723a37.291,37.291,0,0,0-4.164,10.007h-10.9A2.245,2.245,0,0,0,9.73,52.477V66.715a2.245,2.245,0,0,0,2.239,2.239h10.9A37.292,37.292,0,0,0,27.034,78.96l-7.723,7.723a2.229,2.229,0,0,0,0,3.156L29.363,99.891a2.229,2.229,0,0,0,3.156,0l7.723-7.723a37.291,37.291,0,0,0,10.007,4.164v10.9a2.245,2.245,0,0,0,2.239,2.239H66.725a2.245,2.245,0,0,0,2.239-2.239v-10.9A37.291,37.291,0,0,0,78.97,92.168l7.723,7.723a2.229,2.229,0,0,0,3.156,0L99.9,89.84a2.229,2.229,0,0,0,0-3.156L92.178,78.96a37.292,37.292,0,0,0,4.164-10.007h10.9a2.245,2.245,0,0,0,2.239-2.239V52.477A2.245,2.245,0,0,0,107.244,50.239ZM105,64.476H94.551a2.212,2.212,0,0,0-2.194,1.791,33.376,33.376,0,0,1-4.88,11.775,2.239,2.239,0,0,0,.291,2.821l7.41,7.41-6.895,6.895-7.41-7.41a2.239,2.239,0,0,0-2.821-.291,32.967,32.967,0,0,1-11.775,4.88,2.212,2.212,0,0,0-1.791,2.194v10.454h-9.76V94.541a2.212,2.212,0,0,0-1.791-2.194,33.376,33.376,0,0,1-11.775-4.88,2.239,2.239,0,0,0-2.821.291l-7.41,7.41-6.895-6.895,7.41-7.41a2.239,2.239,0,0,0,.291-2.821,32.967,32.967,0,0,1-4.88-11.775,2.212,2.212,0,0,0-2.194-1.791H14.207v-9.76H24.661a2.212,2.212,0,0,0,2.194-1.791,33.376,33.376,0,0,1,4.88-11.775,2.239,2.239,0,0,0-.291-2.821l-7.41-7.41,6.895-6.895,7.41,7.41a2.239,2.239,0,0,0,2.821.291,32.967,32.967,0,0,1,11.775-4.88,2.212,2.212,0,0,0,1.791-2.194V14.2h9.76V24.651a2.212,2.212,0,0,0,1.791,2.194,33.376,33.376,0,0,1,11.775,4.88,2.239,2.239,0,0,0,2.821-.291l7.41-7.41,6.895,6.895-7.41,7.41a2.239,2.239,0,0,0-.291,2.821,32.967,32.967,0,0,1,4.88,11.775,2.212,2.212,0,0,0,2.194,1.791H105v9.76Z" transform="translate(0 0)" fill="#002e6d"/>
    </g>
    <g id="noun-control-centre-4250418" transform="translate(11622.234 6913.521)">
      <path id="Path_347" data-name="Path 347" d="M87.9,74.024H84.819V6.169A6.169,6.169,0,0,0,78.651,0H13.88A6.169,6.169,0,0,0,7.711,6.169V74.024H4.627A4.627,4.627,0,0,0,0,78.651V87.9A4.627,4.627,0,0,0,4.627,92.53H87.9A4.627,4.627,0,0,0,92.53,87.9V78.651A4.627,4.627,0,0,0,87.9,74.024ZM10.8,6.169A3.084,3.084,0,0,1,13.88,3.084H78.651a3.084,3.084,0,0,1,3.084,3.084V74.024H10.8ZM89.446,87.9A1.542,1.542,0,0,1,87.9,89.446H4.627A1.542,1.542,0,0,1,3.084,87.9V78.651a1.542,1.542,0,0,1,1.542-1.542H87.9a1.542,1.542,0,0,1,1.542,1.542Z" fill="#002e6d"/>
      <path id="Path_348" data-name="Path 348" d="M23.256,33.745v-20.2a1.542,1.542,0,0,0-3.084,0v20.2a7.711,7.711,0,0,0,0,15.113v4.781a1.542,1.542,0,1,0,3.084,0V48.858a7.711,7.711,0,0,0,0-15.113ZM21.714,45.928A4.627,4.627,0,1,1,26.34,41.3,4.627,4.627,0,0,1,21.714,45.928Z" transform="translate(7.588 6.506)" fill="#002e6d"/>
      <path id="Path_349" data-name="Path 349" d="M45.256,29.118V13.542a1.542,1.542,0,1,0-3.084,0V29.118a7.711,7.711,0,0,0,0,15.113v9.407a1.542,1.542,0,1,0,3.084,0V44.231a7.711,7.711,0,0,0,0-15.113ZM43.714,41.3a4.627,4.627,0,1,1,4.627-4.627A4.627,4.627,0,0,1,43.714,41.3Z" transform="translate(19.515 6.506)" fill="#002e6d"/>
      <path id="Path_350" data-name="Path 350" d="M34.256,18.323V13.542a1.542,1.542,0,1,0-3.084,0v4.781a7.711,7.711,0,0,0,0,15.113v20.2a1.542,1.542,0,1,0,3.084,0v-20.2a7.711,7.711,0,0,0,0-15.113ZM32.714,30.506A4.627,4.627,0,1,1,37.34,25.88,4.627,4.627,0,0,1,32.714,30.506Z" transform="translate(13.552 6.506)" fill="#002e6d"/>
    </g>
    <g id="noun-container-3307916" transform="translate(11858.96 6888.248)">
      <path id="Path_351" data-name="Path 351" d="M83.148,291.393V288H56v3.393H67.877v10.18h-5.09a1.7,1.7,0,0,0-1.7,1.7v6.787a1.7,1.7,0,0,0,1.7,1.7h5.09v10.18H56v3.393H83.148v-3.393H71.271v-10.18h5.09a1.7,1.7,0,0,0,1.7-1.7v-6.787a1.7,1.7,0,0,0-1.7-1.7h-5.09v-10.18Zm-8.484,16.967H64.484v-3.393h10.18Z" transform="translate(-44.123 -214.311)" fill="#002e6d"/>
      <path id="Path_352" data-name="Path 352" d="M249.7,288a1.7,1.7,0,0,0-1.7,1.7v33.935a1.7,1.7,0,0,0,1.7,1.7h42.418a1.7,1.7,0,0,0,1.7-1.7V289.7a1.7,1.7,0,0,0-1.7-1.7Zm1.7,3.393h5.09v6.787h3.393v-6.787h5.09v6.787h3.393v-6.787h5.09v6.787h3.393v-6.787h5.09v30.541h-5.09V308.361h-3.393v13.574h-5.09V308.361h-3.393v13.574h-5.09V308.361h-3.393v13.574h-5.09Zm39.025,30.541h-5.09V291.393h5.09Z" transform="translate(-195.401 -214.311)" fill="#002e6d"/>
      <rect id="Rectangle_176" data-name="Rectangle 176" width="8.159" height="4.079" transform="translate(59.558 86.98)" fill="#002e6d"/>
      <rect id="Rectangle_177" data-name="Rectangle 177" width="12.238" height="4.079" transform="translate(70.98 86.98)" fill="#002e6d"/>
      <rect id="Rectangle_178" data-name="Rectangle 178" width="4.895" height="3.263" transform="translate(12.238 80.453)" fill="#002e6d"/>
      <path id="Path_353" data-name="Path 353" d="M116.107,60.115h-6.43L71.293,43.226A6.783,6.783,0,0,0,68.6,31.485v-.215h1.7a1.7,1.7,0,0,0,1.7-1.7V21.09a1.7,1.7,0,0,0-1.7-1.7H68.6V16H65.205v3.393h-1.7a1.7,1.7,0,0,0-1.7,1.7v8.484a1.7,1.7,0,0,0,1.7,1.7h1.7v1.7a1.7,1.7,0,0,0,1.7,1.7,3.393,3.393,0,1,1,0,6.787h0a3.4,3.4,0,0,1-3.392-3.393H60.115a6.773,6.773,0,0,0,2.4,5.169L24.127,60.115H17.7a1.7,1.7,0,0,0-1.7,1.7v54.3a1.7,1.7,0,0,0,1.7,1.7h98.41a1.7,1.7,0,0,0,1.7-1.7v-54.3a1.7,1.7,0,0,0-1.7-1.7Zm-50.9-37.328H68.6v5.09H65.205Zm45.812,40.722h3.393V66.9h-3.393ZM71.992,66.9v-5.09a1.7,1.7,0,0,0-1.7-1.7H68.6V45.748l39.025,17.171V66.9Zm-45.812,0V62.919L65.205,45.748V60.115h-1.7a1.7,1.7,0,0,0-1.7,1.7V66.9Zm39.025-3.393H68.6V66.9H65.205Zm-45.812,0h3.393V66.9H19.393Zm0,6.787H56.722V114.41H19.393ZM114.41,114.41h-54.3V70.3h54.3Z" transform="translate(-12.607)" fill="#002e6d"/>
    </g>
    <g id="noun-container-ship-5802404" transform="translate(12114.324 6910.489)">
      <path id="Path_354" data-name="Path 354" d="M81.149,37.605H78.215V34.184h2.933Zm-3.056,5.2H81.27V39.393H78.094ZM89.444,34.19H86.512v3.421h2.933Zm-3.056,8.616h3.179V39.393H86.388Zm11.8-8.616H95.26v3.421h2.935Zm-3.057,5.2v3.414H98.31V39.393Zm19.348-5.2h-2.933v3.421h2.935Zm.123,8.616V39.393h-3.179v3.414ZM19.228,84.728A6.284,6.284,0,0,0,22,83.859C20.127,75.164,14.423,67.4,5.821,61.908a1.71,1.71,0,0,1,.924-3.153h7.687V51.843a1.71,1.71,0,0,1,1.71-1.71H48.408V47.125a1.71,1.71,0,0,1,1.71-1.71H69.284V28.607a1.71,1.71,0,0,1,1.71-1.71H81.078v-7.4a1.71,1.71,0,0,1,3.421,0v7.4h26.808v-7.4a1.71,1.71,0,1,1,3.421,0v7.4h6.332a1.71,1.71,0,0,1,1.71,1.71V47.125h0V66.555h3.18a1.71,1.71,0,0,1,1.71,1.71V80.421a8.966,8.966,0,0,1,3.95-1.051,1.71,1.71,0,1,1,0,3.414c-1.578,0-3.479,1.226-5.318,2.41-2.254,1.452-12.083,1.452-14.336,0-1.839-1.184-3.74-2.41-5.32-2.41s-3.479,1.226-5.318,2.41c-2.254,1.452-12.083,1.452-14.336,0-1.839-1.184-3.74-2.41-5.319-2.41s-3.479,1.226-5.318,2.41c-2.254,1.452-12.083,1.452-14.336,0-1.839-1.184-3.74-2.41-5.318-2.41s-3.481,1.226-5.319,2.41c-2.254,1.452-12.083,1.452-14.336,0-1.839-1.184-3.74-2.41-5.318-2.41s-3.481,1.226-5.319,2.41c-.513.331-1.032.664-1.555.982l-.019.01c-1.65,1.154-10.509.46-12.763-.992-1.839-1.184-3.74-2.41-5.318-2.41a1.71,1.71,0,1,1,0-3.414c2.583,0,4.913,1.5,7.168,2.953C15.748,83.5,17.65,84.728,19.228,84.728ZM119.359,66.555V59.69H105.035v6.865Zm-49.8-17.722v7.443H83.883V48.833Zm49.8,0H105.035v7.443h14.324Zm-17.737,0H87.3v7.443h14.324Zm-35.476,0H51.823v7.443H66.145ZM51.823,59.808l5.965,6.746h8.357V59.69H51.823Zm17.737,6.746H83.883V59.69H69.561Zm17.737,0h14.324V59.69H87.3Zm32.061-36.242h-12.2V45.422h12.2ZM72.7,45.422H103.74V30.313H72.7Zm-24.29,8.125H34.833v5.205H48.408ZM17.844,58.755H31.419V53.55H17.844Zm7.225,23.234a12.828,12.828,0,0,1,6.647-2.618c2.583,0,4.913,1.5,7.168,2.953,1.839,1.186,3.739,2.41,5.318,2.41s3.481-1.224,5.319-2.41c2.254-1.452,4.584-2.953,7.168-2.953s4.913,1.5,7.168,2.953c1.839,1.186,3.739,2.41,5.318,2.41s3.481-1.224,5.318-2.41c2.255-1.452,4.585-2.953,7.168-2.953s4.915,1.5,7.17,2.953c1.837,1.186,3.739,2.41,5.318,2.41s3.479-1.224,5.318-2.41c2.255-1.452,4.585-2.953,7.168-2.953s4.915,1.5,7.168,2.953c1.839,1.186,3.74,2.41,5.319,2.41,1.522,0,3.345-1.14,5.121-2.281V69.967H57.02a1.71,1.71,0,0,1-1.283-.57l-6.394-7.221H12.018A37.55,37.55,0,0,1,25.069,81.983Z" transform="translate(0 0)" fill="#002e6d"/>
    </g>
    <g id="noun-data-center-6725520" transform="translate(12392.79 6934.452)">
      <g id="Group_61" data-name="Group 61" transform="translate(3.124 3.124)">
        <path id="Path_355" data-name="Path 355" d="M46.632,77.639H51.91a1.32,1.32,0,1,0,0-2.639H46.632a1.32,1.32,0,1,0,0,2.639Z" transform="translate(-9.685 -14.302)" fill="#002e6d"/>
        <path id="Path_356" data-name="Path 356" d="M75.7,12.5H65.564a1.32,1.32,0,1,0,0,2.639H75.7A3.97,3.97,0,0,1,79.657,19.1V60H5.764V19.1a3.97,3.97,0,0,1,3.959-3.959H19.856a1.32,1.32,0,1,0,0-2.639H9.722a6.6,6.6,0,0,0-6.6,6.6V66.6a6.6,6.6,0,0,0,6.6,6.6H75.7a6.6,6.6,0,0,0,6.6-6.6V19.1A6.6,6.6,0,0,0,75.7,12.5Zm3.959,54.1A3.97,3.97,0,0,1,75.7,70.559H9.722A3.97,3.97,0,0,1,5.764,66.6V62.641H79.657Z" transform="translate(-3.124 -4.582)" fill="#002e6d"/>
        <path id="Path_357" data-name="Path 357" d="M59.058,88.224A1.319,1.319,0,0,0,56.7,89.4l1.689,3.365H36.27L37.959,89.4A1.319,1.319,0,0,0,35.6,88.224L32.958,93.5a1.3,1.3,0,0,0,.053,1.28,1.318,1.318,0,0,0,1.122.62h26.39a1.318,1.318,0,0,0,1.122-.62A1.3,1.3,0,0,0,61.7,93.5Z" transform="translate(-7.741 -16.243)" fill="#002e6d"/>
        <path id="Path_358" data-name="Path 358" d="M51.076,40.382a1.32,1.32,0,0,1-2.639,0,1.32,1.32,0,0,1,2.639,0" transform="translate(-10.171 -8.713)" fill="#002e6d"/>
        <path id="Path_359" data-name="Path 359" d="M51.076,24.757a1.32,1.32,0,0,1-2.639,0,1.32,1.32,0,0,1,2.639,0" transform="translate(-10.171 -6.283)" fill="#002e6d"/>
        <path id="Path_360" data-name="Path 360" d="M41.9,49.308H29.539a3.959,3.959,0,1,0,0,2.639H41.9a3.943,3.943,0,0,0,7.442,0H61.709a3.959,3.959,0,1,0,0-2.639H49.345a3.971,3.971,0,0,0-2.4-2.4V42.684c8.735-.211,17.153-2.454,17.153-6.571V9.722c0-4.328-9.289-6.6-18.473-6.6S27.15,5.394,27.15,9.722v26.39c0,4.13,8.419,6.373,17.153,6.571v4.222a3.971,3.971,0,0,0-2.4,2.4ZM25.832,51.947a1.32,1.32,0,1,1,1.32-1.32A1.323,1.323,0,0,1,25.832,51.947Zm19.793,0a1.32,1.32,0,1,1,1.32-1.32A1.323,1.323,0,0,1,45.625,51.947Zm19.793-2.639a1.32,1.32,0,1,1-1.32,1.32A1.323,1.323,0,0,1,65.418,49.308ZM29.791,13.285c3.4,2.006,9.646,3.035,15.834,3.035s12.43-1.029,15.834-3.035v9.632c0,1.4-6.017,3.959-15.834,3.959s-15.834-2.56-15.834-3.959ZM45.625,5.764c9.817,0,15.834,2.56,15.834,3.959s-6.017,3.959-15.834,3.959-15.834-2.56-15.834-3.959,6.017-3.959,15.834-3.959ZM29.791,36.113V26.481c3.4,2.006,9.646,3.035,15.834,3.035s12.43-1.029,15.834-3.035v9.632c0,1.4-6.017,3.959-15.834,3.959s-15.834-2.56-15.834-3.959Z" transform="translate(-6.038 -3.124)" fill="#002e6d"/>
      </g>
    </g>
  </g>
</svg>
