<svg xmlns="http://www.w3.org/2000/svg" width="1395" height="1071" viewBox="0 0 1395 1071">
  <g id="Group_62" data-name="Group 62" transform="translate(-11198 -6819)">
    <text id="Localized_Execution_Monitoring" data-name="Localized Execution &amp; Monitoring" transform="translate(11449 7847)" fill="#002e6d" font-size="35" font-family="Montserrat-Medium, Montserrat" font-weight="500"><tspan x="-296" y="34">Localized Execution &amp; Monitoring</tspan></text>
    <g id="Group_2038" data-name="Group 2038">
      <g id="Rectangle_156" data-name="Rectangle 156" transform="translate(11198 7333)" fill="#fff" stroke="#009bde" stroke-width="4">
        <rect width="447" height="476" rx="33" stroke="none"/>
        <rect x="2" y="2" width="443" height="472" rx="31" fill="none"/>
      </g>
      <text id="Terminal_A" data-name="Terminal A" transform="translate(11261 7376)" fill="#009bde" font-size="40" font-family="Montserrat-Bold, Montserrat" font-weight="700"><tspan x="-112" y="39">Terminal A</tspan></text>
      <text id="Front_line_Tower" data-name="Front line &amp; Tower" transform="translate(11250 7538)" fill="#002e6d" font-size="25" font-family="Montserrat-Medium, Montserrat" font-weight="500"><tspan x="-60" y="24">Front line </tspan><tspan x="-50" y="54">&amp; Tower</tspan></text>
      <text id="Customs" transform="translate(11450 7538)" fill="#002e6d" font-size="25" font-family="Montserrat-Medium, Montserrat" font-weight="500"><tspan x="-55" y="24">Customs</tspan></text>
      <text id="Gate" transform="translate(11250 7714)" fill="#002e6d" font-size="25" font-family="Montserrat-Medium, Montserrat" font-weight="500"><tspan x="-29" y="24">Gate</tspan></text>
      <text id="Cashier" transform="translate(11450 7714)" fill="#002e6d" font-size="25" font-family="Montserrat-Medium, Montserrat" font-weight="500"><tspan x="-47" y="24">Cashier</tspan></text>
      <g id="noun-truck-1938610" transform="translate(11272.313 7633.11)">
        <g id="Group_60" data-name="Group 60" transform="translate(2 11)">
          <path id="Path_341" data-name="Path 341" d="M94.395,40.9l-7.159-2.864-2.864-7.159a1.556,1.556,0,0,0-1.447-.98H72.031a1.556,1.556,0,0,0-1.556,1.556V47.012H67.362V20.556A1.556,1.556,0,0,0,65.806,19H3.556A1.556,1.556,0,0,0,2,20.556V48.569a1.556,1.556,0,0,0,1.556,1.556H5.984a6.085,6.085,0,0,0-.872,3.112A6.225,6.225,0,0,0,16.691,56.35h4.855a6.225,6.225,0,0,0,11.578-3.113,6.085,6.085,0,0,0-.871-3.112H54.228a6.085,6.085,0,0,0-.872,3.112A6.225,6.225,0,0,0,64.935,56.35h11.08a6.225,6.225,0,0,0,10.707,0h7.1a1.556,1.556,0,0,0,1.556-1.556V42.344A1.556,1.556,0,0,0,94.395,40.9ZM5.113,22.112H64.25v24.9H5.113ZM11.337,56.35a3.112,3.112,0,1,1,3.113-3.113A3.113,3.113,0,0,1,11.337,56.35Zm6.225-3.113a6.085,6.085,0,0,0-.872-3.112h4.856a6.085,6.085,0,0,0-.871,3.112Zm12.45,0A3.113,3.113,0,1,1,26.9,50.125,3.113,3.113,0,0,1,30.013,53.237ZM59.581,56.35a3.112,3.112,0,1,1,3.112-3.113A3.113,3.113,0,0,1,59.581,56.35Zm5.353-6.225h5.54v3.112H65.806A6.085,6.085,0,0,0,64.935,50.125ZM81.369,56.35a3.112,3.112,0,1,1,3.113-3.113A3.112,3.112,0,0,1,81.369,56.35Zm10.894-3.113H87.594a6.225,6.225,0,0,0-12.45,0H73.587V33.006h8.279l2.723,6.8a1.556,1.556,0,0,0,.872.872l6.8,2.723Z" transform="translate(-2 -6.55)" fill="#009bde"/>
          <rect id="Rectangle_160" data-name="Rectangle 160" width="3" height="18" transform="translate(6 18.89)" fill="#009bde"/>
          <rect id="Rectangle_161" data-name="Rectangle 161" width="4" height="18" transform="translate(12 18.89)" fill="#009bde"/>
          <rect id="Rectangle_162" data-name="Rectangle 162" width="3" height="18" transform="translate(19 18.89)" fill="#009bde"/>
          <rect id="Rectangle_163" data-name="Rectangle 163" width="3" height="18" transform="translate(25 18.89)" fill="#009bde"/>
          <rect id="Rectangle_164" data-name="Rectangle 164" width="3" height="18" transform="translate(31 18.89)" fill="#009bde"/>
          <rect id="Rectangle_165" data-name="Rectangle 165" width="3" height="18" transform="translate(37 18.89)" fill="#009bde"/>
          <rect id="Rectangle_166" data-name="Rectangle 166" width="3" height="18" transform="translate(44 18.89)" fill="#009bde"/>
          <rect id="Rectangle_167" data-name="Rectangle 167" width="3" height="18" transform="translate(50 18.89)" fill="#009bde"/>
          <rect id="Rectangle_168" data-name="Rectangle 168" width="3" height="18" transform="translate(56 18.89)" fill="#009bde"/>
          <rect id="Rectangle_169" data-name="Rectangle 169" width="5" height="3" transform="translate(0 -0.11)" fill="#009bde"/>
          <rect id="Rectangle_170" data-name="Rectangle 170" width="14" height="3" transform="translate(8 -0.11)" fill="#009bde"/>
          <rect id="Rectangle_171" data-name="Rectangle 171" width="24" height="3" transform="translate(12 5.89)" fill="#009bde"/>
        </g>
      </g>
      <line id="Line_17" data-name="Line 17" y2="38" transform="translate(11421.5 7295.5)" fill="none" stroke="#009bde" stroke-width="5"/>
      <g id="noun-mobile-phone-4791618" transform="translate(11272 8122.8)">
        <path id="Path_342" data-name="Path 342" d="M29.889,2.2H6.422A4.223,4.223,0,0,0,2.2,6.422V59.185A4.222,4.222,0,0,0,6.422,63.4H29.889a4.228,4.228,0,0,0,4.222-4.222V6.422A4.232,4.232,0,0,0,29.889,2.2ZM4.112,10.556H32.192V55.044H4.112Zm2.31-6.444H29.889a2.308,2.308,0,0,1,2.3,2.31V8.644H4.112V6.422A2.309,2.309,0,0,1,6.422,4.112ZM29.889,61.489H6.422a2.314,2.314,0,0,1-2.31-2.31V56.956H32.192v2.222A2.308,2.308,0,0,1,29.889,61.489ZM63.4,32.8a42.286,42.286,0,0,1-4.83,19.623.953.953,0,1,1-1.689-.885,40.36,40.36,0,0,0,0-37.477.955.955,0,1,1,1.689-.892A42.333,42.333,0,0,1,63.4,32.8Zm-6.606,0a35.67,35.67,0,0,1-3.952,16.313.957.957,0,0,1-.851.52.938.938,0,0,1-.439-.108.96.96,0,0,1-.412-1.29,33.757,33.757,0,0,0,0-30.87.958.958,0,0,1,1.7-.878A35.209,35.209,0,0,1,56.794,32.8ZM47.121,19.81a29.044,29.044,0,0,1,0,25.98.956.956,0,1,1-1.709-.858,27.127,27.127,0,0,0,0-24.264.956.956,0,1,1,1.709-.858Zm-5.728,3.323a22.441,22.441,0,0,1,0,19.333.949.949,0,0,1-.865.54.9.9,0,0,1-.412-.095.96.96,0,0,1-.453-1.277,20.536,20.536,0,0,0,0-17.678.954.954,0,0,1,.453-1.277A.966.966,0,0,1,41.393,23.134Z" transform="translate(23 -661.6)" fill="#009bde" stroke="#009bde" stroke-width="1"/>
      </g>
      <g id="noun-customs-6433069" transform="translate(11484.65 7461.899)">
        <path id="Path_343" data-name="Path 343" d="M18.63,18.74l-2.006,3.011a1.161,1.161,0,0,0,.648,1.76l1.479.423v.2H17.01a4.063,4.063,0,1,0,0,8.126h1.741a15.094,15.094,0,0,0,8.126,13.217v3.9l-7.283,2.08a1.162,1.162,0,0,0-.745,1.583c-1.033.234-2.38.546-3.819.894a.371.371,0,0,0-.049.012l-.033.007c-1.528.371-3.155.782-4.611,1.186l-.044.012c-.613.169-1.193.339-1.723.5A8.6,8.6,0,0,0,2.5,63.871v3.793a1.161,1.161,0,0,0,1.161,1.161H64.022a1.161,1.161,0,0,0,1.161-1.161V63.871a8.6,8.6,0,0,0-6.071-8.218c-.529-.163-1.11-.332-1.723-.5l-.044-.012c-1.456-.4-3.081-.815-4.611-1.186l-.033-.007a.37.37,0,0,0-.049-.012c-1.439-.348-2.786-.659-3.819-.894a1.162,1.162,0,0,0-.745-1.583l-7.283-2.08v-3.9a15.094,15.094,0,0,0,8.126-13.217h1.741A4.064,4.064,0,0,0,54.735,28.2l-1.161,1.161L54.735,28.2a4.064,4.064,0,0,0-4.063-4.063H48.931v-.2l1.479-.423a1.161,1.161,0,0,0,.648-1.76L49.052,18.74l2.14-6.426a1.158,1.158,0,0,0-.525-1.374L34.417,1.653a1.158,1.158,0,0,0-1.152,0L17.014,10.94a1.158,1.158,0,0,0-.525,1.374l2.14,6.426ZM39.248,61.573l-.063.051-.065.046-.063.039-.065.035-.067.028-.067.026-.07.023-.072.016-.072.012-.072.009-.072,0h-.067l-.084-.007-.079-.012-.077-.019-.072-.021-.067-.026-.06-.026-.074-.037-.06-.035-.065-.046-.06-.046-.049-.044-.035-.035-.026-.026-.035-.042a.07.07,0,0,1-.012-.016L35,58.2v8.3H62.861V63.871a6.275,6.275,0,0,0-4.432-6c-.176-.056-.362-.109-.55-.165l-.859,3.287a1.162,1.162,0,0,1-1.124.866H51.253a1.16,1.16,0,0,1-1.138-1.4l.936-4.529c-1.892-.448-3.508-.808-4.251-.97l-7.552,6.607ZM20.882,54.966c-.743.163-2.359.522-4.251.97l.936,4.529a1.16,1.16,0,0,1-1.138,1.4H11.786a1.162,1.162,0,0,1-1.124-.866L9.8,57.708c-.19.056-.374.109-.55.165a6.275,6.275,0,0,0-4.432,6V66.5H32.68V58.2L30.1,61.424l-.042.051-.046.049-.049.044-.056.046-.058.044-.067.042-.072.039-.072.033-.074.028-.079.023-.077.019-.081.012-.081.007h-.081l-.081,0-.079-.012-.079-.016-.077-.021-.077-.026-.077-.033-.074-.039-.067-.042-.067-.046-.056-.049-7.552-6.607ZM12.044,57.1l2.333-.6L15,59.539H12.682l-.638-2.44Zm43.595,0L55,59.539H52.679l.627-3.041,2.333.6ZM39.9,51.535,38.438,52.7l-2.965,2.373,3.16,3.951L45.4,53.1Zm-7.694,3.543-4.43-3.543L22.28,53.1l6.77,5.925Zm1.632-1.667L38.484,49.7V46.471a14.954,14.954,0,0,1-4.594.71h-.1a14.954,14.954,0,0,1-4.594-.71V49.7l4.643,3.715ZM46.61,25.3v-.7L34.159,28.154l-.058.014-.049.012-.07.009-.077.007-.065,0-.07,0-.072-.007-.07-.009-.067-.016-.039-.009L21.073,24.6v7.494A12.769,12.769,0,0,0,33.841,44.86h0A12.769,12.769,0,0,0,46.61,32.091V25.3ZM15.269,28.2a1.742,1.742,0,0,1,1.741-1.741h1.741v3.482H17.01A1.742,1.742,0,0,1,15.269,28.2Zm33.663-1.741h1.741A1.742,1.742,0,0,1,52.414,28.2l1.161,1.161L52.414,28.2a1.742,1.742,0,0,1-1.741,1.741H48.931ZM12.947,28.2Zm2.322,0Zm31.88-8.126,1.1,1.641-14.4,4.116-14.4-4.116c.183-.272.364-.546.548-.82l.548-.822H47.149Zm-.214-2.322H20.748l-1.755-5.268L33.841,4,48.69,12.483Z" transform="translate(2.509)" fill="#009bde" fill-rule="evenodd"/>
      </g>
      <g id="noun-cashier-6259861" transform="translate(11477.189 7625.978)">
        <path id="Path_344" data-name="Path 344" d="M80.124,37.319H62.186V34.435H72.855a1.209,1.209,0,0,0,1.21-1.21V13.63a1.209,1.209,0,0,0-1.21-1.21H41.485a1.209,1.209,0,0,0-1.21,1.21V33.225a1.209,1.209,0,0,0,1.21,1.21H52.153v2.884H32.224v-4.5a9.351,9.351,0,0,0-5.072-8.3,7.347,7.347,0,1,0-8.548,0,9.351,9.351,0,0,0-5.072,8.3v4.5H7.48a1.209,1.209,0,0,0-1.21,1.21V44.76a1.209,1.209,0,0,0,1.21,1.21H9.617V76.585a1.209,1.209,0,0,0,1.21,1.21H76.794A1.209,1.209,0,0,0,78,76.585V45.97h2.137a1.209,1.209,0,0,0,1.21-1.21V38.529A1.229,1.229,0,0,0,80.124,37.319ZM42.7,32.014V14.849H71.645V32.014H62.186V28.959a1.209,1.209,0,0,0-1.21-1.21H53.363a1.209,1.209,0,0,0-1.21,1.21v3.055Zm17.071,0H54.573V30.169h5.193Zm-5.193,2.42h5.193v2.884H54.573ZM17.96,18.557a4.926,4.926,0,1,1,4.926,4.926A4.932,4.932,0,0,1,17.96,18.557Zm-2,14.264a6.918,6.918,0,1,1,13.835,0v4.5H15.96ZM75.575,75.374H12.029V45.97H75.567v29.4Zm3.339-31.833H8.69v-3.8H78.923v3.8Z" fill="#009bde"/>
      </g>
    </g>
    <g id="Group_2039" data-name="Group 2039">
      <g id="Rectangle_174" data-name="Rectangle 174" transform="translate(11672 7333)" fill="#fff" stroke="#9acaeb" stroke-width="4">
        <rect width="447" height="476" rx="33" stroke="none"/>
        <rect x="2" y="2" width="443" height="472" rx="31" fill="none"/>
      </g>
      <text id="Terminal_B" data-name="Terminal B" transform="translate(11735 7376)" fill="#9acaeb" font-size="40" font-family="Montserrat-Bold, Montserrat" font-weight="700"><tspan x="-112" y="39">Terminal B</tspan></text>
      <text id="Front_line_Tower-2" data-name="Front line &amp; Tower" transform="translate(11724 7538)" fill="#002e6d" font-size="25" font-family="Montserrat-Medium, Montserrat" font-weight="500"><tspan x="-60" y="24">Front line </tspan><tspan x="-50" y="54">&amp; Tower</tspan></text>
      <text id="Customs-2" data-name="Customs" transform="translate(11924 7538)" fill="#002e6d" font-size="25" font-family="Montserrat-Medium, Montserrat" font-weight="500"><tspan x="-55" y="24">Customs</tspan></text>
      <text id="Gate-2" data-name="Gate" transform="translate(11724 7714)" fill="#002e6d" font-size="25" font-family="Montserrat-Medium, Montserrat" font-weight="500"><tspan x="-29" y="24">Gate</tspan></text>
      <text id="Cashier-2" data-name="Cashier" transform="translate(11924 7714)" fill="#002e6d" font-size="25" font-family="Montserrat-Medium, Montserrat" font-weight="500"><tspan x="-47" y="24">Cashier</tspan></text>
      <g id="noun-truck-1938610-2" data-name="noun-truck-1938610" transform="translate(11746.313 7633.11)">
        <g id="Group_60-2" data-name="Group 60" transform="translate(2 11)">
          <path id="Path_341-2" data-name="Path 341" d="M94.395,40.9l-7.159-2.864-2.864-7.159a1.556,1.556,0,0,0-1.447-.98H72.031a1.556,1.556,0,0,0-1.556,1.556V47.012H67.362V20.556A1.556,1.556,0,0,0,65.806,19H3.556A1.556,1.556,0,0,0,2,20.556V48.569a1.556,1.556,0,0,0,1.556,1.556H5.984a6.085,6.085,0,0,0-.872,3.112A6.225,6.225,0,0,0,16.691,56.35h4.855a6.225,6.225,0,0,0,11.578-3.113,6.085,6.085,0,0,0-.871-3.112H54.228a6.085,6.085,0,0,0-.872,3.112A6.225,6.225,0,0,0,64.935,56.35h11.08a6.225,6.225,0,0,0,10.707,0h7.1a1.556,1.556,0,0,0,1.556-1.556V42.344A1.556,1.556,0,0,0,94.395,40.9ZM5.113,22.112H64.25v24.9H5.113ZM11.337,56.35a3.112,3.112,0,1,1,3.113-3.113A3.113,3.113,0,0,1,11.337,56.35Zm6.225-3.113a6.085,6.085,0,0,0-.872-3.112h4.856a6.085,6.085,0,0,0-.871,3.112Zm12.45,0A3.113,3.113,0,1,1,26.9,50.125,3.113,3.113,0,0,1,30.013,53.237ZM59.581,56.35a3.112,3.112,0,1,1,3.112-3.113A3.113,3.113,0,0,1,59.581,56.35Zm5.353-6.225h5.54v3.112H65.806A6.085,6.085,0,0,0,64.935,50.125ZM81.369,56.35a3.112,3.112,0,1,1,3.113-3.113A3.112,3.112,0,0,1,81.369,56.35Zm10.894-3.113H87.594a6.225,6.225,0,0,0-12.45,0H73.587V33.006h8.279l2.723,6.8a1.556,1.556,0,0,0,.872.872l6.8,2.723Z" transform="translate(-2 -6.55)" fill="#9acaeb"/>
          <rect id="Rectangle_160-2" data-name="Rectangle 160" width="3" height="18" transform="translate(6 18.89)" fill="#9acaeb"/>
          <rect id="Rectangle_161-2" data-name="Rectangle 161" width="4" height="18" transform="translate(12 18.89)" fill="#9acaeb"/>
          <rect id="Rectangle_162-2" data-name="Rectangle 162" width="3" height="18" transform="translate(19 18.89)" fill="#9acaeb"/>
          <rect id="Rectangle_163-2" data-name="Rectangle 163" width="3" height="18" transform="translate(25 18.89)" fill="#9acaeb"/>
          <rect id="Rectangle_164-2" data-name="Rectangle 164" width="3" height="18" transform="translate(31 18.89)" fill="#9acaeb"/>
          <rect id="Rectangle_165-2" data-name="Rectangle 165" width="3" height="18" transform="translate(37 18.89)" fill="#9acaeb"/>
          <rect id="Rectangle_166-2" data-name="Rectangle 166" width="3" height="18" transform="translate(44 18.89)" fill="#9acaeb"/>
          <rect id="Rectangle_167-2" data-name="Rectangle 167" width="3" height="18" transform="translate(50 18.89)" fill="#9acaeb"/>
          <rect id="Rectangle_168-2" data-name="Rectangle 168" width="3" height="18" transform="translate(56 18.89)" fill="#9acaeb"/>
          <rect id="Rectangle_169-2" data-name="Rectangle 169" width="5" height="3" transform="translate(0 -0.11)" fill="#9acaeb"/>
          <rect id="Rectangle_170-2" data-name="Rectangle 170" width="14" height="3" transform="translate(8 -0.11)" fill="#9acaeb"/>
          <rect id="Rectangle_171-2" data-name="Rectangle 171" width="24" height="3" transform="translate(12 5.89)" fill="#9acaeb"/>
        </g>
      </g>
      <line id="Line_18" data-name="Line 18" y2="38" transform="translate(11895.5 7295.5)" fill="none" stroke="#9acaeb" stroke-width="5"/>
      <g id="noun-mobile-phone-4791618-2" data-name="noun-mobile-phone-4791618" transform="translate(11746 8122.8)">
        <path id="Path_342-2" data-name="Path 342" d="M29.889,2.2H6.422A4.223,4.223,0,0,0,2.2,6.422V59.185A4.222,4.222,0,0,0,6.422,63.4H29.889a4.228,4.228,0,0,0,4.222-4.222V6.422A4.232,4.232,0,0,0,29.889,2.2ZM4.112,10.556H32.192V55.044H4.112Zm2.31-6.444H29.889a2.308,2.308,0,0,1,2.3,2.31V8.644H4.112V6.422A2.309,2.309,0,0,1,6.422,4.112ZM29.889,61.489H6.422a2.314,2.314,0,0,1-2.31-2.31V56.956H32.192v2.222A2.308,2.308,0,0,1,29.889,61.489ZM63.4,32.8a42.286,42.286,0,0,1-4.83,19.623.953.953,0,1,1-1.689-.885,40.36,40.36,0,0,0,0-37.477.955.955,0,1,1,1.689-.892A42.333,42.333,0,0,1,63.4,32.8Zm-6.606,0a35.67,35.67,0,0,1-3.952,16.313.957.957,0,0,1-.851.52.938.938,0,0,1-.439-.108.96.96,0,0,1-.412-1.29,33.757,33.757,0,0,0,0-30.87.958.958,0,0,1,1.7-.878A35.209,35.209,0,0,1,56.794,32.8ZM47.121,19.81a29.044,29.044,0,0,1,0,25.98.956.956,0,1,1-1.709-.858,27.127,27.127,0,0,0,0-24.264.956.956,0,1,1,1.709-.858Zm-5.728,3.323a22.441,22.441,0,0,1,0,19.333.949.949,0,0,1-.865.54.9.9,0,0,1-.412-.095.96.96,0,0,1-.453-1.277,20.536,20.536,0,0,0,0-17.678.954.954,0,0,1,.453-1.277A.966.966,0,0,1,41.393,23.134Z" transform="translate(23 -661.6)" fill="#9acaeb" stroke="#9acaeb" stroke-width="1"/>
      </g>
      <g id="noun-customs-6433069-2" data-name="noun-customs-6433069" transform="translate(11958.65 7461.899)">
        <path id="Path_343-2" data-name="Path 343" d="M18.63,18.74l-2.006,3.011a1.161,1.161,0,0,0,.648,1.76l1.479.423v.2H17.01a4.063,4.063,0,1,0,0,8.126h1.741a15.094,15.094,0,0,0,8.126,13.217v3.9l-7.283,2.08a1.162,1.162,0,0,0-.745,1.583c-1.033.234-2.38.546-3.819.894a.371.371,0,0,0-.049.012l-.033.007c-1.528.371-3.155.782-4.611,1.186l-.044.012c-.613.169-1.193.339-1.723.5A8.6,8.6,0,0,0,2.5,63.871v3.793a1.161,1.161,0,0,0,1.161,1.161H64.022a1.161,1.161,0,0,0,1.161-1.161V63.871a8.6,8.6,0,0,0-6.071-8.218c-.529-.163-1.11-.332-1.723-.5l-.044-.012c-1.456-.4-3.081-.815-4.611-1.186l-.033-.007a.37.37,0,0,0-.049-.012c-1.439-.348-2.786-.659-3.819-.894a1.162,1.162,0,0,0-.745-1.583l-7.283-2.08v-3.9a15.094,15.094,0,0,0,8.126-13.217h1.741A4.064,4.064,0,0,0,54.735,28.2l-1.161,1.161L54.735,28.2a4.064,4.064,0,0,0-4.063-4.063H48.931v-.2l1.479-.423a1.161,1.161,0,0,0,.648-1.76L49.052,18.74l2.14-6.426a1.158,1.158,0,0,0-.525-1.374L34.417,1.653a1.158,1.158,0,0,0-1.152,0L17.014,10.94a1.158,1.158,0,0,0-.525,1.374l2.14,6.426ZM39.248,61.573l-.063.051-.065.046-.063.039-.065.035-.067.028-.067.026-.07.023-.072.016-.072.012-.072.009-.072,0h-.067l-.084-.007-.079-.012-.077-.019-.072-.021-.067-.026-.06-.026-.074-.037-.06-.035-.065-.046-.06-.046-.049-.044-.035-.035-.026-.026-.035-.042a.07.07,0,0,1-.012-.016L35,58.2v8.3H62.861V63.871a6.275,6.275,0,0,0-4.432-6c-.176-.056-.362-.109-.55-.165l-.859,3.287a1.162,1.162,0,0,1-1.124.866H51.253a1.16,1.16,0,0,1-1.138-1.4l.936-4.529c-1.892-.448-3.508-.808-4.251-.97l-7.552,6.607ZM20.882,54.966c-.743.163-2.359.522-4.251.97l.936,4.529a1.16,1.16,0,0,1-1.138,1.4H11.786a1.162,1.162,0,0,1-1.124-.866L9.8,57.708c-.19.056-.374.109-.55.165a6.275,6.275,0,0,0-4.432,6V66.5H32.68V58.2L30.1,61.424l-.042.051-.046.049-.049.044-.056.046-.058.044-.067.042-.072.039-.072.033-.074.028-.079.023-.077.019-.081.012-.081.007h-.081l-.081,0-.079-.012-.079-.016-.077-.021-.077-.026-.077-.033-.074-.039-.067-.042-.067-.046-.056-.049-7.552-6.607ZM12.044,57.1l2.333-.6L15,59.539H12.682l-.638-2.44Zm43.595,0L55,59.539H52.679l.627-3.041,2.333.6ZM39.9,51.535,38.438,52.7l-2.965,2.373,3.16,3.951L45.4,53.1Zm-7.694,3.543-4.43-3.543L22.28,53.1l6.77,5.925Zm1.632-1.667L38.484,49.7V46.471a14.954,14.954,0,0,1-4.594.71h-.1a14.954,14.954,0,0,1-4.594-.71V49.7l4.643,3.715ZM46.61,25.3v-.7L34.159,28.154l-.058.014-.049.012-.07.009-.077.007-.065,0-.07,0-.072-.007-.07-.009-.067-.016-.039-.009L21.073,24.6v7.494A12.769,12.769,0,0,0,33.841,44.86h0A12.769,12.769,0,0,0,46.61,32.091V25.3ZM15.269,28.2a1.742,1.742,0,0,1,1.741-1.741h1.741v3.482H17.01A1.742,1.742,0,0,1,15.269,28.2Zm33.663-1.741h1.741A1.742,1.742,0,0,1,52.414,28.2l1.161,1.161L52.414,28.2a1.742,1.742,0,0,1-1.741,1.741H48.931ZM12.947,28.2Zm2.322,0Zm31.88-8.126,1.1,1.641-14.4,4.116-14.4-4.116c.183-.272.364-.546.548-.82l.548-.822H47.149Zm-.214-2.322H20.748l-1.755-5.268L33.841,4,48.69,12.483Z" transform="translate(2.509)" fill="#9acaeb" fill-rule="evenodd"/>
      </g>
      <g id="noun-cashier-6259861-2" data-name="noun-cashier-6259861" transform="translate(11951.189 7625.978)">
        <path id="Path_344-2" data-name="Path 344" d="M80.124,37.319H62.186V34.435H72.855a1.209,1.209,0,0,0,1.21-1.21V13.63a1.209,1.209,0,0,0-1.21-1.21H41.485a1.209,1.209,0,0,0-1.21,1.21V33.225a1.209,1.209,0,0,0,1.21,1.21H52.153v2.884H32.224v-4.5a9.351,9.351,0,0,0-5.072-8.3,7.347,7.347,0,1,0-8.548,0,9.351,9.351,0,0,0-5.072,8.3v4.5H7.48a1.209,1.209,0,0,0-1.21,1.21V44.76a1.209,1.209,0,0,0,1.21,1.21H9.617V76.585a1.209,1.209,0,0,0,1.21,1.21H76.794A1.209,1.209,0,0,0,78,76.585V45.97h2.137a1.209,1.209,0,0,0,1.21-1.21V38.529A1.229,1.229,0,0,0,80.124,37.319ZM42.7,32.014V14.849H71.645V32.014H62.186V28.959a1.209,1.209,0,0,0-1.21-1.21H53.363a1.209,1.209,0,0,0-1.21,1.21v3.055Zm17.071,0H54.573V30.169h5.193Zm-5.193,2.42h5.193v2.884H54.573ZM17.96,18.557a4.926,4.926,0,1,1,4.926,4.926A4.932,4.932,0,0,1,17.96,18.557Zm-2,14.264a6.918,6.918,0,1,1,13.835,0v4.5H15.96ZM75.575,75.374H12.029V45.97H75.567v29.4Zm3.339-31.833H8.69v-3.8H78.923v3.8Z" fill="#9acaeb"/>
      </g>
    </g>
    <g id="Group_2040" data-name="Group 2040">
      <g id="Rectangle_175" data-name="Rectangle 175" transform="translate(12146 7333)" fill="#fff" stroke="#54bbab" stroke-width="4">
        <rect width="447" height="476" rx="33" stroke="none"/>
        <rect x="2" y="2" width="443" height="472" rx="31" fill="none"/>
      </g>
      <text id="Terminal_C" data-name="Terminal C" transform="translate(12209 7376)" fill="#54bbab" font-size="40" font-family="Montserrat-Bold, Montserrat" font-weight="700"><tspan x="-111" y="39">Terminal C</tspan></text>
      <text id="Front_line_Tower-3" data-name="Front line &amp; Tower" transform="translate(12198 7538)" fill="#002e6d" font-size="25" font-family="Montserrat-Medium, Montserrat" font-weight="500"><tspan x="-60" y="24">Front line </tspan><tspan x="-50" y="54">&amp; Tower</tspan></text>
      <text id="Customs-3" data-name="Customs" transform="translate(12398 7538)" fill="#002e6d" font-size="25" font-family="Montserrat-Medium, Montserrat" font-weight="500"><tspan x="-55" y="24">Customs</tspan></text>
      <text id="Gate-3" data-name="Gate" transform="translate(12198 7714)" fill="#002e6d" font-size="25" font-family="Montserrat-Medium, Montserrat" font-weight="500"><tspan x="-29" y="24">Gate</tspan></text>
      <text id="Cashier-3" data-name="Cashier" transform="translate(12398 7714)" fill="#002e6d" font-size="25" font-family="Montserrat-Medium, Montserrat" font-weight="500"><tspan x="-47" y="24">Cashier</tspan></text>
      <g id="noun-truck-1938610-3" data-name="noun-truck-1938610" transform="translate(12220.313 7633.11)">
        <g id="Group_60-3" data-name="Group 60" transform="translate(2 11)">
          <path id="Path_341-3" data-name="Path 341" d="M94.395,40.9l-7.159-2.864-2.864-7.159a1.556,1.556,0,0,0-1.447-.98H72.031a1.556,1.556,0,0,0-1.556,1.556V47.012H67.362V20.556A1.556,1.556,0,0,0,65.806,19H3.556A1.556,1.556,0,0,0,2,20.556V48.569a1.556,1.556,0,0,0,1.556,1.556H5.984a6.085,6.085,0,0,0-.872,3.112A6.225,6.225,0,0,0,16.691,56.35h4.855a6.225,6.225,0,0,0,11.578-3.113,6.085,6.085,0,0,0-.871-3.112H54.228a6.085,6.085,0,0,0-.872,3.112A6.225,6.225,0,0,0,64.935,56.35h11.08a6.225,6.225,0,0,0,10.707,0h7.1a1.556,1.556,0,0,0,1.556-1.556V42.344A1.556,1.556,0,0,0,94.395,40.9ZM5.113,22.112H64.25v24.9H5.113ZM11.337,56.35a3.112,3.112,0,1,1,3.113-3.113A3.113,3.113,0,0,1,11.337,56.35Zm6.225-3.113a6.085,6.085,0,0,0-.872-3.112h4.856a6.085,6.085,0,0,0-.871,3.112Zm12.45,0A3.113,3.113,0,1,1,26.9,50.125,3.113,3.113,0,0,1,30.013,53.237ZM59.581,56.35a3.112,3.112,0,1,1,3.112-3.113A3.113,3.113,0,0,1,59.581,56.35Zm5.353-6.225h5.54v3.112H65.806A6.085,6.085,0,0,0,64.935,50.125ZM81.369,56.35a3.112,3.112,0,1,1,3.113-3.113A3.112,3.112,0,0,1,81.369,56.35Zm10.894-3.113H87.594a6.225,6.225,0,0,0-12.45,0H73.587V33.006h8.279l2.723,6.8a1.556,1.556,0,0,0,.872.872l6.8,2.723Z" transform="translate(-2 -6.55)" fill="#54bbab"/>
          <rect id="Rectangle_160-3" data-name="Rectangle 160" width="3" height="18" transform="translate(6 18.89)" fill="#54bbab"/>
          <rect id="Rectangle_161-3" data-name="Rectangle 161" width="4" height="18" transform="translate(12 18.89)" fill="#54bbab"/>
          <rect id="Rectangle_162-3" data-name="Rectangle 162" width="3" height="18" transform="translate(19 18.89)" fill="#54bbab"/>
          <rect id="Rectangle_163-3" data-name="Rectangle 163" width="3" height="18" transform="translate(25 18.89)" fill="#54bbab"/>
          <rect id="Rectangle_164-3" data-name="Rectangle 164" width="3" height="18" transform="translate(31 18.89)" fill="#54bbab"/>
          <rect id="Rectangle_165-3" data-name="Rectangle 165" width="3" height="18" transform="translate(37 18.89)" fill="#54bbab"/>
          <rect id="Rectangle_166-3" data-name="Rectangle 166" width="3" height="18" transform="translate(44 18.89)" fill="#54bbab"/>
          <rect id="Rectangle_167-3" data-name="Rectangle 167" width="3" height="18" transform="translate(50 18.89)" fill="#54bbab"/>
          <rect id="Rectangle_168-3" data-name="Rectangle 168" width="3" height="18" transform="translate(56 18.89)" fill="#54bbab"/>
          <rect id="Rectangle_169-3" data-name="Rectangle 169" width="5" height="3" transform="translate(0 -0.11)" fill="#54bbab"/>
          <rect id="Rectangle_170-3" data-name="Rectangle 170" width="14" height="3" transform="translate(8 -0.11)" fill="#54bbab"/>
          <rect id="Rectangle_171-3" data-name="Rectangle 171" width="24" height="3" transform="translate(12 5.89)" fill="#54bbab"/>
        </g>
      </g>
      <line id="Line_19" data-name="Line 19" y2="38" transform="translate(12369.5 7295.5)" fill="none" stroke="#54bbab" stroke-width="5"/>
      <g id="noun-mobile-phone-4791618-3" data-name="noun-mobile-phone-4791618" transform="translate(12220 8122.8)">
        <path id="Path_342-3" data-name="Path 342" d="M29.889,2.2H6.422A4.223,4.223,0,0,0,2.2,6.422V59.185A4.222,4.222,0,0,0,6.422,63.4H29.889a4.228,4.228,0,0,0,4.222-4.222V6.422A4.232,4.232,0,0,0,29.889,2.2ZM4.112,10.556H32.192V55.044H4.112Zm2.31-6.444H29.889a2.308,2.308,0,0,1,2.3,2.31V8.644H4.112V6.422A2.309,2.309,0,0,1,6.422,4.112ZM29.889,61.489H6.422a2.314,2.314,0,0,1-2.31-2.31V56.956H32.192v2.222A2.308,2.308,0,0,1,29.889,61.489ZM63.4,32.8a42.286,42.286,0,0,1-4.83,19.623.953.953,0,1,1-1.689-.885,40.36,40.36,0,0,0,0-37.477.955.955,0,1,1,1.689-.892A42.333,42.333,0,0,1,63.4,32.8Zm-6.606,0a35.67,35.67,0,0,1-3.952,16.313.957.957,0,0,1-.851.52.938.938,0,0,1-.439-.108.96.96,0,0,1-.412-1.29,33.757,33.757,0,0,0,0-30.87.958.958,0,0,1,1.7-.878A35.209,35.209,0,0,1,56.794,32.8ZM47.121,19.81a29.044,29.044,0,0,1,0,25.98.956.956,0,1,1-1.709-.858,27.127,27.127,0,0,0,0-24.264.956.956,0,1,1,1.709-.858Zm-5.728,3.323a22.441,22.441,0,0,1,0,19.333.949.949,0,0,1-.865.54.9.9,0,0,1-.412-.095.96.96,0,0,1-.453-1.277,20.536,20.536,0,0,0,0-17.678.954.954,0,0,1,.453-1.277A.966.966,0,0,1,41.393,23.134Z" transform="translate(23 -661.6)" fill="#54bbab" stroke="#54bbab" stroke-width="1"/>
      </g>
      <g id="noun-customs-6433069-3" data-name="noun-customs-6433069" transform="translate(12432.65 7461.899)">
        <path id="Path_343-3" data-name="Path 343" d="M18.63,18.74l-2.006,3.011a1.161,1.161,0,0,0,.648,1.76l1.479.423v.2H17.01a4.063,4.063,0,1,0,0,8.126h1.741a15.094,15.094,0,0,0,8.126,13.217v3.9l-7.283,2.08a1.162,1.162,0,0,0-.745,1.583c-1.033.234-2.38.546-3.819.894a.371.371,0,0,0-.049.012l-.033.007c-1.528.371-3.155.782-4.611,1.186l-.044.012c-.613.169-1.193.339-1.723.5A8.6,8.6,0,0,0,2.5,63.871v3.793a1.161,1.161,0,0,0,1.161,1.161H64.022a1.161,1.161,0,0,0,1.161-1.161V63.871a8.6,8.6,0,0,0-6.071-8.218c-.529-.163-1.11-.332-1.723-.5l-.044-.012c-1.456-.4-3.081-.815-4.611-1.186l-.033-.007a.37.37,0,0,0-.049-.012c-1.439-.348-2.786-.659-3.819-.894a1.162,1.162,0,0,0-.745-1.583l-7.283-2.08v-3.9a15.094,15.094,0,0,0,8.126-13.217h1.741A4.064,4.064,0,0,0,54.735,28.2l-1.161,1.161L54.735,28.2a4.064,4.064,0,0,0-4.063-4.063H48.931v-.2l1.479-.423a1.161,1.161,0,0,0,.648-1.76L49.052,18.74l2.14-6.426a1.158,1.158,0,0,0-.525-1.374L34.417,1.653a1.158,1.158,0,0,0-1.152,0L17.014,10.94a1.158,1.158,0,0,0-.525,1.374l2.14,6.426ZM39.248,61.573l-.063.051-.065.046-.063.039-.065.035-.067.028-.067.026-.07.023-.072.016-.072.012-.072.009-.072,0h-.067l-.084-.007-.079-.012-.077-.019-.072-.021-.067-.026-.06-.026-.074-.037-.06-.035-.065-.046-.06-.046-.049-.044-.035-.035-.026-.026-.035-.042a.07.07,0,0,1-.012-.016L35,58.2v8.3H62.861V63.871a6.275,6.275,0,0,0-4.432-6c-.176-.056-.362-.109-.55-.165l-.859,3.287a1.162,1.162,0,0,1-1.124.866H51.253a1.16,1.16,0,0,1-1.138-1.4l.936-4.529c-1.892-.448-3.508-.808-4.251-.97l-7.552,6.607ZM20.882,54.966c-.743.163-2.359.522-4.251.97l.936,4.529a1.16,1.16,0,0,1-1.138,1.4H11.786a1.162,1.162,0,0,1-1.124-.866L9.8,57.708c-.19.056-.374.109-.55.165a6.275,6.275,0,0,0-4.432,6V66.5H32.68V58.2L30.1,61.424l-.042.051-.046.049-.049.044-.056.046-.058.044-.067.042-.072.039-.072.033-.074.028-.079.023-.077.019-.081.012-.081.007h-.081l-.081,0-.079-.012-.079-.016-.077-.021-.077-.026-.077-.033-.074-.039-.067-.042-.067-.046-.056-.049-7.552-6.607ZM12.044,57.1l2.333-.6L15,59.539H12.682l-.638-2.44Zm43.595,0L55,59.539H52.679l.627-3.041,2.333.6ZM39.9,51.535,38.438,52.7l-2.965,2.373,3.16,3.951L45.4,53.1Zm-7.694,3.543-4.43-3.543L22.28,53.1l6.77,5.925Zm1.632-1.667L38.484,49.7V46.471a14.954,14.954,0,0,1-4.594.71h-.1a14.954,14.954,0,0,1-4.594-.71V49.7l4.643,3.715ZM46.61,25.3v-.7L34.159,28.154l-.058.014-.049.012-.07.009-.077.007-.065,0-.07,0-.072-.007-.07-.009-.067-.016-.039-.009L21.073,24.6v7.494A12.769,12.769,0,0,0,33.841,44.86h0A12.769,12.769,0,0,0,46.61,32.091V25.3ZM15.269,28.2a1.742,1.742,0,0,1,1.741-1.741h1.741v3.482H17.01A1.742,1.742,0,0,1,15.269,28.2Zm33.663-1.741h1.741A1.742,1.742,0,0,1,52.414,28.2l1.161,1.161L52.414,28.2a1.742,1.742,0,0,1-1.741,1.741H48.931ZM12.947,28.2Zm2.322,0Zm31.88-8.126,1.1,1.641-14.4,4.116-14.4-4.116c.183-.272.364-.546.548-.82l.548-.822H47.149Zm-.214-2.322H20.748l-1.755-5.268L33.841,4,48.69,12.483Z" transform="translate(2.509)" fill="#54bbab" fill-rule="evenodd"/>
      </g>
      <g id="noun-cashier-6259861-3" data-name="noun-cashier-6259861" transform="translate(12425.189 7625.978)">
        <path id="Path_344-3" data-name="Path 344" d="M80.124,37.319H62.186V34.435H72.855a1.209,1.209,0,0,0,1.21-1.21V13.63a1.209,1.209,0,0,0-1.21-1.21H41.485a1.209,1.209,0,0,0-1.21,1.21V33.225a1.209,1.209,0,0,0,1.21,1.21H52.153v2.884H32.224v-4.5a9.351,9.351,0,0,0-5.072-8.3,7.347,7.347,0,1,0-8.548,0,9.351,9.351,0,0,0-5.072,8.3v4.5H7.48a1.209,1.209,0,0,0-1.21,1.21V44.76a1.209,1.209,0,0,0,1.21,1.21H9.617V76.585a1.209,1.209,0,0,0,1.21,1.21H76.794A1.209,1.209,0,0,0,78,76.585V45.97h2.137a1.209,1.209,0,0,0,1.21-1.21V38.529A1.229,1.229,0,0,0,80.124,37.319ZM42.7,32.014V14.849H71.645V32.014H62.186V28.959a1.209,1.209,0,0,0-1.21-1.21H53.363a1.209,1.209,0,0,0-1.21,1.21v3.055Zm17.071,0H54.573V30.169h5.193Zm-5.193,2.42h5.193v2.884H54.573ZM17.96,18.557a4.926,4.926,0,1,1,4.926,4.926A4.932,4.932,0,0,1,17.96,18.557Zm-2,14.264a6.918,6.918,0,1,1,13.835,0v4.5H15.96ZM75.575,75.374H12.029V45.97H75.567v29.4Zm3.339-31.833H8.69v-3.8H78.923v3.8Z" fill="#54bbab"/>
      </g>
    </g>
    <g id="Group_2037" data-name="Group 2037">
      <g id="Rectangle_173" data-name="Rectangle 173" transform="translate(11198 6819)" fill="#fff" stroke="#002e6d" stroke-width="4">
        <rect width="1395" height="476" rx="33" stroke="none"/>
        <rect x="2" y="2" width="1391" height="472" rx="31" fill="none"/>
      </g>
      <text id="Regional_Operations_Centre" data-name="Regional Operations Centre" transform="translate(11436 7150)" fill="#002e6d" font-size="40" font-family="Montserrat-Bold, Montserrat" font-weight="700"><tspan x="-290" y="39">Regional Operations Centre</tspan></text>
      <text id="Centralized_Planning_Control_Functions" data-name="Centralized Planning &amp; Control Functions" transform="translate(11436 7216)" fill="#002e6d" font-size="35" font-family="Montserrat-Medium, Montserrat" font-weight="500"><tspan x="-366" y="34">Centralized Planning &amp; Control Functions</tspan></text>
      <text id="System_Administration" data-name="System 
Administration" transform="translate(11287 7033)" fill="#002e6d" font-size="25" font-family="Montserrat-Medium, Montserrat" font-weight="500"><tspan x="-46" y="24">System </tspan><tspan x="-95" y="54">Administration</tspan></text>
      <text id="Control_Centre" data-name="Control
Centre" transform="translate(11594 7033)" fill="#002e6d" font-size="25" font-family="Montserrat-Medium, Montserrat" font-weight="500"><tspan x="-46" y="24">Control</tspan><tspan x="-42" y="54">Centre</tspan></text>
      <text id="Yard_Planning" data-name="Yard 
Planning" transform="translate(11830.755 7033)" fill="#002e6d" font-size="25" font-family="Montserrat-Medium, Montserrat" font-weight="500"><tspan x="-28" y="24">Yard </tspan><tspan x="-57" y="54">Planning</tspan></text>
      <text id="Berth_Ship_Planning" data-name="Berth &amp; Ship
Planning" transform="translate(12058 7033)" fill="#002e6d" font-size="25" font-family="Montserrat-Medium, Montserrat" font-weight="500"><tspan x="-79" y="24">Berth &amp; Ship</tspan><tspan x="-57" y="54">Planning</tspan></text>
      <text id="Data_Center" data-name="Data 
Center" transform="translate(12310 7033)" fill="#002e6d" font-size="25" font-family="Montserrat-Medium, Montserrat" font-weight="500"><tspan x="-30" y="24">Data </tspan><tspan x="-42" y="54">Center</tspan></text>
      <g id="noun-administration-6280975" transform="translate(11352.894 6894.528)">
        <path id="Path_345" data-name="Path 345" d="M56.471,41.581a2.158,2.158,0,0,0-1.813-.985c-.09,0-.157-.045-.224-.045H45.39a10.9,10.9,0,1,0-.627,0H35.72a1.673,1.673,0,0,1-.246.045,2.262,2.262,0,0,0-.381.067,1.974,1.974,0,0,0-.448.2,1.347,1.347,0,0,0-.291.2,2.883,2.883,0,0,0-.358.381c-.045.067-.112.09-.157.157L22.288,59.781a5.779,5.779,0,0,0,1.477,7.768A5.763,5.763,0,0,0,31.6,66.542l1.075-1.3-.112,3.224h0v.067a2.869,2.869,0,0,0,.112.6.4.4,0,0,0,.045.224,2.609,2.609,0,0,0,.381.627.489.489,0,0,0,.067.112h0a2.175,2.175,0,0,0,1.612.672h20.64a2.216,2.216,0,0,0,2.06-1.433.381.381,0,0,1,.022-.157,2.1,2.1,0,0,0,.134-.649v-.067h0l-.134-3.4,1.231,1.5A5.764,5.764,0,0,0,68.045,59.8L56.494,41.626ZM38.63,29.672A6.425,6.425,0,1,1,45.055,36.1a6.439,6.439,0,0,1-6.425-6.425Zm-10.521,34a1.286,1.286,0,0,1-2.082-1.5l7.119-11.215L32.9,57.856l-4.791,5.82Zm8.977,2.6.784-21.267H52.285l.784,21.267H37.108ZM63.926,63.9a1.288,1.288,0,0,1-1.746-.224l-4.947-6.022-.246-6.962,7.3,11.462a1.27,1.27,0,0,1-.336,1.724Z" transform="translate(14.44 11.209)" fill="#002e6d"/>
        <path id="Path_346" data-name="Path 346" d="M107.244,50.239h-10.9a37.292,37.292,0,0,0-4.164-10.007L99.9,32.509a2.229,2.229,0,0,0,0-3.156L89.85,19.3a2.229,2.229,0,0,0-3.156,0L78.97,27.024a37.292,37.292,0,0,0-10.007-4.164v-10.9A2.245,2.245,0,0,0,66.725,9.72H52.487a2.245,2.245,0,0,0-2.239,2.239v10.9a37.292,37.292,0,0,0-10.007,4.164L32.519,19.3a2.229,2.229,0,0,0-3.156,0L19.311,29.353a2.229,2.229,0,0,0,0,3.156l7.723,7.723a37.291,37.291,0,0,0-4.164,10.007h-10.9A2.245,2.245,0,0,0,9.73,52.477V66.715a2.245,2.245,0,0,0,2.239,2.239h10.9A37.292,37.292,0,0,0,27.034,78.96l-7.723,7.723a2.229,2.229,0,0,0,0,3.156L29.363,99.891a2.229,2.229,0,0,0,3.156,0l7.723-7.723a37.291,37.291,0,0,0,10.007,4.164v10.9a2.245,2.245,0,0,0,2.239,2.239H66.725a2.245,2.245,0,0,0,2.239-2.239v-10.9A37.291,37.291,0,0,0,78.97,92.168l7.723,7.723a2.229,2.229,0,0,0,3.156,0L99.9,89.84a2.229,2.229,0,0,0,0-3.156L92.178,78.96a37.292,37.292,0,0,0,4.164-10.007h10.9a2.245,2.245,0,0,0,2.239-2.239V52.477A2.245,2.245,0,0,0,107.244,50.239ZM105,64.476H94.551a2.212,2.212,0,0,0-2.194,1.791,33.376,33.376,0,0,1-4.88,11.775,2.239,2.239,0,0,0,.291,2.821l7.41,7.41-6.895,6.895-7.41-7.41a2.239,2.239,0,0,0-2.821-.291,32.967,32.967,0,0,1-11.775,4.88,2.212,2.212,0,0,0-1.791,2.194v10.454h-9.76V94.541a2.212,2.212,0,0,0-1.791-2.194,33.376,33.376,0,0,1-11.775-4.88,2.239,2.239,0,0,0-2.821.291l-7.41,7.41-6.895-6.895,7.41-7.41a2.239,2.239,0,0,0,.291-2.821,32.967,32.967,0,0,1-4.88-11.775,2.212,2.212,0,0,0-2.194-1.791H14.207v-9.76H24.661a2.212,2.212,0,0,0,2.194-1.791,33.376,33.376,0,0,1,4.88-11.775,2.239,2.239,0,0,0-.291-2.821l-7.41-7.41,6.895-6.895,7.41,7.41a2.239,2.239,0,0,0,2.821.291,32.967,32.967,0,0,1,11.775-4.88,2.212,2.212,0,0,0,1.791-2.194V14.2h9.76V24.651a2.212,2.212,0,0,0,1.791,2.194,33.376,33.376,0,0,1,11.775,4.88,2.239,2.239,0,0,0,2.821-.291l7.41-7.41,6.895,6.895-7.41,7.41a2.239,2.239,0,0,0-.291,2.821,32.967,32.967,0,0,1,4.88,11.775,2.212,2.212,0,0,0,2.194,1.791H105v9.76Z" transform="translate(0 0)" fill="#002e6d"/>
      </g>
      <g id="noun-control-centre-4250418" transform="translate(11622.234 6913.521)">
        <path id="Path_347" data-name="Path 347" d="M87.9,74.024H84.819V6.169A6.169,6.169,0,0,0,78.651,0H13.88A6.169,6.169,0,0,0,7.711,6.169V74.024H4.627A4.627,4.627,0,0,0,0,78.651V87.9A4.627,4.627,0,0,0,4.627,92.53H87.9A4.627,4.627,0,0,0,92.53,87.9V78.651A4.627,4.627,0,0,0,87.9,74.024ZM10.8,6.169A3.084,3.084,0,0,1,13.88,3.084H78.651a3.084,3.084,0,0,1,3.084,3.084V74.024H10.8ZM89.446,87.9A1.542,1.542,0,0,1,87.9,89.446H4.627A1.542,1.542,0,0,1,3.084,87.9V78.651a1.542,1.542,0,0,1,1.542-1.542H87.9a1.542,1.542,0,0,1,1.542,1.542Z" fill="#002e6d"/>
        <path id="Path_348" data-name="Path 348" d="M23.256,33.745v-20.2a1.542,1.542,0,0,0-3.084,0v20.2a7.711,7.711,0,0,0,0,15.113v4.781a1.542,1.542,0,1,0,3.084,0V48.858a7.711,7.711,0,0,0,0-15.113ZM21.714,45.928A4.627,4.627,0,1,1,26.34,41.3,4.627,4.627,0,0,1,21.714,45.928Z" transform="translate(7.588 6.506)" fill="#002e6d"/>
        <path id="Path_349" data-name="Path 349" d="M45.256,29.118V13.542a1.542,1.542,0,1,0-3.084,0V29.118a7.711,7.711,0,0,0,0,15.113v9.407a1.542,1.542,0,1,0,3.084,0V44.231a7.711,7.711,0,0,0,0-15.113ZM43.714,41.3a4.627,4.627,0,1,1,4.627-4.627A4.627,4.627,0,0,1,43.714,41.3Z" transform="translate(19.515 6.506)" fill="#002e6d"/>
        <path id="Path_350" data-name="Path 350" d="M34.256,18.323V13.542a1.542,1.542,0,1,0-3.084,0v4.781a7.711,7.711,0,0,0,0,15.113v20.2a1.542,1.542,0,1,0,3.084,0v-20.2a7.711,7.711,0,0,0,0-15.113ZM32.714,30.506A4.627,4.627,0,1,1,37.34,25.88,4.627,4.627,0,0,1,32.714,30.506Z" transform="translate(13.552 6.506)" fill="#002e6d"/>
      </g>
      <g id="noun-container-3307916" transform="translate(11858.96 6888.248)">
        <path id="Path_351" data-name="Path 351" d="M83.148,291.393V288H56v3.393H67.877v10.18h-5.09a1.7,1.7,0,0,0-1.7,1.7v6.787a1.7,1.7,0,0,0,1.7,1.7h5.09v10.18H56v3.393H83.148v-3.393H71.271v-10.18h5.09a1.7,1.7,0,0,0,1.7-1.7v-6.787a1.7,1.7,0,0,0-1.7-1.7h-5.09v-10.18Zm-8.484,16.967H64.484v-3.393h10.18Z" transform="translate(-44.123 -214.311)" fill="#002e6d"/>
        <path id="Path_352" data-name="Path 352" d="M249.7,288a1.7,1.7,0,0,0-1.7,1.7v33.935a1.7,1.7,0,0,0,1.7,1.7h42.418a1.7,1.7,0,0,0,1.7-1.7V289.7a1.7,1.7,0,0,0-1.7-1.7Zm1.7,3.393h5.09v6.787h3.393v-6.787h5.09v6.787h3.393v-6.787h5.09v6.787h3.393v-6.787h5.09v30.541h-5.09V308.361h-3.393v13.574h-5.09V308.361h-3.393v13.574h-5.09V308.361h-3.393v13.574h-5.09Zm39.025,30.541h-5.09V291.393h5.09Z" transform="translate(-195.401 -214.311)" fill="#002e6d"/>
        <rect id="Rectangle_176" data-name="Rectangle 176" width="8.159" height="4.079" transform="translate(59.558 86.98)" fill="#002e6d"/>
        <rect id="Rectangle_177" data-name="Rectangle 177" width="12.238" height="4.079" transform="translate(70.98 86.98)" fill="#002e6d"/>
        <rect id="Rectangle_178" data-name="Rectangle 178" width="4.895" height="3.263" transform="translate(12.238 80.453)" fill="#002e6d"/>
        <path id="Path_353" data-name="Path 353" d="M116.107,60.115h-6.43L71.293,43.226A6.783,6.783,0,0,0,68.6,31.485v-.215h1.7a1.7,1.7,0,0,0,1.7-1.7V21.09a1.7,1.7,0,0,0-1.7-1.7H68.6V16H65.205v3.393h-1.7a1.7,1.7,0,0,0-1.7,1.7v8.484a1.7,1.7,0,0,0,1.7,1.7h1.7v1.7a1.7,1.7,0,0,0,1.7,1.7,3.393,3.393,0,1,1,0,6.787h0a3.4,3.4,0,0,1-3.392-3.393H60.115a6.773,6.773,0,0,0,2.4,5.169L24.127,60.115H17.7a1.7,1.7,0,0,0-1.7,1.7v54.3a1.7,1.7,0,0,0,1.7,1.7h98.41a1.7,1.7,0,0,0,1.7-1.7v-54.3a1.7,1.7,0,0,0-1.7-1.7Zm-50.9-37.328H68.6v5.09H65.205Zm45.812,40.722h3.393V66.9h-3.393ZM71.992,66.9v-5.09a1.7,1.7,0,0,0-1.7-1.7H68.6V45.748l39.025,17.171V66.9Zm-45.812,0V62.919L65.205,45.748V60.115h-1.7a1.7,1.7,0,0,0-1.7,1.7V66.9Zm39.025-3.393H68.6V66.9H65.205Zm-45.812,0h3.393V66.9H19.393Zm0,6.787H56.722V114.41H19.393ZM114.41,114.41h-54.3V70.3h54.3Z" transform="translate(-12.607)" fill="#002e6d"/>
      </g>
      <g id="noun-container-ship-5802404" transform="translate(12114.324 6910.489)">
        <path id="Path_354" data-name="Path 354" d="M81.149,37.605H78.215V34.184h2.933Zm-3.056,5.2H81.27V39.393H78.094ZM89.444,34.19H86.512v3.421h2.933Zm-3.056,8.616h3.179V39.393H86.388Zm11.8-8.616H95.26v3.421h2.935Zm-3.057,5.2v3.414H98.31V39.393Zm19.348-5.2h-2.933v3.421h2.935Zm.123,8.616V39.393h-3.179v3.414ZM19.228,84.728A6.284,6.284,0,0,0,22,83.859C20.127,75.164,14.423,67.4,5.821,61.908a1.71,1.71,0,0,1,.924-3.153h7.687V51.843a1.71,1.71,0,0,1,1.71-1.71H48.408V47.125a1.71,1.71,0,0,1,1.71-1.71H69.284V28.607a1.71,1.71,0,0,1,1.71-1.71H81.078v-7.4a1.71,1.71,0,0,1,3.421,0v7.4h26.808v-7.4a1.71,1.71,0,1,1,3.421,0v7.4h6.332a1.71,1.71,0,0,1,1.71,1.71V47.125h0V66.555h3.18a1.71,1.71,0,0,1,1.71,1.71V80.421a8.966,8.966,0,0,1,3.95-1.051,1.71,1.71,0,1,1,0,3.414c-1.578,0-3.479,1.226-5.318,2.41-2.254,1.452-12.083,1.452-14.336,0-1.839-1.184-3.74-2.41-5.32-2.41s-3.479,1.226-5.318,2.41c-2.254,1.452-12.083,1.452-14.336,0-1.839-1.184-3.74-2.41-5.319-2.41s-3.479,1.226-5.318,2.41c-2.254,1.452-12.083,1.452-14.336,0-1.839-1.184-3.74-2.41-5.318-2.41s-3.481,1.226-5.319,2.41c-2.254,1.452-12.083,1.452-14.336,0-1.839-1.184-3.74-2.41-5.318-2.41s-3.481,1.226-5.319,2.41c-.513.331-1.032.664-1.555.982l-.019.01c-1.65,1.154-10.509.46-12.763-.992-1.839-1.184-3.74-2.41-5.318-2.41a1.71,1.71,0,1,1,0-3.414c2.583,0,4.913,1.5,7.168,2.953C15.748,83.5,17.65,84.728,19.228,84.728ZM119.359,66.555V59.69H105.035v6.865Zm-49.8-17.722v7.443H83.883V48.833Zm49.8,0H105.035v7.443h14.324Zm-17.737,0H87.3v7.443h14.324Zm-35.476,0H51.823v7.443H66.145ZM51.823,59.808l5.965,6.746h8.357V59.69H51.823Zm17.737,6.746H83.883V59.69H69.561Zm17.737,0h14.324V59.69H87.3Zm32.061-36.242h-12.2V45.422h12.2ZM72.7,45.422H103.74V30.313H72.7Zm-24.29,8.125H34.833v5.205H48.408ZM17.844,58.755H31.419V53.55H17.844Zm7.225,23.234a12.828,12.828,0,0,1,6.647-2.618c2.583,0,4.913,1.5,7.168,2.953,1.839,1.186,3.739,2.41,5.318,2.41s3.481-1.224,5.319-2.41c2.254-1.452,4.584-2.953,7.168-2.953s4.913,1.5,7.168,2.953c1.839,1.186,3.739,2.41,5.318,2.41s3.481-1.224,5.318-2.41c2.255-1.452,4.585-2.953,7.168-2.953s4.915,1.5,7.17,2.953c1.837,1.186,3.739,2.41,5.318,2.41s3.479-1.224,5.318-2.41c2.255-1.452,4.585-2.953,7.168-2.953s4.915,1.5,7.168,2.953c1.839,1.186,3.74,2.41,5.319,2.41,1.522,0,3.345-1.14,5.121-2.281V69.967H57.02a1.71,1.71,0,0,1-1.283-.57l-6.394-7.221H12.018A37.55,37.55,0,0,1,25.069,81.983Z" transform="translate(0 0)" fill="#002e6d"/>
      </g>
      <g id="noun-data-center-6725520" transform="translate(12392.79 6934.452)">
        <g id="Group_61" data-name="Group 61" transform="translate(3.124 3.124)">
          <path id="Path_355" data-name="Path 355" d="M46.632,77.639H51.91a1.32,1.32,0,1,0,0-2.639H46.632a1.32,1.32,0,1,0,0,2.639Z" transform="translate(-9.685 -14.302)" fill="#002e6d"/>
          <path id="Path_356" data-name="Path 356" d="M75.7,12.5H65.564a1.32,1.32,0,1,0,0,2.639H75.7A3.97,3.97,0,0,1,79.657,19.1V60H5.764V19.1a3.97,3.97,0,0,1,3.959-3.959H19.856a1.32,1.32,0,1,0,0-2.639H9.722a6.6,6.6,0,0,0-6.6,6.6V66.6a6.6,6.6,0,0,0,6.6,6.6H75.7a6.6,6.6,0,0,0,6.6-6.6V19.1A6.6,6.6,0,0,0,75.7,12.5Zm3.959,54.1A3.97,3.97,0,0,1,75.7,70.559H9.722A3.97,3.97,0,0,1,5.764,66.6V62.641H79.657Z" transform="translate(-3.124 -4.582)" fill="#002e6d"/>
          <path id="Path_357" data-name="Path 357" d="M59.058,88.224A1.319,1.319,0,0,0,56.7,89.4l1.689,3.365H36.27L37.959,89.4A1.319,1.319,0,0,0,35.6,88.224L32.958,93.5a1.3,1.3,0,0,0,.053,1.28,1.318,1.318,0,0,0,1.122.62h26.39a1.318,1.318,0,0,0,1.122-.62A1.3,1.3,0,0,0,61.7,93.5Z" transform="translate(-7.741 -16.243)" fill="#002e6d"/>
          <path id="Path_358" data-name="Path 358" d="M51.076,40.382a1.32,1.32,0,0,1-2.639,0,1.32,1.32,0,0,1,2.639,0" transform="translate(-10.171 -8.713)" fill="#002e6d"/>
          <path id="Path_359" data-name="Path 359" d="M51.076,24.757a1.32,1.32,0,0,1-2.639,0,1.32,1.32,0,0,1,2.639,0" transform="translate(-10.171 -6.283)" fill="#002e6d"/>
          <path id="Path_360" data-name="Path 360" d="M41.9,49.308H29.539a3.959,3.959,0,1,0,0,2.639H41.9a3.943,3.943,0,0,0,7.442,0H61.709a3.959,3.959,0,1,0,0-2.639H49.345a3.971,3.971,0,0,0-2.4-2.4V42.684c8.735-.211,17.153-2.454,17.153-6.571V9.722c0-4.328-9.289-6.6-18.473-6.6S27.15,5.394,27.15,9.722v26.39c0,4.13,8.419,6.373,17.153,6.571v4.222a3.971,3.971,0,0,0-2.4,2.4ZM25.832,51.947a1.32,1.32,0,1,1,1.32-1.32A1.323,1.323,0,0,1,25.832,51.947Zm19.793,0a1.32,1.32,0,1,1,1.32-1.32A1.323,1.323,0,0,1,45.625,51.947Zm19.793-2.639a1.32,1.32,0,1,1-1.32,1.32A1.323,1.323,0,0,1,65.418,49.308ZM29.791,13.285c3.4,2.006,9.646,3.035,15.834,3.035s12.43-1.029,15.834-3.035v9.632c0,1.4-6.017,3.959-15.834,3.959s-15.834-2.56-15.834-3.959ZM45.625,5.764c9.817,0,15.834,2.56,15.834,3.959s-6.017,3.959-15.834,3.959-15.834-2.56-15.834-3.959,6.017-3.959,15.834-3.959ZM29.791,36.113V26.481c3.4,2.006,9.646,3.035,15.834,3.035s12.43-1.029,15.834-3.035v9.632c0,1.4-6.017,3.959-15.834,3.959s-15.834-2.56-15.834-3.959Z" transform="translate(-6.038 -3.124)" fill="#002e6d"/>
        </g>
      </g>
    </g>
  </g>
</svg>
