<svg id="Layer_1" data-name="Layer 1" xmlns="http://www.w3.org/2000/svg" xmlns:xlink="http://www.w3.org/1999/xlink" width="292.81" height="51.11" viewBox="0 0 292.81 51.11">
  <defs>
    <clipPath id="clip-path">
      <rect id="Rectangle_3" data-name="Rectangle 3" width="292.81" height="51.11" fill="none"/>
    </clipPath>
  </defs>
  <g id="Group_2" data-name="Group 2" clip-path="url(#clip-path)">
    <g id="Group_1" data-name="Group 1">
      <path id="Path_1" data-name="Path 1" d="M80.26,27.11a5.208,5.208,0,0,1-.89,3.21,3.257,3.257,0,0,1-2.77,1.17,3.317,3.317,0,0,1-2.8-1.17,5.208,5.208,0,0,1-.89-3.21V16.04H68.46V27.43q0,4.035,2.07,6.07a8.153,8.153,0,0,0,5.97,2.04,8.474,8.474,0,0,0,6.05-2.05q2.175-2.055,2.17-6.06V16.04H80.27V27.11Z" fill="#002e6d"/>
      <path id="Path_2" data-name="Path 2" d="M60.29,23.54H52.91V16.03H48.46V35.22h4.45v-7.7h7.38v7.7h4.45V16.03H60.29Z" fill="#002e6d"/>
      <path id="Path_3" data-name="Path 3" d="M87.19,20.12h5.76v15.1H97.4V20.12h5.76V16.03H87.19Z" fill="#002e6d"/>
      <path id="Path_4" data-name="Path 4" d="M117.32,31.03a8.859,8.859,0,0,1-2.43.37,6.862,6.862,0,0,1-2.42-.41,4.892,4.892,0,0,1-2.98-2.96,6.655,6.655,0,0,1-.41-2.39,6.806,6.806,0,0,1,.41-2.41,5.009,5.009,0,0,1,1.15-1.82,4.9,4.9,0,0,1,1.83-1.14,7.1,7.1,0,0,1,2.42-.39,8.129,8.129,0,0,1,2.34.34,10.963,10.963,0,0,1,2.24.94l1.36-3.77a13.341,13.341,0,0,0-2.81-1.22,10.679,10.679,0,0,0-3.18-.46,11.688,11.688,0,0,0-4.28.75,9.994,9.994,0,0,0-3.31,2.07,9.157,9.157,0,0,0-2.15,3.14,10.14,10.14,0,0,0-.76,3.97,9.991,9.991,0,0,0,.76,3.94,9.157,9.157,0,0,0,2.15,3.14,9.994,9.994,0,0,0,3.31,2.07,11.688,11.688,0,0,0,4.28.75,11.928,11.928,0,0,0,3.28-.47,10.07,10.07,0,0,0,2.89-1.31l-1.33-3.77a9.821,9.821,0,0,1-2.36,1.05Z" fill="#002e6d"/>
      <path id="Path_5" data-name="Path 5" d="M136.3,23.54h-7.38V16.03h-4.45V35.22h4.45v-7.7h7.38v7.7h4.45V16.03H136.3Z" fill="#002e6d"/>
      <rect id="Rectangle_2" data-name="Rectangle 2" width="4.45" height="19.19" transform="translate(145.43 16.03)" fill="#002e6d"/>
      <path id="Path_6" data-name="Path 6" d="M165.6,26.36a6.382,6.382,0,0,0-1.44-1.31,13.157,13.157,0,0,0-2.24-1.19c-.59-.26-1.11-.49-1.53-.68a6.764,6.764,0,0,1-1.06-.57,1.777,1.777,0,0,1-.6-.63,1.728,1.728,0,0,1-.18-.81,1.4,1.4,0,0,1,.52-1.07,2.618,2.618,0,0,1,1.75-.47,4.724,4.724,0,0,1,1.09.14,9.926,9.926,0,0,1,1.13.37,9.818,9.818,0,0,1,1.09.5,8.98,8.98,0,0,1,.94.56l1.13-3.98a6.79,6.79,0,0,0-1.02-.55,12.444,12.444,0,0,0-1.31-.47,12.835,12.835,0,0,0-1.48-.34,8.959,8.959,0,0,0-1.56-.13,8.473,8.473,0,0,0-2.94.47,6.3,6.3,0,0,0-2.11,1.24,5.118,5.118,0,0,0-1.27,1.77,5.016,5.016,0,0,0-.43,2.04,5.7,5.7,0,0,0,.24,1.66,4.8,4.8,0,0,0,.77,1.51,6.427,6.427,0,0,0,1.41,1.32,11.07,11.07,0,0,0,2.13,1.14c.73.3,1.32.56,1.77.8a5.96,5.96,0,0,1,1.05.69,1.8,1.8,0,0,1,.5.67,2,2,0,0,1,.12.69,1.6,1.6,0,0,1-.5,1.19,2.375,2.375,0,0,1-1.68.48,8.194,8.194,0,0,1-2.78-.51,10.618,10.618,0,0,1-2.59-1.35l-1.23,4.03a9.379,9.379,0,0,0,1.41.77,13.867,13.867,0,0,0,1.64.61,16.774,16.774,0,0,0,1.73.42,9.179,9.179,0,0,0,1.69.16,8.362,8.362,0,0,0,3.01-.5,6.013,6.013,0,0,0,2.13-1.34,5.374,5.374,0,0,0,1.27-1.91,6.036,6.036,0,0,0,.42-2.22,6.258,6.258,0,0,0-.22-1.71,4.3,4.3,0,0,0-.76-1.49Z" fill="#002e6d"/>
      <path id="Path_7" data-name="Path 7" d="M186.15,18.56a9.271,9.271,0,0,0-3.06-2.08,10.145,10.145,0,0,0-4.02-.76,10.451,10.451,0,0,0-4.06.76,9.088,9.088,0,0,0-5.14,5.22,10.614,10.614,0,0,0-.72,3.94,11.188,11.188,0,0,0,.68,3.93,9.005,9.005,0,0,0,1.95,3.13,9.211,9.211,0,0,0,3.07,2.08,11.091,11.091,0,0,0,8.07,0,9.576,9.576,0,0,0,3.13-2.08,9.347,9.347,0,0,0,2.03-3.13,10.524,10.524,0,0,0,.72-3.93,10.985,10.985,0,0,0-.69-3.94,9.278,9.278,0,0,0-1.96-3.14Zm-2.47,9.45a5.841,5.841,0,0,1-1.03,1.89,4.61,4.61,0,0,1-1.6,1.24,4.7,4.7,0,0,1-2.08.44,4.828,4.828,0,0,1-2.07-.44,4.768,4.768,0,0,1-1.61-1.24,5.739,5.739,0,0,1-1.03-1.89,7.184,7.184,0,0,1-.37-2.37,7.305,7.305,0,0,1,.37-2.39,5.541,5.541,0,0,1,1.03-1.87,4.87,4.87,0,0,1,1.61-1.23,4.747,4.747,0,0,1,2.07-.44,4.675,4.675,0,0,1,3.68,1.67,5.467,5.467,0,0,1,1.03,1.87,7.535,7.535,0,0,1,.37,2.39,7.142,7.142,0,0,1-.37,2.37Z" fill="#002e6d"/>
      <path id="Path_8" data-name="Path 8" d="M204.2,25.98,192.78,15.67l-.6.1V35.22h4.45V25.19L208.2,35.58l.45-.07V16.03H204.2Z" fill="#002e6d"/>
      <path id="Path_9" data-name="Path 9" d="M224.31,17.73a6.875,6.875,0,0,0-2.3-1.34,9.651,9.651,0,0,0-3.25-.5q-1.185,0-2.25.09c-.71.06-1.43.14-2.15.22v19h2.1V28.42c.33.03.69.06,1.09.08s.75.03,1.09.03a9.687,9.687,0,0,0,3.17-.48,6.911,6.911,0,0,0,2.36-1.35,5.749,5.749,0,0,0,1.48-2.07,6.681,6.681,0,0,0,.51-2.64,5.907,5.907,0,0,0-.46-2.33,5.417,5.417,0,0,0-1.37-1.94Zm-.72,6.19a3.805,3.805,0,0,1-.93,1.44,4.468,4.468,0,0,1-1.6.98,6.6,6.6,0,0,1-2.3.37c-.37,0-.76-.02-1.18-.05s-.79-.07-1.12-.11V17.99a6.759,6.759,0,0,1,1.23-.17c.47-.03.93-.04,1.39-.04a5.4,5.4,0,0,1,2.08.37,4.611,4.611,0,0,1,1.52.97,3.966,3.966,0,0,1,.92,1.4,4.622,4.622,0,0,1,.3,1.64,5.14,5.14,0,0,1-.3,1.77Z" fill="#002e6d"/>
      <path id="Path_10" data-name="Path 10" d="M244.48,18.52a9.584,9.584,0,0,0-3.02-2.06,9.093,9.093,0,0,0-3.67-.75,9.258,9.258,0,0,0-3.69.75,9.529,9.529,0,0,0-3.07,2.06,9.863,9.863,0,0,0-2.11,3.13,10,10,0,0,0-.79,3.99,10.283,10.283,0,0,0,.75,3.97,9.791,9.791,0,0,0,2.04,3.14,9.257,9.257,0,0,0,6.69,2.79,9.533,9.533,0,0,0,6.77-2.79,10.139,10.139,0,0,0,2.11-3.14,9.937,9.937,0,0,0,.78-3.97,10.385,10.385,0,0,0-.75-3.99A9.638,9.638,0,0,0,244.48,18.52Zm-.03,10.29a7.885,7.885,0,0,1-1.5,2.55,7.03,7.03,0,0,1-2.3,1.7,7.257,7.257,0,0,1-5.87,0,7.006,7.006,0,0,1-2.32-1.7,7.544,7.544,0,0,1-1.5-2.55,9.575,9.575,0,0,1,0-6.34,7.885,7.885,0,0,1,1.5-2.55,6.87,6.87,0,0,1,2.32-1.7,7.01,7.01,0,0,1,2.94-.62,6.893,6.893,0,0,1,5.23,2.32,7.544,7.544,0,0,1,1.5,2.55,9.575,9.575,0,0,1,0,6.34Z" fill="#002e6d"/>
      <path id="Path_11" data-name="Path 11" d="M261.22,25.11a5.58,5.58,0,0,0,1.07-3.45,5.645,5.645,0,0,0-.46-2.29,4.828,4.828,0,0,0-1.38-1.83,6.509,6.509,0,0,0-2.3-1.2,11.225,11.225,0,0,0-3.25-.43q-1.2,0-2.28.09c-.72.06-1.43.14-2.15.22v19h2.1V27.66c.31.02.68.03,1.09.04s.77.01,1.09.01c.23,0,.44,0,.65-.01s.42-.02.63-.04l5.1,7.56h2.54l-5.57-8.01a6.028,6.028,0,0,0,3.11-2.09Zm-6.31.82c-.37,0-.77-.01-1.2-.04s-.81-.06-1.13-.09V18a6.752,6.752,0,0,1,1.24-.17c.48-.03.95-.04,1.4-.04a6.6,6.6,0,0,1,2.08.31,4.36,4.36,0,0,1,1.5.85,3.606,3.606,0,0,1,.92,1.27,4.26,4.26,0,0,1-.91,4.58,5.654,5.654,0,0,1-3.91,1.13Z" fill="#002e6d"/>
      <path id="Path_12" data-name="Path 12" d="M264.15,17.92h6.41v17.3h2.1V17.92h6.38V16.03H264.15Z" fill="#002e6d"/>
      <path id="Path_13" data-name="Path 13" d="M291.27,28.31a3.753,3.753,0,0,0-.82-1.41,7.116,7.116,0,0,0-1.58-1.27,23.115,23.115,0,0,0-2.49-1.3,7.649,7.649,0,0,1-2.53-1.65,2.7,2.7,0,0,1-.75-1.83,3.223,3.223,0,0,1,.24-1.24,2.946,2.946,0,0,1,.68-1.02,3.133,3.133,0,0,1,1.14-.69,4.551,4.551,0,0,1,1.58-.26,5.389,5.389,0,0,1,1.85.33,6.319,6.319,0,0,1,1.61.85l.94-1.78a7.6,7.6,0,0,0-1.94-.94,7.432,7.432,0,0,0-2.33-.37,6.443,6.443,0,0,0-2.4.43,6.021,6.021,0,0,0-1.86,1.15,4.976,4.976,0,0,0-1.19,1.66,4.835,4.835,0,0,0-.42,1.99,4.676,4.676,0,0,0,.25,1.58,4.558,4.558,0,0,0,.78,1.36,6.238,6.238,0,0,0,1.4,1.2,15.767,15.767,0,0,0,2.12,1.11,17.591,17.591,0,0,1,1.92.98,5.027,5.027,0,0,1,1.15.93,2.638,2.638,0,0,1,.56,1,4.149,4.149,0,0,1,.16,1.15,3.635,3.635,0,0,1-.22,1.26,3.07,3.07,0,0,1-.67,1.07,3.13,3.13,0,0,1-1.13.74,4.279,4.279,0,0,1-1.6.28,6.433,6.433,0,0,1-2.33-.46,10.072,10.072,0,0,1-2.3-1.24l-1.02,1.83a12.064,12.064,0,0,0,2.58,1.31,8.651,8.651,0,0,0,2.97.47,6.347,6.347,0,0,0,2.33-.42,5.552,5.552,0,0,0,1.86-1.17,5.616,5.616,0,0,0,1.23-1.74,5.2,5.2,0,0,0,.45-2.17,5.741,5.741,0,0,0-.24-1.73Z" fill="#002e6d"/>
    </g>
    <path id="Path_14" data-name="Path 14" d="M39.97,16.95,1.08,39.73V51.05H39.97Z" fill="#002e6d"/>
    <path id="Path_15" data-name="Path 15" d="M39.97-.18H1.08V29.36L39.97,6.58Z" fill="#009bde"/>
  </g>
</svg>
