<svg xmlns="http://www.w3.org/2000/svg" width="287.423" height="36.161" viewBox="0 0 287.423 36.161">
  <g id="logo-hutchison-en" transform="translate(-0.5 -0.399)">
    <g id="Group_47" data-name="Group 47" transform="translate(0.5 0.399)">
      <path id="Path_309" data-name="Path 309" d="M30.434,28.745h0L20.765,18.414,30.434,8.083h0l1.722-1.722A17.9,17.9,0,0,0,18.646.4,17.894,17.894,0,0,0,.5,18.414,18.109,18.109,0,0,0,32.156,30.467Zm-3.974-.53h-15.1V8.612H26.328l-9.139,9.8Zm-23.577-9.8A15.658,15.658,0,0,1,18.514,2.785a15.2,15.2,0,0,1,9.934,3.576H8.977V30.6h19.6a15.459,15.459,0,0,1-9.934,3.576A15.886,15.886,0,0,1,2.884,18.414Z" transform="translate(-0.5 -0.399)" fill="#fff"/>
      <path id="Path_310" data-name="Path 310" d="M24.7,4.9V29.006H35.959V21.192H33.442v5.563H27.084V7.152h6.358v5.563h2.517V4.9Z" transform="translate(7.354 1.062)" fill="#fff"/>
      <path id="Path_311" data-name="Path 311" d="M46.559,4.9V29.006H35.3V21.192h2.517v5.563h6.358V7.152H37.817v5.563H35.3V4.9Z" transform="translate(10.794 1.062)" fill="#fff"/>
    </g>
    <g id="Group_49" data-name="Group 49" transform="translate(69.243 11.791)">
      <g id="Group_48" data-name="Group 48">
        <path id="Path_312" data-name="Path 312" d="M59.023,20.329,58.1,16.885H54.784l-.927,3.444H52.4L55.446,9.6h2.119l3.046,10.729ZM56.506,10.66h0l-1.325,5.033h2.782Z" transform="translate(-52.4 -8.805)" fill="#fff"/>
        <path id="Path_313" data-name="Path 313" d="M70.609,19.972V13.217a1.154,1.154,0,0,0-1.192-1.325H67.563a3.868,3.868,0,0,1,.265,1.192v6.888H66.371V13.217a1.05,1.05,0,0,0-1.192-1.192H63.457v7.947H62V10.832h1.325l.132.53h0a3.941,3.941,0,0,1,1.987-.662,2.62,2.62,0,0,1,1.854.662h0a4.236,4.236,0,0,1,2.384-.662,2.217,2.217,0,0,1,2.384,2.384v6.755H70.609Z" transform="translate(-49.285 -8.448)" fill="#fff"/>
        <path id="Path_314" data-name="Path 314" d="M72.357,15.568c0,2.517.662,3.311,2.252,3.311H76.6v.795a6.187,6.187,0,0,1-2.252.4c-2.119,0-3.444-1.589-3.444-4.636,0-3.576,1.589-4.636,3.179-4.636s3.046.927,3.046,4.636V15.7H72.357Zm3.179-1.589c0-1.457-.4-2.252-1.457-2.252s-1.589.795-1.589,2.914h3.046v-.662Z" transform="translate(-46.396 -8.416)" fill="#fff"/>
        <path id="Path_315" data-name="Path 315" d="M85.409,19.972V13.217a1.154,1.154,0,0,0-1.192-1.325H82.363a3.868,3.868,0,0,1,.265,1.192v6.888H81.171V13.217a1.05,1.05,0,0,0-1.192-1.192H78.257v7.947H76.8V10.832h1.192l.132.53h0a3.941,3.941,0,0,1,1.987-.662,2.62,2.62,0,0,1,1.854.662h0A4.236,4.236,0,0,1,84.35,10.7a2.217,2.217,0,0,1,2.384,2.384v6.755H85.409Z" transform="translate(-44.481 -8.448)" fill="#fff"/>
        <path id="Path_316" data-name="Path 316" d="M88.517,20.523a9.956,9.956,0,0,1-2.517-.4V9h1.457v2.384h0a4.083,4.083,0,0,1,1.325-.132c1.722,0,3.311,1.06,3.311,4.5C92.225,19.2,90.768,20.523,88.517,20.523Zm0-8.08h-1.06v7.02h1.06c1.589,0,2.119-1.192,2.119-3.576S90.106,12.444,88.517,12.444Z" transform="translate(-41.496 -9)" fill="#fff"/>
        <path id="Path_317" data-name="Path 317" d="M93.157,15.568c0,2.517.662,3.311,2.252,3.311H97.4v.795a6.187,6.187,0,0,1-2.252.4c-2.119,0-3.444-1.589-3.444-4.636,0-3.576,1.589-4.636,3.179-4.636s3.046.927,3.046,4.636V15.7H93.157ZM96.2,13.979c0-1.457-.4-2.252-1.457-2.252s-1.589.795-1.589,2.914H96.2v-.662Z" transform="translate(-39.646 -8.416)" fill="#fff"/>
        <path id="Path_318" data-name="Path 318" d="M99.057,12.025v7.947H97.6V10.832h1.192l.132.53h0a2.847,2.847,0,0,1,1.987-.662h.4v1.192H99.057Z" transform="translate(-37.731 -8.448)" fill="#fff"/>
        <path id="Path_319" data-name="Path 319" d="M106.811,19.972c-1.987,0-3.311-1.325-3.311-4.636s1.325-4.636,3.444-4.636c1.987,0,3.311,1.192,3.311,4.636S108.931,19.972,106.811,19.972Zm0-8.212c-1.457,0-1.854.795-1.854,3.576,0,2.649.4,3.576,1.722,3.576,1.457,0,1.854-.927,1.854-3.576C108.666,12.554,108.268,11.76,106.811,11.76Z" transform="translate(-35.817 -8.448)" fill="#fff"/>
        <path id="Path_320" data-name="Path 320" d="M112.644,10.16c-.795,0-.927.4-.927,1.06v.662h1.854v.927h-1.987v7.682h-1.457V12.809H109.2v-.927h.927v-.265A2.235,2.235,0,0,1,112.379,9.1a4.94,4.94,0,0,1,1.589.265v.795h-1.325Z" transform="translate(-33.967 -8.968)" fill="#fff"/>
        <path id="Path_321" data-name="Path 321" d="M119.209,20.361c-1.987,0-3.709-1.589-3.709-5.431,0-3.974,1.854-5.431,3.841-5.431a4.231,4.231,0,0,1,1.854.4v.927h-1.589c-1.589,0-2.517.927-2.517,4.238,0,3.179.927,4.238,2.649,4.238h1.722V20.1A6.946,6.946,0,0,1,119.209,20.361Z" transform="translate(-31.922 -8.838)" fill="#fff"/>
        <path id="Path_322" data-name="Path 322" d="M120.9,20.329V9.6h1.457V20.329Zm4.9,0-3.311-5.563,3.444-5.033h1.589l-3.444,5.033,3.576,5.7H125.8Z" transform="translate(-30.17 -8.805)" fill="#fff"/>
        <path id="Path_323" data-name="Path 323" d="M134.6,20.329v-4.9h-3.841V20.2H129.3V9.6h1.457v4.636H134.6V9.6h1.457V20.329Z" transform="translate(-27.444 -8.805)" fill="#fff"/>
        <path id="Path_324" data-name="Path 324" d="M140.636,19.907l-.132-.53h0a5,5,0,0,1-2.119.662A2.3,2.3,0,0,1,136,17.655V10.9h1.457v6.623a1.188,1.188,0,0,0,1.325,1.325h1.589V10.9h1.457v9.139h-1.192Z" transform="translate(-25.269 -8.383)" fill="#fff"/>
        <path id="Path_325" data-name="Path 325" d="M144.182,20.526c-1.06,0-1.722-.795-1.722-2.119v-5.7H141.4v-.927h1.325l.53-2.384h.662v2.384h1.854v.927h-1.854v5.431c0,.927.4,1.192,1.06,1.192h.795v.795A3.527,3.527,0,0,1,144.182,20.526Z" transform="translate(-23.517 -8.87)" fill="#fff"/>
        <path id="Path_326" data-name="Path 326" d="M148.479,19.972c-1.722,0-3.179-1.325-3.179-4.636,0-3.576,1.589-4.636,3.311-4.636a6.14,6.14,0,0,1,1.854.265v.795h-1.589c-1.192,0-1.854.795-1.854,3.444,0,2.517.662,3.576,1.987,3.576h1.457v.795A3.723,3.723,0,0,1,148.479,19.972Z" transform="translate(-22.251 -8.448)" fill="#fff"/>
        <path id="Path_327" data-name="Path 327" d="M154.571,20.523V13.9c0-1.06-.53-1.325-1.325-1.325h-1.589v7.947H150.2V9h1.457v2.649h0a5.7,5.7,0,0,1,1.987-.4,2.223,2.223,0,0,1,2.384,2.384v6.755h-1.457Z" transform="translate(-20.661 -9)" fill="#fff"/>
        <path id="Path_328" data-name="Path 328" d="M156.2,10.722V9h1.457v1.589H156.2Zm0,9.8V11.914h1.457v8.609Z" transform="translate(-18.714 -9)" fill="#fff"/>
        <path id="Path_329" data-name="Path 329" d="M160.587,19.972a8.017,8.017,0,0,1-1.987-.265v-.795h1.722c1.06,0,1.589-.4,1.589-1.325,0-1.589-3.311-2.252-3.311-4.636a2.305,2.305,0,0,1,2.517-2.252,6.711,6.711,0,0,1,1.722.265v.927h-1.589c-.927,0-1.325.53-1.325,1.06,0,1.589,3.444,2.119,3.444,4.636A2.487,2.487,0,0,1,160.587,19.972Z" transform="translate(-17.935 -8.448)" fill="#fff"/>
        <path id="Path_330" data-name="Path 330" d="M166.311,19.972c-1.987,0-3.311-1.325-3.311-4.636s1.325-4.636,3.444-4.636c1.987,0,3.311,1.192,3.311,4.636S168.431,19.972,166.311,19.972Zm0-8.212c-1.457,0-1.854.795-1.854,3.576,0,2.649.4,3.576,1.722,3.576,1.457,0,1.854-.927,1.854-3.576C168.166,12.554,167.768,11.76,166.311,11.76Z" transform="translate(-16.507 -8.448)" fill="#fff"/>
        <path id="Path_331" data-name="Path 331" d="M173.771,19.939V13.317c0-1.06-.53-1.325-1.325-1.325h-1.589v7.947H169.4V10.8h1.325l.132.53h0a4.514,4.514,0,0,1,2.119-.53,2.223,2.223,0,0,1,2.384,2.384v6.755Z" transform="translate(-14.43 -8.416)" fill="#fff"/>
        <path id="Path_332" data-name="Path 332" d="M183.3,20.329v-4.9h-3.841V20.2H178V9.6h1.457v4.636H183.3V9.6h1.457V20.329Z" transform="translate(-11.639 -8.805)" fill="#fff"/>
        <path id="Path_333" data-name="Path 333" d="M187.811,19.972c-1.987,0-3.311-1.325-3.311-4.636s1.325-4.636,3.444-4.636c1.987,0,3.311,1.192,3.311,4.636S189.931,19.972,187.811,19.972Zm.132-8.212c-1.457,0-1.854.795-1.854,3.576,0,2.649.4,3.576,1.722,3.576,1.457,0,1.854-.927,1.854-3.576C189.666,12.554,189.268,11.76,187.944,11.76Z" transform="translate(-9.53 -8.448)" fill="#fff"/>
        <path id="Path_334" data-name="Path 334" d="M190.9,20.523V9h1.457V20.523Z" transform="translate(-7.453 -9)" fill="#fff"/>
        <path id="Path_335" data-name="Path 335" d="M197.009,20.523c-2.119,0-3.709-1.457-3.709-4.636,0-3.046,1.457-4.636,3.444-4.636a3.324,3.324,0,0,1,1.325.265h0V9h1.457V20.126A5.422,5.422,0,0,1,197.009,20.523Zm1.06-8.08h-1.192c-1.325,0-1.987,1.06-1.987,3.576s.662,3.444,1.987,3.444h1.06v-7.02Z" transform="translate(-6.674 -9)" fill="#fff"/>
        <path id="Path_336" data-name="Path 336" d="M199.6,10.722V9h1.457v1.589H199.6Zm0,9.8V11.914h1.457v8.609Z" transform="translate(-4.629 -9)" fill="#fff"/>
        <path id="Path_337" data-name="Path 337" d="M206.771,19.939V13.317c0-1.06-.53-1.325-1.325-1.325h-1.589v7.947H202.4V10.8h1.325l.132.53h0a4.514,4.514,0,0,1,2.119-.53,2.223,2.223,0,0,1,2.384,2.384v6.755Z" transform="translate(-3.721 -8.416)" fill="#fff"/>
        <path id="Path_338" data-name="Path 338" d="M211.279,22.223a13.343,13.343,0,0,1-2.517-.265v-.795h2.649c.795,0,1.457-.265,1.457-1.325v-.662h0a3.324,3.324,0,0,1-1.325.265c-1.722,0-3.444-1.06-3.444-4.371,0-2.914,1.457-4.371,3.709-4.371a8.968,8.968,0,0,1,2.517.4v8.477A2.7,2.7,0,0,1,211.279,22.223Zm1.457-10.464h-1.192c-1.325,0-1.854,1.06-1.854,3.179,0,2.517.662,3.311,1.987,3.311h1.192V11.76Z" transform="translate(-1.871 -8.448)" fill="#fff"/>
        <path id="Path_339" data-name="Path 339" d="M215.887,19.972a8.017,8.017,0,0,1-1.987-.265v-.795h1.722c1.06,0,1.589-.4,1.589-1.325,0-1.589-3.311-2.252-3.311-4.636a2.305,2.305,0,0,1,2.517-2.252,6.711,6.711,0,0,1,1.722.265v.927h-1.589c-.927,0-1.325.53-1.325,1.06,0,1.589,3.444,2.119,3.444,4.636A2.487,2.487,0,0,1,215.887,19.972Z" transform="translate(0.012 -8.448)" fill="#fff"/>
      </g>
    </g>
  </g>
</svg>
