<svg xmlns="http://www.w3.org/2000/svg" xmlns:xlink="http://www.w3.org/1999/xlink" width="69.848" height="69.848" viewBox="0 0 69.848 69.848">
  <defs>
    <filter id="arrow-progress" x="0" y="0" width="69.848" height="69.848" filterUnits="userSpaceOnUse">
      <feOffset input="SourceAlpha"/>
      <feGaussianBlur stdDeviation="5" result="blur"/>
      <feFlood flood-color="#fff"/>
      <feComposite operator="in" in2="blur"/>
      <feComposite in="SourceGraphic"/>
    </filter>
  </defs>
  <g transform="matrix(1, 0, 0, 1, 0, 0)" filter="url(#arrow-progress)">
    <path id="arrow-progress-2" data-name="arrow-progress" d="M4.151,29.886A4.151,4.151,0,1,0,8.3,34.037,4.157,4.157,0,0,0,4.151,29.886Zm0,6.641a2.49,2.49,0,1,1,2.49-2.49A2.494,2.494,0,0,1,4.151,36.527ZM35.7,9.962a4.151,4.151,0,1,0-4.151-4.151A4.157,4.157,0,0,0,35.7,9.962Zm0-6.641a2.49,2.49,0,1,1-2.49,2.49A2.494,2.494,0,0,1,35.7,3.321Zm-5.811,16.6H7.471a7.471,7.471,0,0,1,0-14.943H26.243a1.442,1.442,0,0,0-.156-.218L22.534,1.436A.83.83,0,0,1,23.67.224L27.223,3.55a3.259,3.259,0,0,1,1,2.26A3.189,3.189,0,0,1,27.241,8l-3.566,3.394a.83.83,0,1,1-1.144-1.2L26.1,6.8a1.257,1.257,0,0,0,.11-.156H7.471a5.811,5.811,0,0,0,0,11.622H29.886A6.648,6.648,0,0,1,36.527,24.9v.83a.83.83,0,1,1-1.66,0V24.9a4.987,4.987,0,0,0-4.981-4.981ZM35.7,29.886a4.151,4.151,0,1,0,4.151,4.151A4.157,4.157,0,0,0,35.7,29.886Zm0,6.641a2.49,2.49,0,1,1,2.49-2.49A2.494,2.494,0,0,1,35.7,36.527Zm-7.471-2.49a3.189,3.189,0,0,1-.985,2.188l-3.566,3.394a.83.83,0,1,1-1.144-1.2L26.1,35.023a1.257,1.257,0,0,0,.11-.156H12.452a.83.83,0,0,1,0-1.66H26.243a1.443,1.443,0,0,0-.156-.218l-3.553-3.327A.83.83,0,0,1,23.67,28.45l3.553,3.326a3.259,3.259,0,0,1,1,2.26Z" transform="translate(15 15)" fill="#fff"/>
  </g>
</svg>
