<svg id="Layer_1" data-name="Layer 1" xmlns="http://www.w3.org/2000/svg" width="55.204" height="48.888" viewBox="0 0 55.204 48.888">
  <g id="Group_2420" data-name="Group 2420">
    <path id="Path_17374" data-name="Path 17374" d="M6.491,63.781l-6.2-4.02L0,52.95l.266-.3,6.2,3.6.024,7.527Z" transform="translate(0 -27.148)" fill="#fff"/>
    <path id="Path_17375" data-name="Path 17375" d="M6.224,63.926l-6.2-3.6L0,53.27l6.2,3.6.024,7.052Z" transform="translate(0 -27.468)" fill="#00259b"/>
    <path id="Path_17376" data-name="Path 17376" d="M6.75,52.448l-6.2-3.6L6.74,45.27l6.2,3.6-6.2,3.575Z" transform="translate(-0.284 -23.343)" fill="#093170"/>
    <path id="Path_17377" data-name="Path 17377" d="M19.545,52.71l.179.286.019,7.111-6.369,3.705-.024-7.527,6.2-3.575Z" transform="translate(-6.884 -27.179)" fill="#fff"/>
    <path id="Path_17378" data-name="Path 17378" d="M19.915,53.3l.019,7.111L13.754,64l-.034-7.13,6.2-3.575Z" transform="translate(-7.074 -27.483)" fill="#1d7fb9"/>
    <path id="Path_17379" data-name="Path 17379" d="M79.966,77.55l-9.586-6.21L69.94,60.815l.412-.465,9.581,5.57.034,11.63Z" transform="translate(-36.063 -31.118)" fill="#fff"/>
    <path id="Path_17380" data-name="Path 17380" d="M79.55,77.779l-9.581-5.565-.029-10.9,9.581,5.57.029,10.9Z" transform="translate(-36.063 -31.613)" fill="#00259b"/>
    <path id="Path_17381" data-name="Path 17381" d="M80.371,60.042l-9.581-5.57,9.566-5.522,9.581,5.57-9.566,5.522Z" transform="translate(-36.501 -25.24)" fill="#093170"/>
    <path id="Path_17382" data-name="Path 17382" d="M100.136,60.45l.276.441.034,10.99L90.6,77.6l-.034-11.63,9.566-5.522Z" transform="translate(-46.701 -31.17)" fill="#fff"/>
    <path id="Path_17383" data-name="Path 17383" d="M100.706,61.36l.034,10.99L91.188,77.9,91.14,66.882l9.566-5.522Z" transform="translate(-46.994 -31.639)" fill="#1d7fb9"/>
    <path id="Path_17384" data-name="Path 17384" d="M44.221,49.232,37.875,45.12l-.3-6.97.276-.31L44.2,41.531l.019,7.7Z" transform="translate(-19.377 -19.511)" fill="#fff"/>
    <path id="Path_17385" data-name="Path 17385" d="M43.949,49.388,37.6,45.7,37.58,38.48l6.345,3.686.024,7.222Z" transform="translate(-19.377 -19.841)" fill="#00259b"/>
    <path id="Path_17386" data-name="Path 17386" d="M44.5,37.638,38.15,33.947l6.331-3.657,6.345,3.691L44.5,37.638Z" transform="translate(-19.671 -15.618)" fill="#093170"/>
    <path id="Path_17387" data-name="Path 17387" d="M57.581,37.91l.184.291.024,7.28-6.52,3.788-.019-7.7,6.331-3.657Z" transform="translate(-26.426 -19.548)" fill="#fff"/>
    <path id="Path_17388" data-name="Path 17388" d="M57.956,38.51l.024,7.28-6.326,3.676-.034-7.3,6.336-3.657Z" transform="translate(-26.617 -19.857)" fill="#1d7fb9"/>
    <path id="Path_17389" data-name="Path 17389" d="M18.985,20.3l-6.8-4.408L11.87,8.419l.291-.329,6.8,3.952.024,8.254Z" transform="translate(-6.121 -4.171)" fill="#fff"/>
    <path id="Path_17390" data-name="Path 17390" d="M18.69,20.458l-6.8-3.952L11.87,8.77l6.8,3.952.019,7.735Z" transform="translate(-6.121 -4.522)" fill="#00259b"/>
    <path id="Path_17391" data-name="Path 17391" d="M19.271,7.871l-6.8-3.952L19.261,0l6.8,3.952L19.271,7.871Z" transform="translate(-6.43)" fill="#093170"/>
    <path id="Path_17392" data-name="Path 17392" d="M33.3,8.16l.194.315.024,7.8-6.985,4.059-.024-8.254L33.3,8.16Z" transform="translate(-13.669 -4.208)" fill="#fff"/>
    <path id="Path_17393" data-name="Path 17393" d="M33.706,8.81l.024,7.8-6.776,3.938-.034-7.818L33.706,8.81Z" transform="translate(-13.881 -4.543)" fill="#1d7fb9"/>
    <path id="Path_17394" data-name="Path 17394" d="M34.452,90.318l-5.556-3.6-.257-6.1.237-.271,5.556,3.226.019,6.742Z" transform="translate(-14.768 -41.431)" fill="#fff"/>
    <path id="Path_17395" data-name="Path 17395" d="M34.21,90.452l-5.551-3.226L28.64,80.91l5.551,3.226.019,6.316Z" transform="translate(-14.768 -41.72)" fill="#00259b"/>
    <path id="Path_17396" data-name="Path 17396" d="M34.686,80.168,29.13,76.942l5.546-3.2,5.551,3.231-5.541,3.2Z" transform="translate(-15.02 -38.023)" fill="#093170"/>
    <path id="Path_17397" data-name="Path 17397" d="M46.141,80.41l.16.252.019,6.374-5.7,3.313L40.6,83.607l5.541-3.2Z" transform="translate(-20.935 -41.462)" fill="#fff"/>
    <path id="Path_17398" data-name="Path 17398" d="M46.471,80.93l.019,6.374-5.532,3.216-.029-6.389,5.541-3.2Z" transform="translate(-21.105 -41.73)" fill="#1d7fb9"/>
    <path id="Path_17399" data-name="Path 17399" d="M67.113,17.368l-5.381-3.487L61.48,7.972l.232-.262,5.381,3.129.019,6.529Z" transform="translate(-31.701 -3.976)" fill="#fff"/>
    <path id="Path_17400" data-name="Path 17400" d="M66.881,17.5,61.5,14.368,61.48,8.25l5.381,3.124.019,6.122Z" transform="translate(-31.701 -4.254)" fill="#00259b"/>
    <path id="Path_17401" data-name="Path 17401" d="M67.341,7.539,61.96,4.41l5.372-3.1,5.381,3.124-5.372,3.1Z" transform="translate(-31.948 -0.675)" fill="#093170"/>
    <path id="Path_17402" data-name="Path 17402" d="M78.442,7.76l.155.252.019,6.171-5.527,3.211-.019-6.529,5.372-3.1Z" transform="translate(-37.677 -4.001)" fill="#fff"/>
    <path id="Path_17403" data-name="Path 17403" d="M78.762,8.28l.019,6.171-5.362,3.115L73.39,11.38l5.372-3.1Z" transform="translate(-37.842 -4.269)" fill="#1d7fb9"/>
    <path id="Path_17404" data-name="Path 17404" d="M100.535,35.129l-4.156-2.693-.189-4.563.179-.2,4.151,2.417.015,5.042Z" transform="translate(-49.598 -14.267)" fill="#fff"/>
    <path id="Path_17405" data-name="Path 17405" d="M100.356,35.23,96.2,32.813l-.01-4.723,4.151,2.412.015,4.727Z" transform="translate(-49.598 -14.484)" fill="#00259b"/>
    <path id="Path_17406" data-name="Path 17406" d="M100.711,27.54,96.56,25.123l4.146-2.393,4.151,2.412-4.146,2.4Z" transform="translate(-49.789 -11.72)" fill="#093170"/>
    <path id="Path_17407" data-name="Path 17407" d="M109.276,27.71l.121.194.015,4.766-4.267,2.48-.015-5.042,4.146-2.4Z" transform="translate(-54.208 -14.288)" fill="#fff"/>
    <path id="Path_17408" data-name="Path 17408" d="M109.526,28.11l.015,4.766-4.141,2.4L105.38,30.5l4.146-2.393Z" transform="translate(-54.337 -14.494)" fill="#1d7fb9"/>
  </g>
</svg>
