<svg xmlns="http://www.w3.org/2000/svg" width="32.565" height="51.539" viewBox="0 0 32.565 51.539">
  <g id="Group_2426" data-name="Group 2426" transform="translate(-33.37 -1058.251)">
    <g id="Layer_1" data-name="Layer 1" transform="translate(33.37 1058.251)">
      <g id="Group_2424" data-name="Group 2424">
        <path id="Path_17450" data-name="Path 17450" d="M39.078,29.839,14.65,43.942V19.8L39.078,5.7,32.59,21.513l6.487,8.326" transform="translate(-6.513 -2.534)" fill="#f1d723"/>
        <path id="Path_17451" data-name="Path 17451" d="M10.262,52.7,4.78,49.529V25.39l5.482,3.166V52.7" transform="translate(-2.125 -11.288)" fill="#3b4e5b"/>
        <path id="Path_17452" data-name="Path 17452" d="M10.262,17.268,4.78,14.1,29.208,0,34.69,3.166l-24.428,14.1" transform="translate(-2.125)" fill="#3b4e5b"/>
        <path id="Path_17453" data-name="Path 17453" d="M10.262,17.268h0L4.78,14.1,29.208,0,34.69,3.166l-24.428,14.1" transform="translate(-2.125)" fill="#009add"/>
        <path id="Path_17454" data-name="Path 17454" d="M3.516,20.14A3.513,3.513,0,0,0,0,23.656v33.32a3.516,3.516,0,0,0,7.032,0V23.656A3.517,3.517,0,0,0,3.516,20.14Z" transform="translate(0 -8.954)" fill="#002e6d"/>
      </g>
    </g>
    <g id="Layer_1-2" data-name="Layer 1" transform="translate(43.915 1076.746)">
      <g id="Group_2422" data-name="Group 2422">
        <path id="Path_17439" data-name="Path 17439" d="M52.6,1.433v6.8L50.12,6.8V0L52.6,1.433" transform="translate(-43.042)" fill="#2d3197"/>
        <path id="Path_17440" data-name="Path 17440" d="M29.225,10.911l-4.567-.761v2.659L17.58,15.62v4.032l7.078-5.364v2.659l4.567-6.036" transform="translate(-15.097 -8.717)" fill="#009add"/>
        <path id="Path_17441" data-name="Path 17441" d="M2.483,40.163,0,38.73v4.03L2.483,44.2V40.163" transform="translate(0 -33.26)" fill="#2d3197"/>
        <path id="Path_17442" data-name="Path 17442" d="M2.483,23.074,0,21.64l7.078-2.81,2.483,1.433-7.078,2.81" transform="translate(0 -16.171)" fill="#3f3436"/>
        <path id="Path_17443" data-name="Path 17443" d="M2.483,23.074h0L0,21.64l7.078-2.81,2.483,1.433-7.078,2.81" transform="translate(0 -16.171)" fill="#002e6d"/>
        <path id="Path_17444" data-name="Path 17444" d="M57.17,2.195,54.687.761,50.12,0,52.6,1.433l4.567.761" transform="translate(-43.042)" fill="#3f3436"/>
        <path id="Path_17445" data-name="Path 17445" d="M57.17,2.195,52.6,1.433,50.12,0l4.567.761L57.17,2.195" transform="translate(-43.042)" fill="#002e6d"/>
      </g>
    </g>
  </g>
</svg>
