<svg id="Layer_1" data-name="Layer 1" xmlns="http://www.w3.org/2000/svg" width="47.017" height="54.856" viewBox="0 0 47.017 54.856">
  <g id="Group_2421" data-name="Group 2421">
    <path id="Path_17409" data-name="Path 17409" d="M45.107,48.934l-1.637-.953L43.44,36.63l1.637.95.031,11.354Z" transform="translate(-30.127 -25.404)" fill="#002e6d"/>
    <path id="Path_17410" data-name="Path 17410" d="M45.076,12.176l-1.637-.95L62.885,0l1.633.95L45.076,12.176Z" transform="translate(-30.127)" fill="#002e6d"/>
    <path id="Path_17411" data-name="Path 17411" d="M68.222,3.1l.034,11.354L48.811,25.68,48.78,14.326,68.222,3.1Z" transform="translate(-33.831 -2.15)" fill="#009add"/>
    <path id="Path_17412" data-name="Path 17412" d="M43.44,13.814l1.637.91.031,10.956.291-.169V14.6L64.521,3.538l0-.438L45.076,14.326l-1.637-.95v.438Z" transform="translate(-30.127 -2.15)" fill="#bac2dc"/>
    <path id="Path_17413" data-name="Path 17413" d="M45.107,99.214l-1.637-.95L43.44,86.91l1.637.953.031,11.351Z" transform="translate(-30.127 -60.276)" fill="#002e6d"/>
    <path id="Path_17414" data-name="Path 17414" d="M45.076,62.459l-1.637-.953L62.885,50.28l1.633.95L45.076,62.459Z" transform="translate(-30.127 -34.871)" fill="#002e6d"/>
    <path id="Path_17415" data-name="Path 17415" d="M68.222,53.38l.034,11.354L48.811,75.96,48.78,64.609,68.222,53.38Z" transform="translate(-33.831 -37.021)" fill="#009add"/>
    <path id="Path_17416" data-name="Path 17416" d="M43.44,64.094l1.637.91.031,10.956.291-.169v-10.9L64.521,53.821l0-.441L45.076,64.609l-1.637-.953v.438Z" transform="translate(-30.127 -37.021)" fill="#bac2dc"/>
    <path id="Path_17417" data-name="Path 17417" d="M45.107,151.154l-1.637-.95L43.44,138.85l1.637.953.031,11.351Z" transform="translate(-30.127 -96.298)" fill="#002e6d"/>
    <path id="Path_17418" data-name="Path 17418" d="M45.076,114.406l-1.637-.953L62.885,102.23l1.633.95L45.076,114.406Z" transform="translate(-30.127 -70.901)" fill="#002e6d"/>
    <path id="Path_17419" data-name="Path 17419" d="M68.222,105.33l.034,11.351L48.811,127.907l-.031-11.351L68.222,105.33Z" transform="translate(-33.831 -73.051)" fill="#009add"/>
    <path id="Path_17420" data-name="Path 17420" d="M43.44,116.041l1.637.91.031,10.956.291-.165V116.835l19.123-11.066,0-.438L45.076,116.556,43.44,115.6v.438Z" transform="translate(-30.127 -73.051)" fill="#bac2dc"/>
    <path id="Path_17421" data-name="Path 17421" d="M122.356,109.165l-1.636-.953,6.607-3.812,1.637.95-6.607,3.815Z" transform="translate(-83.724 -72.406)" fill="#f1bc21"/>
    <path id="Path_17422" data-name="Path 17422" d="M122.363,119.825l-1.636-.953-.006-2.032,1.636.953.006,2.032Z" transform="translate(-83.724 -81.033)" fill="#f1b11d"/>
    <path id="Path_17423" data-name="Path 17423" d="M143.729,40.865l-1.636-.95L142.01,11.42l1.637.95.083,28.495Z" transform="translate(-98.49 -7.92)" fill="#f1b11d"/>
    <path id="Path_17424" data-name="Path 17424" d="M129.507,5.9l-1.637-.95,6.1-3.521,1.636.95-6.1,3.521Z" transform="translate(-88.683 -0.992)" fill="#f1bc21"/>
    <path id="Path_17425" data-name="Path 17425" d="M119.9,11.936l-1.636-.95L121.2,5.85l1.637.95L119.9,11.936Z" transform="translate(-82.018 -4.057)" fill="#f1b11d"/>
    <path id="Path_17426" data-name="Path 17426" d="M126.539,5.885l.006,2.167,6.1-3.521.092,32.565-8.379,4.839-.006-2.032,6.607-3.815-.083-28.495-4.327,2.5.006,2.17L123.6,11.021l2.939-5.136Z" transform="translate(-85.721 -3.142)" fill="#f1d723"/>
    <path id="Path_17427" data-name="Path 17427" d="M123.6,14.086l2.939-5.136v.429l-2.688,4.811-.251-.1Z" transform="translate(-85.721 -6.207)" fill="#f1cfca"/>
    <path id="Path_17428" data-name="Path 17428" d="M133.21,8.051l6.1-3.521v.31L133.21,8.3V8.051Z" transform="translate(-92.386 -3.142)" fill="#f1cfca"/>
    <path id="Path_17429" data-name="Path 17429" d="M128.881,14.354l.083,28.495-6.607,3.815-1.636-.953,0,.3,1.64.968V48.7l.233-.135.034-1.735,6.583-3.852-.2-28.694-.135.074Z" transform="translate(-83.724 -9.904)" fill="#f1cfca"/>
    <path id="Path_17430" data-name="Path 17430" d="M20.293,117.1l-1.633-.95L18.65,113.9l1.636.95.006,2.252Z" transform="translate(-12.935 -78.994)" fill="#f1b11d"/>
    <path id="Path_17431" data-name="Path 17431" d="M20.263,104.63l-1.637-.95-.006-1.79,1.636.95.006,1.79Z" transform="translate(-12.914 -70.665)" fill="#f1b11d"/>
    <path id="Path_17432" data-name="Path 17432" d="M20.257,102.84l-1.636-.95,2.755,1.143,1.636.953-2.755-1.146Z" transform="translate(-12.914 -70.665)" fill="#f1bc21"/>
    <path id="Path_17433" data-name="Path 17433" d="M7.136,111l-1.636-.95,4.027-2.323,1.636.95L7.136,111Z" transform="translate(-3.814 -74.715)" fill="#f1bc21"/>
    <path id="Path_17434" data-name="Path 17434" d="M1.682,89.369l-1.636-.95L0,72.44l1.636.95.046,15.979Z" transform="translate(0 -50.24)" fill="#f1b11d"/>
    <path id="Path_17435" data-name="Path 17435" d="M1.636,62.39,0,61.44l8.418-4.86,1.637.95L1.636,62.39Z" transform="translate(0 -39.24)" fill="#f1bc21"/>
    <path id="Path_17436" data-name="Path 17436" d="M13.758,59.68l0,1.9-6.77,3.91.034,12.191,4.027-2.323-.006-1.79L13.8,74.712,11.062,79.5l-.006-2.252-5.67,3.273L5.34,64.54l8.418-4.86Z" transform="translate(-3.704 -41.39)" fill="#f1d723"/>
    <path id="Path_17437" data-name="Path 17437" d="M0,63.992l1.636.929.046,15.6.328-.19v-15.5l8.045-4.756V59.68L1.636,64.54,0,63.59v.4Z" transform="translate(0 -41.39)" fill="#f1cfca"/>
    <path id="Path_17438" data-name="Path 17438" d="M10.84,107.026v.4l4.254-2.611v-1.876l-.233-.1-1.636-.95v.334l1.606.916.037,1.489-4.027,2.4Z" transform="translate(-7.518 -70.665)" fill="#f1cfca"/>
  </g>
</svg>
