<svg xmlns="http://www.w3.org/2000/svg" xmlns:xlink="http://www.w3.org/1999/xlink" width="73.781" height="75.192" viewBox="0 0 73.781 75.192">
  <defs>
    <filter id="lightbulb-setting" x="0" y="0" width="73.781" height="75.192" filterUnits="userSpaceOnUse">
      <feOffset input="SourceAlpha"/>
      <feGaussianBlur stdDeviation="5" result="blur"/>
      <feFlood flood-color="#fff"/>
      <feComposite operator="in" in2="blur"/>
      <feComposite in="SourceGraphic"/>
    </filter>
  </defs>
  <g transform="matrix(1, 0, 0, 1, 0, 0)" filter="url(#lightbulb-setting)">
    <path id="lightbulb-setting-2" data-name="lightbulb-setting" d="M20.659,43.616a.942.942,0,0,1-.572,1.2,6.582,6.582,0,0,1-2.2.377H16.005A6.6,6.6,0,0,1,9.414,38.6v-.655A11.14,11.14,0,0,0,5.706,29.6,16.941,16.941,0,1,1,33.632,13.958a.941.941,0,1,1-1.853.331A15.066,15.066,0,1,0,6.953,28.2a12.876,12.876,0,0,1,3.708,5.7H16v-14.2a5.658,5.658,0,0,1-4.708-5.57.942.942,0,0,1,1.883,0,3.766,3.766,0,1,0,7.533,0,.942.942,0,1,1,1.883,0,5.658,5.658,0,0,1-4.708,5.57V34.839a.942.942,0,0,1-.942.942H11.117A13.191,13.191,0,0,1,11.3,37.95v.655A4.715,4.715,0,0,0,16,43.313h1.883a4.694,4.694,0,0,0,1.569-.267.941.941,0,0,1,1.2.572Zm15.12-11.6a3.766,3.766,0,1,1-3.766-3.766A3.77,3.77,0,0,1,35.779,32.012Zm-1.883,0A1.883,1.883,0,1,0,32.013,33.9,1.885,1.885,0,0,0,33.9,32.012Zm9.793,4.5a2.824,2.824,0,0,1-4.156,3.156l-1.207-.7a9.315,9.315,0,0,1-3.49,2.011v1.39a2.825,2.825,0,1,1-5.65,0V40.98a9.33,9.33,0,0,1-3.49-2.011l-1.207.7a2.825,2.825,0,1,1-2.849-4.879l1.217-.71a8.277,8.277,0,0,1,0-4.145l-1.217-.71a2.825,2.825,0,0,1,2.849-4.879l1.207.7a9.326,9.326,0,0,1,3.49-2.009v-1.39a2.825,2.825,0,1,1,5.65,0v1.39a9.366,9.366,0,0,1,3.49,2.009l1.209-.7a2.826,2.826,0,0,1,2.847,4.881l-1.217.708a8.277,8.277,0,0,1,0,4.145l1.217.71a2.79,2.79,0,0,1,1.307,1.721ZM41.867,37a.933.933,0,0,0-.435-.572l-1.844-1.077a.941.941,0,0,1-.424-1.1,6.763,6.763,0,0,0,0-4.473.941.941,0,0,1,.424-1.1l1.844-1.075a.942.942,0,0,0-.951-1.625l-1.83,1.068a.941.941,0,0,1-1.16-.168,7.493,7.493,0,0,0-3.806-2.194.941.941,0,0,1-.733-.917V21.66a.942.942,0,0,0-1.883,0v2.109a.939.939,0,0,1-.733.917,7.486,7.486,0,0,0-3.806,2.194.941.941,0,0,1-1.16.168L23.542,25.98a.93.93,0,0,0-.714-.1.941.941,0,0,0-.237,1.723l1.844,1.075a.938.938,0,0,1,.424,1.094,6.769,6.769,0,0,0,0,4.474.941.941,0,0,1-.424,1.1l-1.844,1.077a.941.941,0,0,0,.951,1.625l1.83-1.068a.94.94,0,0,1,1.16.169,7.493,7.493,0,0,0,3.806,2.194.941.941,0,0,1,.733.917v2.109a.942.942,0,1,0,1.883,0V40.262a.939.939,0,0,1,.733-.917,7.486,7.486,0,0,0,3.806-2.194.937.937,0,0,1,1.16-.169l1.83,1.068A.941.941,0,0,0,41.869,37Z" transform="translate(15 15)" fill="#fff"/>
  </g>
</svg>
