<svg xmlns="http://www.w3.org/2000/svg" xmlns:xlink="http://www.w3.org/1999/xlink" width="41.263" height="55.657" viewBox="0 0 41.263 55.657">
  <defs>
    <clipPath id="clip-path">
      <path id="Path_17360" data-name="Path 17360" d="M57.793,135.141l-.031,7.281c0,.5-.4,1.009-1.2,1.394a7.6,7.6,0,0,1-5.808,0c-.814-.388-1.222-.9-1.222-1.414l.031-7.281c0,.511.405,1.023,1.222,1.411a7.57,7.57,0,0,0,5.808,0c.8-.384,1.2-.889,1.2-1.394" transform="translate(-49.53 -135.12)" fill="none"/>
    </clipPath>
    <clipPath id="clip-path-2">
      <path id="Path_17367" data-name="Path 17367" d="M50.947,94.231l-.072-.161c-.021-.041-1.885-4.391-2.842-7.219a3.5,3.5,0,0,1,.676-2.5,2.631,2.631,0,0,1,.79-.742,1.717,1.717,0,0,1,.875-.24,1.886,1.886,0,0,1,.532.079,1.56,1.56,0,0,0,.439.058,2.935,2.935,0,0,0,1.425-.439A4.2,4.2,0,0,0,54.4,81.409,3.759,3.759,0,0,1,55.753,79.8a1.377,1.377,0,0,1,.687-.206h.014c.731.007,1.061.814.814,1.953-.453,2.06-2.012,9.89-2.025,9.969l-.055.268-4.243,2.451m-.82-10.144a1.241,1.241,0,0,0-.618.161,1.5,1.5,0,0,0-.467.439,2.5,2.5,0,0,0-.474,1.648c.848,2.506,2.413,6.21,2.763,7.027l3.426-1.977c.281-1.411,1.565-7.865,1.977-9.712.209-.937-.113-1.359-.529-1.366h-.01a.9.9,0,0,0-.439.134,2.489,2.489,0,0,0-.91,1.1,5.248,5.248,0,0,1-2.053,2.149,3.516,3.516,0,0,1-1.706.525,1.787,1.787,0,0,1-.512-.069,1.646,1.646,0,0,0-.446-.065" transform="translate(-47.982 -79.59)" fill="none"/>
    </clipPath>
  </defs>
  <g id="Layer_1" data-name="Layer 1" transform="translate(0.002)">
    <path id="Path_17358" data-name="Path 17358" d="M57.793,135.141l-.031,7.281c0,.5-.405,1.009-1.2,1.394a7.6,7.6,0,0,1-5.808,0c-.814-.388-1.222-.9-1.222-1.414l.031-7.281c0,.511.405,1.023,1.222,1.411a7.57,7.57,0,0,0,5.808,0c.8-.384,1.2-.889,1.2-1.394h0Z" transform="translate(-32.528 -88.735)" fill="#8d8d8d"/>
    <g id="Group_2416" data-name="Group 2416" transform="translate(17.002 46.385)" clip-path="url(#clip-path)">
      <path id="Path_17359" data-name="Path 17359" d="M57.793,135.141l-.031,7.281c0,.5-.405,1.009-1.2,1.394a7.6,7.6,0,0,1-5.808,0c-.814-.388-1.222-.9-1.222-1.414l.031-7.281c0,.511.405,1.023,1.222,1.411a7.57,7.57,0,0,0,5.808,0c.8-.384,1.2-.889,1.2-1.394h0Z" transform="translate(-49.53 -135.12)" fill="#7f8080"/>
    </g>
    <path id="Path_17361" data-name="Path 17361" d="M56.647,130c1.61.772,1.607,2.022.007,2.794a7.57,7.57,0,0,1-5.808,0c-1.61-.769-1.634-2.022-.031-2.794a7.67,7.67,0,0,1,5.836,0h0Z" transform="translate(-32.59 -84.992)" fill="#8d8d8d"/>
    <path id="Path_17362" data-name="Path 17362" d="M56.307,122.934l-.041,10.034c0,.7-.556,1.39-1.658,1.922a10.467,10.467,0,0,1-8.005,0c-1.123-.536-1.686-1.243-1.682-1.946l.041-10.034c0,.7.56,1.411,1.682,1.946a10.467,10.467,0,0,0,8.005,0c1.1-.529,1.655-1.226,1.658-1.922h0Z" transform="translate(-29.501 -80.717)" fill="#009bde"/>
    <path id="Path_17363" data-name="Path 17363" d="M35.015,35.79c-10.22,0-14.25,8.023-13.714,15.053.659,8.63,6.44,12.523,8.136,15.06a2.683,2.683,0,0,0,1.665,1.74,10.467,10.467,0,0,0,8.005,0A3.082,3.082,0,0,0,40.765,66c1.668-2.612,7.81-6.756,7.748-14.978C48.448,42,43.882,35.79,35.015,35.79" transform="translate(-13.959 -23.504)" fill="#ffe162"/>
    <path id="Path_17364" data-name="Path 17364" d="M7.819,28.667a1.172,1.172,0,0,1-.594-.161L.593,24.678a1.189,1.189,0,0,1,1.188-2.06l6.632,3.828a1.188,1.188,0,0,1-.594,2.218h0Z" transform="translate(0 -14.75)" fill="#ffe162"/>
    <path id="Path_17365" data-name="Path 17365" d="M95.134,31.242a1.191,1.191,0,0,1-.594-2.221l6.632-3.828a1.189,1.189,0,0,1,1.188,2.06l-6.632,3.828a1.172,1.172,0,0,1-.594.161Z" transform="translate(-61.695 -16.44)" fill="#ffe162"/>
    <path id="Path_17366" data-name="Path 17366" d="M58.681,9.646A1.192,1.192,0,0,1,57.49,8.455V1.191a1.191,1.191,0,0,1,2.382,0V8.459A1.19,1.19,0,0,1,58.681,9.65h0Z" transform="translate(-37.756 0)" fill="#ffe162"/>
    <g id="Group_2417" data-name="Group 2417" transform="translate(16.47 27.322)" clip-path="url(#clip-path-2)">
      <rect id="Rectangle_450" data-name="Rectangle 450" width="9.653" height="14.641" transform="translate(-0.117 0)" fill="#fff5cb"/>
    </g>
    <path id="Path_17368" data-name="Path 17368" d="M27.851,55.651C25.812,39.863,42.6,39.86,42.6,39.86S29.976,43.523,27.851,55.651" transform="translate(-18.179 -26.177)" fill="#fff5c7"/>
  </g>
</svg>
