<svg xmlns="http://www.w3.org/2000/svg" width="31.867" height="52.754" viewBox="0 0 31.867 52.754">
  <g id="Layer_1" data-name="Layer 1" transform="translate(0.004 -0.009)">
    <g id="Group_2423" data-name="Group 2423" transform="translate(-0.004 0.009)">
      <path id="Path_17446" data-name="Path 17446" d="M23.224,47.34v9.835a22.91,22.91,0,0,1-2.047,8.565,22.91,22.91,0,0,1-2.047-8.565V47.34Z" transform="translate(-5.242 -12.985)" fill="#002e6d"/>
      <path id="Path_17447" data-name="Path 17447" d="M28.26,36.309c-.058-.087-.116-.167-.181-.247l-.036-.044c-.065-.087-.138-.167-.21-.254l-.058-.065-.08-.087a6.421,6.421,0,0,0-.8-.733l-.051-.044h0a9.675,9.675,0,0,0-1.154-.777c-4.544-2.628-11.94-2.613-16.52.029a9.68,9.68,0,0,0-1.2.813h0a6.7,6.7,0,0,0-.007,10.6h0a9.673,9.673,0,0,0,1.154.777c4.544,2.628,11.94,2.613,16.52-.029a10.252,10.252,0,0,0,1.2-.813h0A6.717,6.717,0,0,0,28.252,36.3h0Z" transform="translate(-1.467 -8.806)" fill="#3f3436"/>
      <path id="Path_17448" data-name="Path 17448" d="M31.863,10.687h-.007a8.721,8.721,0,0,0-1.568-5.11c-.073-.109-.16-.218-.24-.327L30,5.192c-.087-.109-.181-.225-.283-.334l-.073-.087-.109-.116a9.108,9.108,0,0,0-1.06-.973l-.065-.058h0A12.956,12.956,0,0,0,26.891,2.6C20.874-.869,11.1-.854,5.044,2.637a12.908,12.908,0,0,0-1.59,1.074h0a8.71,8.71,0,0,0-3.44,6.975H0a8.006,8.006,0,0,0,1.227,4.558,8.248,8.248,0,0,0,1.916,2.25c2.323,2.119,5.074,3.3,5.074,4.725,0,2.49-4.333,4.609-4.333,9.153H3.9c-.022,1.749,1.14,3.491,3.5,4.82,4.689,2.642,12.31,2.628,17.021-.029,2.352-1.328,3.535-3.056,3.549-4.783h0V31.3c-.051-4.486-4.326-6.6-4.326-9.08s8.383-4.2,8.216-11.533Z" transform="translate(0.004 -0.009)" fill="#f1d723"/>
      <path id="Path_17449" data-name="Path 17449" d="M16.649,16.884a20.208,20.208,0,0,1-9.7-2.265C1.573,11.585,1.6,6.657,7.01,3.6A20.459,20.459,0,0,1,16.83,1.3a20.128,20.128,0,0,1,9.7,2.265c5.378,3.034,5.349,7.962-.065,11.011a20.459,20.459,0,0,1-9.821,2.3" transform="translate(-0.801 -0.363)" fill="#009add"/>
    </g>
  </g>
</svg>
