<svg xmlns="http://www.w3.org/2000/svg" xmlns:xlink="http://www.w3.org/1999/xlink" width="73.82" height="78.836" viewBox="0 0 73.82 78.836">
  <defs>
    <filter id="productivity" x="0" y="0" width="73.82" height="78.836" filterUnits="userSpaceOnUse">
      <feOffset input="SourceAlpha"/>
      <feGaussianBlur stdDeviation="5" result="blur"/>
      <feFlood flood-color="#fff"/>
      <feComposite operator="in" in2="blur"/>
      <feComposite in="SourceGraphic"/>
    </filter>
  </defs>
  <g transform="matrix(1, 0, 0, 1, 0, 0)" filter="url(#productivity)">
    <path id="productivity-2" data-name="productivity" d="M42.468,29.515l-1.522-.861a17.9,17.9,0,0,0,0-8.473l1.524-.863a5.087,5.087,0,1,0-5.012-8.853l-1.53.867a18.209,18.209,0,0,0-7.7-4.493V5.087a5.087,5.087,0,0,0-10.174,0V6.839a18.228,18.228,0,0,0-7.7,4.493l-1.526-.865a5.086,5.086,0,0,0-5.014,8.851l1.522.863a17.9,17.9,0,0,0,0,8.473l-1.522.861a5.088,5.088,0,1,0,5.012,8.856l1.528-.867A18.228,18.228,0,0,0,18.056,42v1.752a5.087,5.087,0,1,0,10.174,0V42a18.209,18.209,0,0,0,7.7-4.493l1.528.865a5.087,5.087,0,1,0,5.012-8.853Zm.149,5.931a3.044,3.044,0,0,1-4.159,1.15l-2.21-1.249A1.02,1.02,0,0,0,35,35.538a16.208,16.208,0,0,1-8.031,4.686,1.02,1.02,0,0,0-.779.989v2.535a3.052,3.052,0,1,1-6.1,0V41.213a1.019,1.019,0,0,0-.777-.989,16.211,16.211,0,0,1-8.035-4.686,1.013,1.013,0,0,0-.743-.322,1.027,1.027,0,0,0-.5.13L7.823,36.6a3.052,3.052,0,1,1-3.007-5.311l2.2-1.247A1.018,1.018,0,0,0,7.5,28.876a15.957,15.957,0,0,1,0-8.912A1.016,1.016,0,0,0,7.02,18.8l-2.2-1.247a3.052,3.052,0,1,1,3.009-5.311l2.208,1.249a1.02,1.02,0,0,0,1.243-.191,16.2,16.2,0,0,1,8.035-4.686,1.02,1.02,0,0,0,.777-.989V5.091a3.052,3.052,0,1,1,6.1,0V7.626a1.018,1.018,0,0,0,.779.989A16.2,16.2,0,0,1,35,13.3a1.024,1.024,0,0,0,1.243.191l2.212-1.251a3.073,3.073,0,0,1,2.318-.287,3.053,3.053,0,0,1,.69,5.6l-2.2,1.247a1.016,1.016,0,0,0-.476,1.164,15.957,15.957,0,0,1,0,8.912,1.017,1.017,0,0,0,.476,1.164l2.2,1.247a3.049,3.049,0,0,1,1.15,4.159ZM30.969,20.635A1.017,1.017,0,1,1,29.555,22.1l-5.4-5.234v16.71a1.017,1.017,0,0,1-2.035,0V16.86l-5.4,5.234a1.018,1.018,0,0,1-1.416-1.463L21.1,15.017a2.983,2.983,0,0,1,4.094.012l5.777,5.6Z" transform="translate(13.77 15)" fill="#fff"/>
  </g>
</svg>
