<svg xmlns="http://www.w3.org/2000/svg" xmlns:xlink="http://www.w3.org/1999/xlink" width="66.79" height="72.049" viewBox="0 0 66.79 72.049">
  <defs>
    <filter id="tap" x="0" y="0" width="66.79" height="72.049" filterUnits="userSpaceOnUse">
      <feOffset input="SourceAlpha"/>
      <feGaussianBlur stdDeviation="5" result="blur"/>
      <feFlood flood-color="#fff"/>
      <feComposite operator="in" in2="blur"/>
      <feComposite in="SourceGraphic"/>
    </filter>
  </defs>
  <g transform="matrix(1, 0, 0, 1, 0, 0)" filter="url(#tap)">
    <path id="tap-2" data-name="tap" d="M37.79,31.41v9.762a.876.876,0,1,1-1.752,0V31.41a6.1,6.1,0,0,0-4.8-5.987L19.205,22.755a.877.877,0,0,1-.687-.855V9.824a2.754,2.754,0,0,0-2.179-2.779,2.631,2.631,0,0,0-3.076,2.591V33.53a.877.877,0,0,1-1.423.685L7.22,30.536a2.63,2.63,0,1,0-3.637,3.8l6.516,6.2A.876.876,0,1,1,8.891,41.8l-6.51-6.2a4.38,4.38,0,0,1,5.985-6.4l3.147,2.5V9.637A4.375,4.375,0,0,1,13.056,6.3a4.422,4.422,0,0,1,3.565-.985,4.518,4.518,0,0,1,3.651,4.508V21.2l11.344,2.516a7.836,7.836,0,0,1,6.176,7.7ZM7.616,17.923a.877.877,0,0,0,.245-1.214,9.635,9.635,0,1,1,16.06,0,.874.874,0,0,0,.245,1.214.863.863,0,0,0,.484.145.877.877,0,0,0,.729-.391,11.386,11.386,0,1,0-18.979,0,.878.878,0,0,0,1.214.245Z" transform="translate(14 15)" fill="#fff"/>
  </g>
</svg>
